<?xml version="1.0" encoding="utf-8"?>
<!-- Generator: Adobe Illustrator 15.0.2, SVG Export Plug-In . SVG Version: 6.00 Build 0)  -->
<!DOCTYPE svg PUBLIC "-//W3C//DTD SVG 1.1//EN" "http://www.w3.org/Graphics/SVG/1.1/DTD/svg11.dtd">
<svg version="1.1" id="Layer_1" xmlns="http://www.w3.org/2000/svg" xmlns:xlink="http://www.w3.org/1999/xlink" x="0px" y="0px"
	 width="45.186px" height="51.041px" viewBox="0 0 45.186 51.041" enable-background="new 0 0 45.186 51.041" xml:space="preserve">
<g id="Capa_x0020_1">
	<path d="M24.803,4.229c5.688,3.159,10.111,5.686,15.163,8.845c1.262,0.632,1.896,1.263,1.896,3.159c0,6.317,0,12.635,0,18.32
		c0,1.265-0.632,2.526-1.896,3.158c-5.687,3.16-9.476,5.687-15.163,8.846c-1.895,0.631-2.527,1.264-4.422,0
		c-5.686-3.159-10.108-5.684-15.163-8.846c-1.261-0.632-1.894-1.262-1.894-3.158c0-6.316,0-12.634,0-18.32
		c0-1.264,0.632-1.896,1.895-3.159c5.686-3.16,10.11-5.687,15.796-8.845C22.276,3.596,23.541,3.596,24.803,4.229z M24.172,26.341
		v17.057c5.054-3.158,10.108-5.687,14.53-8.845V17.495L24.172,26.341z M21.645,43.397V26.341L7.115,17.495v17.058
		C12.169,37.711,17.223,40.239,21.645,43.397z M8.378,15.6l14.532,8.844L37.441,15.6c-5.056-3.158-10.11-5.687-14.531-8.844
		C17.856,9.914,12.8,12.442,8.378,15.6z"/>
</g>
</svg>
