<?xml version="1.0" encoding="utf-8"?>
<!-- Generator: Adobe Illustrator 18.0.0, SVG Export Plug-In . SVG Version: 6.00 Build 0)  -->
<!DOCTYPE svg PUBLIC "-//W3C//DTD SVG 1.1//EN" "http://www.w3.org/Graphics/SVG/1.1/DTD/svg11.dtd">
<svg version="1.1" id="Layer_1" xmlns="http://www.w3.org/2000/svg" xmlns:xlink="http://www.w3.org/1999/xlink" x="0px" y="0px"
	 viewBox="-0.5 -2.2 24.6 28.3" enable-background="new -0.5 -2.2 24.6 28.3" xml:space="preserve">
<g>
	<g>
		<g>
			<path d="M17.4,0.8l-0.5-0.2l0.5-1.6c0.1-0.3-0.1-0.5-0.3-0.6l-2.1-0.6c-0.1-0.1-0.3,0-0.4,0.1c-0.1,0.1-0.2,0.2-0.2,0.3l-0.5,1.6
				l-0.5-0.2c-0.3-0.1-0.5,0.1-0.6,0.3l-1.4,4.5L6.9,19.3l0,0v0.1c0,0.1,0,0.1,0,0.1l0,0l0.3,6.3c0,0.2,0.2,0.4,0.3,0.4
				c0.1,0,0.2,0.1,0.2,0c0.1,0,0.3-0.1,0.3-0.2l3.7-5.1c0,0,0,0,0.1-0.1c0,0,0.1-0.1,0.1-0.1v-0.1l0,0l4.6-14.7l1.4-4.5
				c0.1-0.1,0-0.3-0.1-0.4C17.6,0.9,17.5,0.9,17.4,0.8z M15.1-1.2l1.3,0.4L16.1,0l-1.3-0.4L15.1-1.2z M7.9,24.3L7.7,20l2.7,0.8
				L7.9,24.3z M15.4,5.7L10.9,20l-3.1-0.9l4.4-14.3l1.3-4.1l3.1,0.9L15.4,5.7z"/>
		</g>
	</g>
	<g transform="matrix( 1, 0, 0, 1, 0,0) ">
		<g>
			<g id="a">
				<path d="M23.7,11.2l-2.9-2.6l0,0c-0.2-0.1-0.3-0.1-0.5-0.1c-0.1,0-0.2,0-0.3,0.1s-0.1,0-0.1,0.1c-0.1,0.1-0.1,0.3-0.1,0.5
					c0,0.1,0.1,0.3,0.4,0.5l2.6,2.4l-2.6,2.3c-0.2,0.1-0.4,0.3-0.4,0.5c0,0.1,0,0.3,0.1,0.4c0.1,0.1,0.2,0.2,0.4,0.2
					c0.2,0,0.4,0,0.5-0.1l2.9-2.6c0.3-0.3,0.4-0.5,0.4-0.7C24.2,11.7,24,11.5,23.7,11.2z"/>
			</g>
		</g>
	</g>
	<g transform="matrix( 1, 0, 0, 1, 0,0) ">
		<g>
			<g id="a_1_">
				<path d="M-0.1,12.6l2.9,2.6l0,0c0.2,0.1,0.3,0.1,0.5,0.1c0.1,0,0.2,0,0.3-0.1c0,0,0.1,0,0.1-0.1c0.1-0.1,0.1-0.3,0.1-0.5
					c0-0.1-0.1-0.3-0.4-0.5l-2.6-2.3l2.6-2.3c0.2-0.1,0.4-0.3,0.4-0.5c0-0.1,0-0.3-0.1-0.4C3.6,8.6,3.5,8.5,3.3,8.5
					c-0.2,0-0.4,0-0.5,0.1l-2.9,2.6c-0.3,0.3-0.4,0.5-0.4,0.7C-0.6,12.1-0.4,12.3-0.1,12.6z"/>
			</g>
		</g>
	</g>
</g>
</svg>
