<?xml version="1.0" encoding="utf-8"?>
<!-- Generator: Adobe Illustrator 15.0.2, SVG Export Plug-In . SVG Version: 6.00 Build 0)  -->
<!DOCTYPE svg PUBLIC "-//W3C//DTD SVG 1.1//EN" "http://www.w3.org/Graphics/SVG/1.1/DTD/svg11.dtd">
<svg version="1.1" id="Layer_1" xmlns="http://www.w3.org/2000/svg" xmlns:xlink="http://www.w3.org/1999/xlink" x="0px" y="0px"
	 width="19.979px" height="90.28px" viewBox="12.103 -20.12 19.979 90.28" enable-background="new 12.103 -20.12 19.979 90.28"
	 xml:space="preserve">
<path d="M32.075-4.218c0-0.155-0.026-0.306-0.064-0.453l0.001-13.625c-0.001-1.007-0.816-1.823-1.822-1.822L13.926-20.12
	c-0.968,0-1.824,0.856-1.823,1.823L12.105-8.18l0.014,4.885l0.052,46.979l0.003,5.151l0.001,3.149c-0.001,0.01,0.001,0.021,0,0.029
	v0.059c-0.001,0.081,0.013,0.158,0.024,0.234c0.012,0.096,0.031,0.187,0.058,0.277c0.024,0.081,0.048,0.161,0.083,0.236
	c0.01,0.022,0.013,0.048,0.024,0.069l8.13,16.263c0.31,0.617,0.941,1.007,1.631,1.007c0.492,0.001,0.953-0.196,1.29-0.533
	c0.136-0.136,0.252-0.296,0.341-0.473l8.132-16.264c0.008-0.015,0.01-0.031,0.018-0.047c0.055-0.12,0.1-0.243,0.13-0.373
	c0.002-0.009,0.005-0.015,0.007-0.022c0.026-0.123,0.04-0.247,0.04-0.374 M32.079,23.776l-0.001-7.113 M15.814-2.244l4.653-0.001
	l0.008,52.495h-4.653L15.814-2.244z M19.849,59.894l-2.906-5.994h10.364l-2.986,5.973L19.849,59.894z M28.435,50.251L24.12,50.25
	L24.113-2.245l4.316-0.001L28.435,50.251z M28.365-6.041L15.75-6.038v-10.435h12.616L28.365-6.041z"/>
</svg>
