<?xml version="1.0" encoding="utf-8"?>
<!-- Generator: Adobe Illustrator 15.0.2, SVG Export Plug-In . SVG Version: 6.00 Build 0)  -->
<!DOCTYPE svg PUBLIC "-//W3C//DTD SVG 1.1//EN" "http://www.w3.org/Graphics/SVG/1.1/DTD/svg11.dtd">
<svg version="1.1" id="Layer_1" xmlns="http://www.w3.org/2000/svg" xmlns:xlink="http://www.w3.org/1999/xlink" x="0px" y="0px"
	 width="18.833px" height="89.729px" viewBox="13.03 -20.125 18.833 89.729" enable-background="new 13.03 -20.125 18.833 89.729"
	 xml:space="preserve">
<path d="M29.811-20.125H14.932c-1.049-0.004-1.902,0.912-1.902,2.043l0.021,39.787c0,0.44,0.031,0.879,0.09,1.315l2.988,19.977
	c0,0-2.965,3.051-2.896,8.711s8.86,17.896,8.86,17.896s9.477-12.236,9.551-17.896s-3.122-8.711-3.122-8.711l3.221-19.977
	c0.064-0.436,0.098-0.875,0.098-1.315l0.022-39.787C31.862-19.212,30.942-20.128,29.811-20.125z M28.498-16.819l-0.1,39.193
	c0,0-0.992,5.25-1.38,8.375h-9.496c-0.359-3.125-1.28-8.375-1.28-8.375L16.15-16.819H28.498z M26.737,34.156l-0.829,5.702h-7.355
	l-0.77-5.702H26.737z M28.843,51.458c-0.156,3.344-3.678,8.598-3.678,8.598h-5.923c0,0-3.267-5.254-3.412-8.598
	c-0.116-2.875,1.871-5.479,2.569-6.777h7.673C26.826,45.979,28.968,48.583,28.843,51.458z"/>
</svg>
