<?xml version="1.0" encoding="utf-8"?>
<!-- Generator: Adobe Illustrator 15.0.2, SVG Export Plug-In . SVG Version: 6.00 Build 0)  -->
<!DOCTYPE svg PUBLIC "-//W3C//DTD SVG 1.1//EN" "http://www.w3.org/Graphics/SVG/1.1/DTD/svg11.dtd">
<svg version="1.1" id="Layer_1" xmlns="http://www.w3.org/2000/svg" xmlns:xlink="http://www.w3.org/1999/xlink" x="0px" y="0px"
	 width="400px" height="325px" viewBox="0 37.5 400 325" enable-background="new 0 37.5 400 325" xml:space="preserve">
<g>
	<polygon fill="#FFFFFF" points="204.949,81.645 147.846,81.645 134.903,58.044 121.198,81.645 56.482,84.31 53.818,312.719 
		103.687,317.289 105.971,347.744 159.267,347.744 163.836,318.049 204.949,317.289 207.234,352.694 288.699,352.694 
		292.127,318.049 343.137,315.764 343.137,84.691 292.127,82.407 290.604,48.526 207.234,48.526 	"/>
	<path fill="#05070A" d="M339.109,79.643h-44.723V52.889c0-5.134-4.174-9.311-9.309-9.311h-74.029c-5.135,0-9.313,4.177-9.313,9.311
		v26.754h-52.33c-4.367-9.06-8.638-18.029-11.438-24.179l-0.11-0.24l-0.146-0.219c-0.821-1.23-2.051-1.937-3.377-1.937
		c-1.397,0-2.667,0.783-3.397,2.098l-0.116,0.229c-2.801,6.126-7.189,15.105-11.706,24.183H60.889c-5.134,0-9.311,4.178-9.311,9.312
		v222.156c0,5.135,4.177,9.313,9.311,9.313h40.72v22.818c0,5.135,4.177,9.313,9.312,9.313h46.031c5.133,0,9.311-4.178,9.311-9.313
		v-22.818h35.474v26.754c0,5.133,4.178,9.311,9.313,9.311h74.029c5.135,0,9.311-4.178,9.311-9.311v-26.689h44.721
		c5.135,0,9.313-4.176,9.313-9.309V88.955C348.422,83.82,344.244,79.643,339.109,79.643z M134.367,63.302
		c1.045,2.239,2.193,4.672,3.407,7.226h-6.885C132.13,67.974,133.304,65.542,134.367,63.302z M101.972,113.489l-0.362,0.705v199.607
		H60.889c-1.544,0-2.754-1.211-2.754-2.754V88.889c0-1.545,1.209-2.755,2.754-2.755h54.954
		C108.681,100.421,102.088,113.26,101.972,113.489z M159.706,343.176c0,1.545-1.209,2.754-2.754,2.754h-46.031
		c-1.545,0-2.755-1.209-2.755-2.754V308.36h51.54V343.176L159.706,343.176z M159.706,301.799h-51.54v-21.441h51.54V301.799z
		 M159.706,273.801h-21.441V122.462h-6.558v151.339h-23.541v-151.47h51.54V273.801z M159.706,115.773h-51.538
		c1.96-3.823,11.418-22.312,19.502-38.687h13.232c7.86,16.396,16.952,34.899,18.804,38.662V115.773L159.706,115.773z
		 M201.734,313.801h-35.474V114.222l-0.336-0.685c-0.112-0.229-6.428-13.053-13.35-27.337h49.16V313.801L201.734,313.801z
		 M287.832,347.112c0,1.543-1.207,2.752-2.756,2.752h-74.029c-1.543,0-2.752-1.209-2.752-2.752v-56.785h28.721v-6.559h-28.721
		v-51.473h28.721v-6.557h-28.721v-51.476h28.721v-6.557h-28.721v-51.473h28.721v-6.558h-28.721V52.889
		c0-1.544,1.209-2.754,2.752-2.754h74.029c1.549,0,2.756,1.21,2.756,2.754V347.112L287.832,347.112z M341.863,311.114
		c0,1.543-1.211,2.752-2.754,2.752h-44.723V86.2h44.723c1.543,0,2.754,1.21,2.754,2.754V311.114z"/>
</g>
</svg>
