<?xml version="1.0" encoding="utf-8"?>
<!-- Generator: Adobe Illustrator 15.0.2, SVG Export Plug-In . SVG Version: 6.00 Build 0)  -->
<!DOCTYPE svg PUBLIC "-//W3C//DTD SVG 1.1//EN" "http://www.w3.org/Graphics/SVG/1.1/DTD/svg11.dtd">
<svg version="1.1" id="Layer_1" xmlns="http://www.w3.org/2000/svg" xmlns:xlink="http://www.w3.org/1999/xlink" x="0px" y="0px"
	 width="400px" height="325px" viewBox="-0.254 -31.5 400 325" enable-background="new -0.254 -31.5 400 325" xml:space="preserve">
<g>
	<polygon fill="#FFFFFF" points="101.568,14.009 101.568,54.521 9.805,56.73 9.805,204.29 99.726,206.129 101.568,247.254 
		390.054,247.254 390.054,14.009 	"/>
	<path fill="#1D1D1B" d="M274.82,188.348c0.6,0.6,1.385,0.902,2.172,0.902c0.783,0,1.568-0.297,2.168-0.896l24.184-24.121
		c0.848-0.846,1.086-2.061,0.736-3.127c0.348-1.063,0.111-2.273-0.734-3.119l-24.123-24.124c-1.197-1.198-3.143-1.198-4.338,0
		c-1.199,1.198-1.199,3.142,0,4.341l22.902,22.902l-22.963,22.9C273.625,185.206,273.623,187.149,274.82,188.348z"/>
	<path fill="#1D1D1B" d="M176.433,164.233l24.184,24.121c0.6,0.6,1.383,0.896,2.168,0.896s1.572-0.303,2.172-0.902
		c1.197-1.199,1.195-3.143-0.005-4.342l-22.93-22.869l22.933-22.934c1.198-1.199,1.198-3.141,0-4.341
		c-1.197-1.198-3.143-1.198-4.34,0l-24.124,24.124c-0.818,0.818-1.063,1.979-0.765,3.016
		C175.328,162.092,175.558,163.358,176.433,164.233z"/>
	
		<rect x="236.847" y="122.287" transform="matrix(-0.9563 -0.2922 0.2922 -0.9563 422.5742 383.3019)" fill="#1D1D1B" width="6.137" height="75.604"/>
	<path fill="#1D1D1B" d="M164.606,34.511c-6.126,0-11.11,4.983-11.11,11.11c0,6.125,4.984,11.109,11.11,11.109
		c6.125,0,11.109-4.984,11.109-11.109S170.732,34.511,164.606,34.511z M164.606,50.591c-2.742,0-4.972-2.229-4.972-4.971
		c0-2.742,2.23-4.972,4.972-4.972c2.74,0,4.971,2.229,4.971,4.972C169.578,48.362,167.347,50.591,164.606,50.591z"/>
	<path fill="#1D1D1B" d="M132.442,34.511c-6.126,0-11.11,4.983-11.11,11.11c0,6.125,4.984,11.109,11.11,11.109
		c6.126,0,11.11-4.984,11.11-11.109S138.568,34.511,132.442,34.511z M132.442,50.591c-2.741,0-4.972-2.229-4.972-4.971
		c0-2.742,2.23-4.972,4.972-4.972c2.742,0,4.972,2.229,4.972,4.972C137.414,48.362,135.184,50.591,132.442,50.591z"/>
	<path fill="#1D1D1B" d="M196.708,34.511c-6.125,0-11.109,4.983-11.109,11.11c0,6.125,4.984,11.109,11.109,11.109
		c6.126,0,11.108-4.984,11.108-11.109S202.833,34.511,196.708,34.511z M196.708,50.591c-2.742,0-4.972-2.229-4.972-4.971
		c0-2.742,2.23-4.972,4.972-4.972c2.741,0,4.972,2.229,4.972,4.972C201.679,48.362,199.449,50.591,196.708,50.591z"/>
	<path fill="#05070A" d="M385.511,10.449H106.356c-5.01,0-9.084,4.075-9.084,9.084v33.084H13.979c-5.009,0-9.084,4.075-9.084,9.084
		v138.596c0,5.01,4.075,9.084,9.084,9.084h83.293v33.084c0,5.012,4.075,9.086,9.084,9.086h279.155c5.01,0,9.086-4.074,9.086-9.086
		V19.533C394.597,14.524,390.521,10.449,385.511,10.449z M97.271,203.243H13.979c-1.625,0-2.947-1.318-2.947-2.945V98.898h86.24
		V203.243z M97.271,92.76h-86.24V61.702c0-1.625,1.322-2.946,2.947-2.946h83.293V92.76z M388.458,242.465
		c0,1.627-1.322,2.947-2.947,2.947H106.356c-1.625,0-2.947-1.32-2.947-2.947V80.852h285.049V242.465L388.458,242.465z
		 M388.458,74.714H103.409V19.533c0-1.624,1.321-2.946,2.947-2.946h279.155c1.625,0,2.947,1.321,2.947,2.946V74.714L388.458,74.714z
		"/>
	<path fill="#1D1D1B" d="M50.132,80.852c2.809,0,5.095-2.285,5.095-5.094c0-2.81-2.286-5.095-5.095-5.095
		c-2.81,0-5.095,2.286-5.095,5.095C45.037,78.565,47.322,80.852,50.132,80.852z M50.132,74.714c0.594,0,1.043,0.449,1.043,1.043
		c0,0.595-0.449,1.043-1.043,1.043c-0.596,0-1.043-0.448-1.043-1.043C49.088,75.163,49.536,74.714,50.132,74.714z"/>
	<path fill="#1D1D1B" d="M30.06,80.852c2.81,0,5.095-2.285,5.095-5.094l-0.005-0.169c-0.153-2.762-2.388-4.925-5.09-4.925
		c-2.81,0-5.094,2.286-5.094,5.095C24.966,78.565,27.251,80.852,30.06,80.852z M30.06,76.801c-0.546,0-1.011-0.392-1.038-0.874
		l2.082-0.115C31.076,76.379,30.637,76.801,30.06,76.801z M30.06,74.714c0.595,0,1.044,0.449,1.044,1.043h-2.087
		C29.017,75.163,29.465,74.714,30.06,74.714z"/>
</g>
</svg>
