<?xml version="1.0" encoding="utf-8"?>
<!-- Generator: Adobe Illustrator 15.0.2, SVG Export Plug-In . SVG Version: 6.00 Build 0)  -->
<!DOCTYPE svg PUBLIC "-//W3C//DTD SVG 1.1//EN" "http://www.w3.org/Graphics/SVG/1.1/DTD/svg11.dtd">
<svg version="1.1" id="Layer_1" xmlns="http://www.w3.org/2000/svg" xmlns:xlink="http://www.w3.org/1999/xlink" x="0px" y="0px"
	 width="400px" height="325px" viewBox="0 37.5 400 325" enable-background="new 0 37.5 400 325" xml:space="preserve">
<g>
	<g>
		<polygon fill="#FFFFFF" points="43.266,287.667 4.6,287.667 4.6,305.667 276.6,307.333 276.6,326.833 394.6,327.667 
			396.6,165.499 334.766,163.499 334.434,73.333 44.1,73.333 		"/>
	</g>
	<g>
		<path fill="#05070A" d="M337.55,309.788c-2.521,0-4.567,2.049-4.567,4.564c0,2.517,2.049,4.567,4.567,4.567
			s4.565-2.049,4.565-4.565c0-1.174-0.52-2.361-1.422-3.267C339.869,310.262,338.722,309.788,337.55,309.788z M337.55,315.795
			c-0.414,0-0.81-0.162-1.104-0.459c-0.213-0.211-0.34-0.58-0.34-0.982c0-0.821,0.621-1.44,1.441-1.44
			c0.822,0,1.441,0.619,1.441,1.44C338.988,315.176,338.373,315.795,337.55,315.795z"/>
		<path fill="#05070A" d="M377.391,176.624h-80.162c-4.972,0-9.015,4.044-9.015,9.014v108.465c0,4.973,4.043,9.016,9.015,9.016
			h80.161c4.97,0,9.015-4.043,9.015-9.015V185.638C386.404,180.667,382.359,176.624,377.391,176.624z M380.395,294.102
			c0,1.656-1.351,3.006-3.004,3.006h-80.162c-1.658,0-3.007-1.35-3.007-3.006V185.637c0-1.656,1.349-3.004,3.007-3.004v0.001h80.161
			c1.654,0,3.005,1.347,3.005,3.004V294.102L380.395,294.102z"/>
		<path fill="#05070A" d="M390.73,160.699h-53.479V78.013c0-4.971-4.043-9.014-9.016-9.014H49.41c-4.971,0-9.014,4.044-9.014,9.014
			v207.854l-31.068,0.006c-0.001,0-0.001,0-0.001,0c-5.003,0-9.073,3.963-9.073,8.832v6.672c0,4.852,3.986,8.651,9.074,8.651H272.71
			v11.959c0,4.972,4.043,9.015,9.015,9.015H390.73c4.973,0,9.016-4.043,9.016-9.017V169.713
			C399.744,164.742,395.701,160.699,390.73,160.699z M46.405,78.013c0-1.656,1.348-3.004,3.005-3.004h278.826
			c1.656,0,3.004,1.347,3.004,3.004v82.687h-12.076V96.462c0-4.971-4.046-9.015-9.018-9.015H65.454
			c-4.971,0-9.014,4.045-9.014,9.015v170.479c0,4.983,4.128,9.194,9.014,9.194H272.71v9.674l-226.306,0.053L46.405,78.013
			L46.405,78.013z M272.711,169.713v100.415H65.454c-1.6,0-3.004-1.489-3.004-3.188V96.462c0-1.656,1.347-3.004,3.004-3.004h244.692
			c1.657,0,3.006,1.347,3.006,3.004v64.237h-31.428C276.754,160.699,272.711,164.743,272.711,169.713z M9.329,304.019
			c-1.719,0-3.065-1.161-3.065-2.644v-6.672c0-1.582,1.346-2.822,3.065-2.822l263.381-0.063v12.198L9.329,304.019L9.329,304.019z
			 M393.736,321.984c0,1.656-1.351,3.008-3.006,3.008H281.725c-1.656,0-3.005-1.352-3.005-3.008V169.713
			c0-1.657,1.349-3.005,3.005-3.005H390.73c1.657,0,3.006,1.348,3.006,3.005V321.984L393.736,321.984z"/>
	</g>
</g>
</svg>
