<?xml version="1.0" encoding="utf-8"?>
<!-- Generator: Adobe Illustrator 15.0.2, SVG Export Plug-In . SVG Version: 6.00 Build 0)  -->
<!DOCTYPE svg PUBLIC "-//W3C//DTD SVG 1.1//EN" "http://www.w3.org/Graphics/SVG/1.1/DTD/svg11.dtd">
<svg version="1.1" id="Layer_1" xmlns="http://www.w3.org/2000/svg" xmlns:xlink="http://www.w3.org/1999/xlink" x="0px" y="0px"
	 width="560px" height="560px" viewBox="0 0 560 560" enable-background="new 0 0 560 560" xml:space="preserve">
<path d="M279.996,488.284c-49.526,0-93.774-15.874-132.716-47.619l4.761,3.481c7.408-16.299,18.308-31.949,32.708-46.987
	c14.392-15.021,28.255-27.154,41.59-36.358c13.335-9.206,27.838-17.873,43.498-26.041c15.67-8.131,26.365-13.336,32.069-15.559
	c5.705-2.223,10.262-3.963,13.651-5.224l0.648-0.333h0.629c20.744,54.417,35.561,107.11,44.451,158.137
	C335.023,482.783,307.944,488.284,279.996,488.284L279.996,488.284z M298.425,280.473c-1.927,0.538-3.298,0.907-4.149,1.111
	l-11.733,4.13c-8.047,2.963-18.576,8.039-31.597,15.243c-13.012,7.187-26.829,15.762-41.433,25.708
	c-14.604,9.966-29.69,23.133-45.248,39.543c-15.558,16.393-28.625,34.024-39.211,52.86c-16.938-18.836-30.06-40.173-39.367-63.991
	c-9.316-23.801-13.974-48.841-13.974-75.086c0-2.963,0.102-5.186,0.314-6.668c76.624,0,147.857-9.834,213.692-29.522
	c6.779,13.132,12.372,24.874,16.817,35.245C301.684,279.473,300.314,279.954,298.425,280.473z M76.157,237.133
	c6.771-31.969,20.318-60.751,40.646-86.366c20.318-25.615,45.082-45.285,74.29-59.046c26.245,34.912,52.073,74.919,77.476,120
	C204.225,228.669,140.085,237.133,76.157,237.133L76.157,237.133z M455.264,392.546c-15.668,24.244-35.245,44.304-58.749,60.176
	c-8.669-48.692-22.227-98.312-40.636-148.912c42.118-6.556,85.42-3.501,129.873,9.206
	C481.083,341.797,470.934,368.321,455.264,392.546z M229.516,78.052c0.213-0.204,0.427-0.315,0.639-0.315
	C229.942,77.737,229.729,77.848,229.516,78.052L229.516,78.052z M413.518,129.337c-1.594,2.223-5.557,6.501-11.909,12.854
	c-6.353,6.353-13.28,12.391-20.8,18.095c-7.52,5.724-17.726,12.225-30.636,19.54c-12.927,7.299-26.67,13.706-41.265,19.207
	c-24.355-44.878-50.396-85.311-78.124-121.297c16.725-4.02,33.126-6.02,49.212-6.02c52.509,0,98.33,17.354,137.484,52.063
	C416.425,125.262,415.11,127.115,413.518,129.337z M485.121,277.139c-2.13-0.426-4.778-0.889-7.946-1.427
	c-3.166-0.535-7.037-1.167-11.576-1.907c-4.556-0.74-9.648-1.427-15.26-2.056c-5.596-0.648-11.596-1.223-17.929-1.76
	c-6.354-0.519-13.134-0.943-20.337-1.259c-7.187-0.315-14.484-0.482-21.894-0.482c-7.408,0-15.188,0.205-23.337,0.63
	c-8.15,0.426-16.04,1.167-23.67,2.223c-0.63-1.056-1.408-2.797-2.37-5.241c-0.964-2.426-1.63-4.279-2.076-5.557
	c-3.999-8.891-8.666-18.929-13.965-30.153c14.613-5.926,28.523-12.761,41.749-20.484c13.242-7.724,23.817-14.614,31.764-20.634
	c7.945-6.037,15.447-12.427,22.54-19.206c7.095-6.779,11.706-11.483,13.818-14.132c2.109-2.649,4.11-5.242,6.036-7.779l0.316-0.314
	c30.893,37.673,46.654,81.069,47.303,130.169L485.121,277.139z M402.404,68.846c-37.376-21.8-78.161-32.69-122.408-32.69
	c-44.238,0-85.042,10.891-122.399,32.69c-37.358,21.8-66.946,51.397-88.745,88.755c-21.801,37.357-32.7,78.16-32.7,122.391
	c0,44.248,10.899,85.05,32.7,122.409c21.799,37.356,51.387,66.936,88.745,88.736c37.357,21.8,78.161,32.708,122.399,32.708
	c44.247,0,85.032-10.908,122.408-32.708c37.358-21.801,66.936-51.38,88.736-88.736c21.8-37.359,32.708-78.161,32.708-122.409
	c0-44.23-10.908-85.033-32.708-122.391C469.34,120.243,439.763,90.646,402.404,68.846z"/>
</svg>
