<?xml version="1.0" encoding="utf-8"?>
<!-- Generator: Adobe Illustrator 15.0.2, SVG Export Plug-In . SVG Version: 6.00 Build 0)  -->
<!DOCTYPE svg PUBLIC "-//W3C//DTD SVG 1.1//EN" "http://www.w3.org/Graphics/SVG/1.1/DTD/svg11.dtd">
<svg version="1.1" id="Layer_1" xmlns="http://www.w3.org/2000/svg" xmlns:xlink="http://www.w3.org/1999/xlink" x="0px" y="0px"
	 width="560px" height="560px" viewBox="0 0 560 560" enable-background="new 0 0 560 560" xml:space="preserve">
<path d="M495.966,160.901c-22.298-38.212-52.553-68.485-90.764-90.784C366.972,47.82,325.255,36.68,279.996,36.68
	c-45.25,0-86.985,11.14-125.198,33.438c-38.211,22.298-68.475,52.572-90.774,90.784c-22.298,38.212-33.446,79.947-33.446,125.186
	c0,54.353,15.857,103.23,47.579,146.633c31.714,43.422,72.691,73.45,122.924,90.12c5.844,1.081,10.173,0.342,12.995-2.272
	c2.804-2.596,4.215-5.835,4.215-9.737c0-0.646-0.056-6.499-0.161-17.544c-0.113-11.024-0.161-20.668-0.161-28.891l-7.474,1.288
	c-4.765,0.871-10.77,1.251-18.026,1.138c-7.256-0.095-14.768-0.854-22.563-2.274c-7.795-1.401-15.051-4.641-21.768-9.737
	c-6.706-5.076-11.47-11.745-14.284-19.968l-3.249-7.483c-2.169-4.964-5.58-10.495-10.231-16.558
	c-4.66-6.063-9.368-10.173-14.123-12.333l-2.273-1.629c-1.525-1.08-2.927-2.388-4.225-3.903c-1.297-1.516-2.273-3.031-2.927-4.545
	c-0.644-1.517-0.104-2.749,1.629-3.733c1.733-0.966,4.869-1.459,9.416-1.459l6.498,0.967c4.329,0.87,9.681,3.467,16.075,7.806
	c6.384,4.338,11.632,9.965,15.752,16.879c4.973,8.885,10.988,15.648,18.026,20.309c7.028,4.661,14.123,6.972,21.265,6.972
	c7.151,0,13.318-0.529,18.519-1.629c5.19-1.079,10.068-2.689,14.616-4.868c1.941-14.494,7.246-25.652,15.913-33.438
	c-12.342-1.307-23.443-3.259-33.295-5.854c-9.851-2.596-20.024-6.82-30.529-12.655c-10.506-5.854-19.221-13.109-26.145-21.768
	c-6.924-8.657-12.608-20.024-17.051-34.101c-4.433-14.076-6.658-30.312-6.658-48.707c0-26.2,8.553-48.498,25.661-66.912
	c-8.014-19.703-7.256-41.773,2.273-66.251c6.28-1.951,15.591-0.492,27.934,4.377c12.333,4.888,21.379,9.056,27.11,12.503
	c5.741,3.467,10.344,6.403,13.811,8.771c20.129-5.626,40.921-8.43,62.348-8.43c21.425,0,42.228,2.804,62.347,8.43l12.352-7.786
	c8.45-5.191,18.415-9.965,29.896-14.303c11.462-4.32,20.233-5.513,26.296-3.563c9.737,24.478,10.608,46.548,2.595,66.251
	c17.106,18.414,25.67,40.712,25.67,66.912c0,18.396-2.234,34.688-6.668,48.878c-4.434,14.171-10.192,25.538-17.203,34.101
	c-7.047,8.544-15.818,15.743-26.333,21.597c-10.495,5.835-20.668,10.06-30.521,12.655c-9.85,2.595-20.934,4.547-33.285,5.854
	c11.253,9.738,16.899,25.121,16.899,46.112v68.523c0,3.902,1.346,7.142,4.054,9.737c2.691,2.614,6.972,3.354,12.826,2.272
	c50.222-16.67,91.199-46.698,122.933-90.12c31.713-43.402,47.569-92.28,47.569-146.633
	C529.422,240.848,518.264,199.113,495.966,160.901z"/>
</svg>
