<?xml version="1.0" encoding="utf-8"?>
<!-- Generator: Adobe Illustrator 15.0.2, SVG Export Plug-In . SVG Version: 6.00 Build 0)  -->
<!DOCTYPE svg PUBLIC "-//W3C//DTD SVG 1.1//EN" "http://www.w3.org/Graphics/SVG/1.1/DTD/svg11.dtd">
<svg version="1.1" id="Layer_1" xmlns="http://www.w3.org/2000/svg" xmlns:xlink="http://www.w3.org/1999/xlink" x="0px" y="0px"
	 width="560px" height="560px" viewBox="0 0 560 560" enable-background="new 0 0 560 560" xml:space="preserve">
<path d="M54.691,202.697v298.09h99.272v-298.09H54.691z M144.936,73.796c-10.027-9.722-23.363-14.582-40.007-14.582
	S74.8,64.074,64.474,73.796C54.139,83.517,48.979,95.8,48.979,110.645c0,14.635,5.01,26.883,15.038,36.69
	c10.028,9.827,23.259,14.74,39.709,14.74h0.605c16.845,0,30.427-4.913,40.753-14.74c10.326-9.808,15.389-22.056,15.195-36.69
	C160.079,95.8,154.964,83.517,144.936,73.796z M479.734,229.912c-20.863-22.759-48.43-34.146-82.717-34.146
	c-12.634,0-24.127,1.562-34.445,4.667c-10.335,3.106-19.056,7.476-26.18,13.091s-12.774,10.826-16.986,15.634
	c-4.211,4.826-8.317,10.44-12.336,16.846h0.615v-43.307h-98.975l0.298,14.441c0.193,9.616,0.299,39.306,0.299,89.035
	c0,49.728-0.202,114.6-0.597,194.613h98.975V334.44c0-10.229,1.088-18.335,3.298-24.354c4.212-10.229,10.564-18.811,19.092-25.724
	c8.528-6.913,19.109-10.371,31.742-10.371c17.249,0,29.918,5.967,38.061,17.898c8.106,11.932,12.177,28.409,12.177,49.483v159.414
	h98.966V329.931C511.021,286.011,500.598,252.671,479.734,229.912z"/>
</svg>
