<?xml version="1.0" encoding="utf-8"?>
<!-- Generator: Adobe Illustrator 15.0.2, SVG Export Plug-In . SVG Version: 6.00 Build 0)  -->
<!DOCTYPE svg PUBLIC "-//W3C//DTD SVG 1.1//EN" "http://www.w3.org/Graphics/SVG/1.1/DTD/svg11.dtd">
<svg version="1.1" id="Layer_1" xmlns="http://www.w3.org/2000/svg" xmlns:xlink="http://www.w3.org/1999/xlink" x="0px" y="0px"
	 width="560px" height="560px" viewBox="0 0 560 560" enable-background="new 0 0 560 560" xml:space="preserve">
<path d="M490.197,127.048c24.445-14.665,40.982-35.381,49.599-62.146c-22.343,13.26-46.215,22.345-71.597,27.233
	c-22.323-23.751-49.802-35.605-82.394-35.605c-31.184,0-57.785,10.979-79.784,32.978c-22,22.019-32.998,48.601-32.998,79.807
	c0,8.372,0.926,16.986,2.79,25.827c-46.096-2.322-89.339-13.913-129.721-34.729c-40.391-20.837-74.672-48.6-102.843-83.289
	c-10.235,17.456-15.358,36.44-15.358,56.912c0,19.33,4.542,37.254,13.617,53.773c9.084,16.54,21.294,29.923,36.663,40.167
	c-18.159-0.712-35.146-5.478-50.984-14.318v1.385c0,27.233,8.555,51.167,25.666,71.761c17.109,20.611,38.701,33.588,64.773,38.944
	c-9.777,2.566-19.667,3.83-29.678,3.83c-6.519,0-13.616-0.569-21.296-1.731c7.211,22.569,20.481,41.146,39.801,55.688
	c19.32,14.545,41.208,22.061,65.65,22.529c-40.972,32.123-87.649,48.173-140.027,48.173c-10.012,0-19.086-0.47-27.234-1.386
	c52.379,33.751,110.105,50.618,173.199,50.618c40.036,0,77.626-6.335,112.783-19.024c35.158-12.689,65.181-29.68,90.094-50.984
	c24.912-21.286,46.38-45.789,64.43-73.492c18.045-27.701,31.488-56.626,40.328-86.772c8.839-30.147,13.261-60.354,13.261-90.622
	c0-6.517-0.104-11.406-0.347-14.666c22.119-16.051,40.981-35.504,56.565-58.316C533.505,118.921,511.87,124.727,490.197,127.048
	L490.197,127.048z"/>
</svg>
