<?xml version="1.0" encoding="utf-8"?>
<!-- Generator: Adobe Illustrator 15.0.2, SVG Export Plug-In . SVG Version: 6.00 Build 0)  -->
<!DOCTYPE svg PUBLIC "-//W3C//DTD SVG 1.1//EN" "http://www.w3.org/Graphics/SVG/1.1/DTD/svg11.dtd">
<svg version="1.1" id="Layer_1" xmlns="http://www.w3.org/2000/svg" xmlns:xlink="http://www.w3.org/1999/xlink" x="0px" y="0px"
	 width="19.314px" height="10.781px" viewBox="-4.267 4.266 19.314 10.781" enable-background="new -4.267 4.266 19.314 10.781"
	 xml:space="preserve">
<path d="M6.189,11.586c-0.104,0.104-0.228,0.188-0.365,0.242c-0.005,0.003-0.011,0.004-0.016,0.006
	c-0.126,0.05-0.263,0.078-0.406,0.078c-0.143,0-0.279-0.028-0.404-0.078c-0.006-0.002-0.012-0.003-0.018-0.006
	c-0.137-0.056-0.261-0.139-0.364-0.241l-7.009-7.011c-0.214-0.202-0.486-0.31-0.763-0.31c-0.283,0-0.568,0.107-0.785,0.324
	c-0.435,0.435-0.435,1.138,0,1.571l8.556,8.56c0.104,0.104,0.229,0.186,0.365,0.242c0.005,0.003,0.011,0.003,0.017,0.006
	c0.125,0.049,0.262,0.078,0.404,0.078c0.144,0,0.28-0.028,0.406-0.078c0.005-0.003,0.011-0.003,0.016-0.006
	c0.139-0.057,0.263-0.14,0.365-0.243l8.534-8.533c0.434-0.435,0.434-1.138,0-1.57c-0.217-0.218-0.499-0.325-0.784-0.325
	c-0.276,0-0.555,0.105-0.77,0.313L6.189,11.586z"/>
</svg>
