<?xml version="1.0" encoding="utf-8"?>
<!-- Generator: Adobe Illustrator 15.0.2, SVG Export Plug-In . SVG Version: 6.00 Build 0)  -->
<!DOCTYPE svg PUBLIC "-//W3C//DTD SVG 1.1//EN" "http://www.w3.org/Graphics/SVG/1.1/DTD/svg11.dtd">
<svg version="1.1" xmlns="http://www.w3.org/2000/svg" xmlns:xlink="http://www.w3.org/1999/xlink" x="0px" y="0px"
	 width="10.779px" height="19.314px" viewBox="0 0 10.779 19.314" enable-background="new 0 0 10.779 19.314" xml:space="preserve">
<path d="M7.318,8.859C7.422,8.963,7.506,9.086,7.56,9.224C7.562,9.229,7.564,9.235,7.566,9.24c0.051,0.126,0.078,0.262,0.078,0.405
	s-0.027,0.28-0.078,0.405c-0.002,0.005-0.004,0.011-0.006,0.017c-0.055,0.137-0.139,0.261-0.241,0.364l-7.01,7.009
	C0.106,17.656,0,17.928,0,18.204c0,0.283,0.107,0.567,0.325,0.786c0.434,0.434,1.137,0.434,1.571,0l8.558-8.559
	c0.104-0.104,0.187-0.228,0.241-0.364c0.004-0.006,0.004-0.012,0.007-0.017c0.049-0.125,0.077-0.262,0.077-0.405
	s-0.028-0.279-0.077-0.405c-0.003-0.006-0.003-0.012-0.007-0.017c-0.056-0.138-0.14-0.262-0.242-0.365L1.919,0.325
	c-0.435-0.435-1.137-0.435-1.57,0C0.131,0.541,0.022,0.824,0.022,1.109c0,0.277,0.106,0.555,0.313,0.77L7.318,8.859z"/>
</svg>
