<?xml version="1.0" encoding="utf-8"?>
<!-- Generator: Adobe Illustrator 15.0.2, SVG Export Plug-In . SVG Version: 6.00 Build 0)  -->
<!DOCTYPE svg PUBLIC "-//W3C//DTD SVG 1.1//EN" "http://www.w3.org/Graphics/SVG/1.1/DTD/svg11.dtd">
<svg version="1.1" xmlns="http://www.w3.org/2000/svg" xmlns:xlink="http://www.w3.org/1999/xlink" x="0px" y="0px"
	 width="10.779px" height="19.314px" viewBox="0 0 10.779 19.314" enable-background="new 0 0 10.779 19.314" xml:space="preserve">
<path d="M3.462,10.456c-0.104-0.104-0.188-0.228-0.243-0.365c-0.002-0.005-0.003-0.011-0.005-0.016
	c-0.05-0.126-0.079-0.263-0.079-0.406s0.029-0.28,0.079-0.405c0.002-0.005,0.003-0.011,0.005-0.017
	c0.056-0.137,0.139-0.261,0.242-0.364l7.01-7.009c0.203-0.214,0.31-0.487,0.31-0.763c0-0.283-0.107-0.568-0.324-0.785
	c-0.435-0.435-1.138-0.435-1.572,0L0.326,8.882C0.222,8.986,0.14,9.11,0.084,9.247C0.081,9.252,0.081,9.258,0.078,9.263
	C0.029,9.388,0,9.525,0,9.668s0.028,0.28,0.078,0.406c0.003,0.005,0.003,0.011,0.006,0.016c0.056,0.138,0.139,0.262,0.243,0.365
	l8.533,8.534c0.435,0.434,1.138,0.434,1.57,0c0.218-0.217,0.326-0.499,0.326-0.784c0-0.277-0.106-0.555-0.313-0.77L3.462,10.456z"/>
</svg>
