<?xml version="1.0" encoding="utf-8"?>
<!-- Generator: Adobe Illustrator 15.0.2, SVG Export Plug-In . SVG Version: 6.00 Build 0)  -->
<!DOCTYPE svg PUBLIC "-//W3C//DTD SVG 1.1//EN" "http://www.w3.org/Graphics/SVG/1.1/DTD/svg11.dtd">
<svg version="1.1" id="Layer_1" xmlns="http://www.w3.org/2000/svg" xmlns:xlink="http://www.w3.org/1999/xlink" x="0px" y="0px"
	 width="41.677px" height="34.607px" viewBox="0 0 41.677 34.607" enable-background="new 0 0 41.677 34.607" xml:space="preserve">
<path d="M37.516,31.008L23.9,17.39L37.516,3.768c0.845-0.845,0.845-2.216,0-3.061c-0.842-0.845-2.216-0.845-3.056,0L20.839,14.326
	L7.214,0.704c-0.841-0.845-2.209-0.845-3.057,0c-0.843,0.844-0.843,2.216,0,3.063L17.774,17.39L4.157,31.008
	c-0.843,0.845-0.843,2.213,0,3.058c0.844,0.846,2.212,0.846,3.057,0l13.625-13.616L34.46,34.065c0.84,0.846,2.214,0.846,3.056,0
	C38.365,33.22,38.365,31.855,37.516,31.008z"/>
</svg>
