<?xml version="1.0" encoding="utf-8"?>
<!-- Generator: Adobe Illustrator 17.1.0, SVG Export Plug-In . SVG Version: 6.00 Build 0)  -->
<!DOCTYPE svg PUBLIC "-//W3C//DTD SVG 1.1//EN" "http://www.w3.org/Graphics/SVG/1.1/DTD/svg11.dtd">
<svg version="1.1" id="Layer_1" xmlns="http://www.w3.org/2000/svg" xmlns:xlink="http://www.w3.org/1999/xlink" x="0px" y="0px"
	 width="560px" height="560px" viewBox="0 0 560 560" enable-background="new 0 0 560 560" xml:space="preserve">
<path id="tray" d="M525,245c-19.3,0-35,15.8-35,35v210H70V280c0-19.3-15.8-35-35-35S0,260.8,0,280v245c0,19.3,15.8,35,35,35h490
	c19.3,0,35-15.8,35-35V280C560,260.8,544.3,245,525,245z"/>
<path id="arrow" d="M314,245V31.5C314,14,298.3,0,279,0s-35,14-35,31.5V245H139l140,140l140-140H314z"/>
</svg>
