<?xml version="1.0" encoding="utf-8"?>
<!-- Generator: Adobe Illustrator 17.1.0, SVG Export Plug-In . SVG Version: 6.00 Build 0)  -->
<!DOCTYPE svg PUBLIC "-//W3C//DTD SVG 1.1//EN" "http://www.w3.org/Graphics/SVG/1.1/DTD/svg11.dtd">
<svg version="1.1" xmlns="http://www.w3.org/2000/svg" xmlns:xlink="http://www.w3.org/1999/xlink" x="0px" y="0px" width="721.9px"
	 height="580.5px" viewBox="12.1 -19 721.9 580.5" enable-background="new 12.1 -19 721.9 580.5" xml:space="preserve">

	 <defs>
	 	<clipPath id="signature-left-clip">
		<path d="M249.2,316.9c2.3,3.4-4.1,7.6-5.7,10.7c-0.5,0.9-0.6,5.1-2.6,4.8c-1.1,2.5-2.6,4.7-3.7,7.2
			c-2.8,6.4-4.8,13.4-8.4,19.5c-2.5,4.1-4.2,8.9-6.1,13.3c-1,2.3-2,4.6-3,6.9c-1.1,2.9-1.4,6-2.7,8.8c-1.4,3-2.4,5.8-3.2,9
			c-0.4,1.5-0.6,4.4-1.5,5.7c-0.9,1.3-0.3,1.3-0.5,2.8c-0.3,0.2-0.6,0.4-0.9,0.6c-0.6,0.3-0.8,0.9-0.6,1.8
			c-1.9,7.4-4.1,14.7-5.4,22.3c-0.3,2-0.7,4.1-1,6.1c-0.1,0.4-0.7,2.5,0.1,2.7c0.5,1,0.5,2.3,0.4,3.4c-0.2,2.1,0.1,2.9,1,4.8
			c1.9,4.1,2.1,8.6,1.3,13.1c-0.2,5.6,6.9,6.9,11.3,6.2c3.6-0.3,9.8,0.9,12.8-1.3c2.3-1.6,4.6-3.3,6.9-4.9c2.9-2,4.4-4.1,6.6-6.6
			c0.8-0.9,1.8-1.4,2.5-2.4c1-1.4,1.1-1,2.8-0.7c0.1-0.8-0.3-1.4-0.2-2.2c1.2,0.2,1.3-1.3,2.2-0.2c0.9-1.2,1.1-2.6,1.8-3.7
			c0.9-1.2,2.1-1.5,2-3.1c-1.2,0.9-2.4,1.7-3.7,2.6c1-1.9,2.1-6.6,4.8-6.1c-1.3-1.7-1.2-3.8,1.6-2.9c-0.4,0.6-2.1,2.8-2.2,3.4
			c2.4,1.8,2.7-2.5,3.7-3.9s2.2-2.4,2.5-4.1c0.2-1.3,0.8-1.3,1.7-2.4c0.9-1.2,1.5-2.9,2-4.3c0.8-2.2,2.3-5.8,4.6-6.8
			c-2.2-1.6-4.7-1.2-7.1-2.3c1.1-0.2,6.2,0.7,6.7-0.6c0.5-1.4-3.6-0.8-4.6-2.2c0.4-2.5,2.7,0.2,3.6,0.6c1.5,0.7,4.9-3.1,5.1-4.5
			c-0.6-2,1.5-3.3,1.9-5c0.2-0.7,0-1.4,0.1-2.1c0.2-1,1.1-1.5,1.2-2.5c2.7-3.7,2.8-9,4.6-13.4c0.9-2.3,2.7-4.3,3.1-6.7
			c0.9-2.4,1.6-4.8,2.4-7.2c0.3-0.9,0.6-2.4,1.2-3.2c0.5-0.6,1.2-0.9,1.6-1.8c0.6-1.5,0.3-3.6,0.6-5.3c0.1-0.8,1-1.4,1.3-2.2
			c0.4-1,0.5-2.1,0.9-3.1c0.5-1.3,0.7-2.5,1-3.9c0.1-0.8,1.9-1.9,2.7-3c1.3-2.5,2.6-5.4,3.5-8.1c1-3.1,3.2-5.4,4.4-8.5
			c1-2.6,1.8-5.2,3.1-7.6c2.1-3.9,2.3-8,4-12c1.7-4,5.7-7.9,9.2-10.6c3-2.3,0.7-5.1,2.6-8c1.4-2.1,2.3-4.4,3.1-6.7
			c0.7-2.2,1.2-5.9,3.2-7.3c2-1.5,2.8-1.9,3.4-4.4c0.7-2.6,1.4-5.3,2.1-7.9c0.7-2.6,3.7-10.8,2.1-13.3c-1.4-1.9,2.1-7.8,3.1-9.7
			c0.7-1.2,1.2-2.5,1.8-3.7c0.9-1.9,3.2-4.2,3.5-6.2c0.7-1.8,1.2-3.8,1.9-5.6c0.7-1.9,3-4.3,2.7-6.4c-0.7-3.7,3.7-6.8,5-10.1
			c0.3-0.5,0.2-1-0.1-1.6c0-1.4,1-2.5,1.6-3.6c1.1-2.1,1.7-4.4,2.5-6.6c0.1-0.4,2-4.2,1.5-4.3c0.6,0.1,1.4-3.3,1.7-3.7
			c1.1-1.7,2.1-3.5,3.1-5.3c0.4-0.7,1.3-1.8,1.4-2.6c0.1-0.6,0.7-0.1,1.1-0.8c2-3.7,2.8-7.6,4.7-11.3c0.7-1.3,0.7-2.7,1.2-4.1
			c1.9-1.3,0.8-3.7,1.6-5.6c0.9-2.1,2-1.7,1.8-4.4c-0.3-2.9,0.5-5.8,1.5-8.5c1.1-2.9,2.7-5.6,3.5-8.6c0.5-2,1.2-3.9,1.6-6
			c0.5-0.8,3.1-2.7,3.2-3.2c1.2-3.2,3-7.2,2.5-10.7c-0.2-1.4,0.1-3-0.5-4.2c-0.9-2.2-3.5-2-4.7-3.8c-3.2-0.6-4.3-10.1-4.5-12.8
			c-0.1-1.8-0.1-4.3,0.2-6.1c-1.4-1.9-4.2-2.8-6.3-3.8c1.5,4.9-2.6,2.4-1-0.7c2.2-2.5-0.7-2.8-2.7-3.1c1.1-1.5,1.1-3.4,1.9-5
			c-0.5,0.4-2.8,0.9-3,1.6c0.1,0.4,0,0.7-0.3,1c-1.5,1.4-0.9,0-1.3,1.9c-1.1,0.5-2.2,0.3-3.1-0.5c1.2-1.2,2.2-2.6,3.2-4
			c1.3-1.7-0.1-1.6,0.7-3.4c1,0.1,1.5,0.5,2.3,1.1c1.2,0.9,2.8-0.4,4-1.1c1.6-0.9,1.2-3.2,2.9-3.7c0.4-0.4,1.9-1.5,2.8-1.5
			c6-0.5-1.9-4.4-4.3-4.8c-0.9-0.1-1.9-0.1-2.8,0.2c-0.3-0.4-1.2-1.9-2.1-1.5c-1.2,0.6-4.6,4.1-5.8,3.8c0.4-2.5,3.4-2.7,2.5-5.5
			c-2.4,0.7-4.5,2.4-6.1,4.3c-1.7,1.2-2.2,1.1-3.4,2.9c-2.5,3.9-4.3,8.4-6,12.7c-4.3,10.5-8.7,21.1-13,31.7
			c-4.1,10.1-7.4,20.5-11.1,30.7c-1.6,4.4-4,9-5.2,13.5c-0.6,2.3-2.7,3.3-3.4,5.6c-0.6,2-0.3,4.2-1.3,6.1c-0.5,1-1.3,1.8-2.2,2.4
			c0.5,0.8,0.8,1.7,0.6,2.7c-0.4,2.2-2.7,3.4-3.1,5.5c-0.5,1.3-0.5,2.4-1.1,3.7c-0.6,1.3-0.9,2.7-1.8,3.8c-0.7,1.4-0.3,3.2-1.3,4.4
			c-0.9,1.1-0.2,1.1-0.6,2.5c-0.4,1.2-1.2,1.9-2,2.8c-0.7,0.9-1.1,2.7-1.5,3.8c-0.8,2.3-0.8,4.4-2.9,5.9c-1.4,1-2.4,2.8-3.4,4.1
			c-0.9,1.2,0.3-0.3,0,1.4c0.1,0.3,0.3,0.6,0.4,0.9c-0.5,0.7-0.9,1.4-1.1,2.2c-0.3,1.7,0.5,3.4-0.2,5.2c-0.9,2.4-1.9,4.9-2.8,7.3
			c-0.5,1.3-2,1.8-2.5,3.3c-0.7,1.9,0.3,2.7-1.6,4.2c-1.7,1.4-0.5,3.7-2.4,5.4c-0.7,1.6-0.9,2.7-1.9,4.3c-0.9,1.3-1.7,2.8-2,4.4
			c-0.1,0.8-0.2,1.6-0.2,2.4c-0.5,0.3-0.9,0.8-1.1,1.4c-0.9,3-0.4,6.7-2.8,9.1c-1.1,1.1-2.1,1.5-2.8,2.9c-0.6,1.1-0.9,2.1-1.4,3.3
			c-0.6,1.3-0.3,2.9-0.9,4.1c-0.6,0.5-0.9,1.1-0.9,1.9c-0.2,1.2,0.6,2.6,0.2,3.6c-0.4,1.2-2.5,1.1-2.7,2.6c-0.3,1.6-3.1,2-4.2,2.6
			c-2.8,1.5-5,3-7.5,5.1c-1.9,1.6-2.7,2.4-3.3,4.8c-0.5,2.4-1.3,2.7-2.8,0.5c1-0.7,4.3-3.3,5.7-2.1c1.3,1.2-0.2,4.3-0.7,5.5
			C257.5,306.8,253.7,312.6,249.2,316.9C249.4,317.1,256.7,309.8,249.2,316.9z M375.2,158.8c-2,1.3-0.6-2.7,0.5-1.3
			C375.7,158.1,375.6,158.5,375.2,158.8z M372.2,163.7c0.3,0.2,0.6,0.5,1,0.7c-0.3,0.3-0.8,0.7-1.2,0.9
			C372,164.7,372,164.1,372.2,163.7z M209.3,441.5c0.1-0.8,0.5-1.1,1.2-0.9C208.5,442.1,210.6,441.3,209.3,441.5z M212.6,444.2
			c-0.3-0.1-0.7-0.1-1-0.2C212,443.3,212.4,443.4,212.6,444.2z M214.7,444.6c-0.8-1.1-1.2-2.2-1.5-3.5c0.7,0.1,1.4-0.3,2.2-0.2
			C215.1,442.1,214.9,443.4,214.7,444.6z M228.5,407.8c0.9,0.2,1.8,0.4,2.5,1c-0.9-0.1-1.7-0.3-2.6-0.4
			C228.4,408.2,228.5,408,228.5,407.8z M216.9,447.6c-0.3-0.9-0.2-6.5,1.8-4.5c0.6,0.6-0.9,5.2-1.5,5.6
			C217.1,448.4,216.9,448,216.9,447.6z M218.3,451.6c0.3,0.1,0.7,0.1,1,0.2C217,453.4,218.6,452,218.3,451.6z M220,457.3
			c-0.8,0.2-1.5,0.6-2.3,1.2C217.9,457.1,218.8,456.7,220,457.3z M222.2,443.2c0.2,0.4,0.4,0.8,0.6,1.2c-0.6-0.5-1.3-0.9-1.9-1.4
			C221.4,442.7,221.8,442.7,222.2,443.2C222.3,443.5,222.1,442.8,222.2,443.2z M223.4,449.8c-0.1,0.7-0.1,1.5,0.2,2.2
			c-1.5-0.9-1.9-2.4-0.9-3.9C223.3,448.5,223.5,449.1,223.4,449.8C223.3,450.5,223.6,449.1,223.4,449.8z M234.4,392.2
			c-1.1,0.2-2,0.2-2.7,0.1C232.5,391.2,233.5,391,234.4,392.2z M232.6,409.1c-0.2,0-0.3-0.1-0.5-0.1c1.2-0.9,2.6-1.1,3.1,0.5
			C234.3,409.4,233.4,409.2,232.6,409.1z M248.8,383.5c0.1-0.7,0.4-1.4,0.9-2c0.7,0.5,1.6,0.8,2.5,1
			C251.7,385.3,250.7,383.8,248.8,383.5z M258.1,357.2c-0.5-0.1-0.6-1.2-0.2-1.4C258.3,355.5,258.1,357,258.1,357.2z M335.9,209.9
			c-0.2-0.8-0.5-1.5-0.7-2.3c0.9,0.1,1.7,0.3,2.6,0.4C337.6,209.1,336.9,209.8,335.9,209.9z M331.6,234.9c-0.1,0.7-0.4,1.4-0.9,2
			c0.2-1.2-0.7-2,1-2.5C331.6,234.5,331.6,234.7,331.6,234.9z M337.7,219.3c0.3,1.1-0.1,1.2,0.6,2.1c0.6,0.8,0.6,2,0.4,2.9
			c-2-0.3-2.6,0-3-2.2c-0.2-1.3-0.4-2.6-0.8-3.8c0.9-0.3,1.9-0.3,2.8-0.6C337.6,218.3,337.6,218.8,337.7,219.3
			C337.8,219.7,337.6,219,337.7,219.3z M341.1,210.8c-0.1,0.7-0.9,1.3-2.4,1.7C338.9,211.2,339.8,210.6,341.1,210.8z M339.2,226.3
			c0.3,0.4,0.7,0.7,1.2,1c-1.2,1.2-5.8-0.4-6.7-1.7c1.4-1,1.6,0.3,2.8,0.5C337.9,226.3,337.9,224.6,339.2,226.3
			C339.4,226.5,339.1,226.1,339.2,226.3z M341.6,218.9c0.3,1.1-3.2-1.6,0.4-1C341.8,218.3,341.7,218.6,341.6,218.9
			C341.7,219.3,341.4,218.6,341.6,218.9z M344.2,214.6c-1.7,2.8-3.3-0.8-1.2-2.3C343.2,213.1,343.6,213.8,344.2,214.6z M336,237.2
			c0.1,0.2,0.3,0.4,0.4,0.6c-1,0.7-2.1,1.4-2.7,2.5c-0.8,1.4-0.4,3.4-2.5,3C332.4,241.7,333,236.7,336,237.2z M336.6,233.9
			c0.7,0.3,1.3,0.1,1.7-0.5c-0.3,1.7-2.1,1.8-3.5,1.5C335.1,234.3,335.7,233.5,336.6,233.9C337.2,234.2,335.9,233.6,336.6,233.9z
			 M336.8,240.1c1.4,0.2,1.3-2,2.3-2.3c-0.4,2.5-0.3,2.6-2.7,3.3C336.1,240.4,336.2,240.1,336.8,240.1
			C337.4,240.2,336.3,240,336.8,240.1z M336.2,242.1c-0.1,0.3-0.1,0.7-0.2,1C335.4,242.7,335.4,242.3,336.2,242.1z M333.5,260.9
			c0.7,0.1,1.4,0.2,2.1,0.4c-0.1,0.8-0.8,1.3-0.9,2c-0.7-0.5-1.3-1.2-1.8-1.9C333.1,261.2,333.3,261.1,333.5,260.9z M338.9,236.1
			c0.5-1.3,0.9-0.4,1.6-0.3C340,235.8,339.5,236.2,338.9,236.1z M342.2,224.7c-2.6-2.2-0.2-3.2,1.2-5.4c0.4,0.6,0.9,1.2,1.3,1.8
			c-1-0.2-1.7,0.3-1.7,1.4c0.1,2.4,2,1.3,3.3,1.5c0.2,2.7-2.3,2-3.8,3.6C342.9,226.7,343.1,225.4,342.2,224.7
			C341.4,224,342.9,225.3,342.2,224.7z M346.6,219.3c0.4,0.2,0.5,0.6,0.3,1.1c-1-0.2-1.5-0.8-1.3-1.8
			C345.9,218.8,346.3,219,346.6,219.3z M348.5,214.2c-0.9,0.6-1.8,0.8-2.8,0.6c0.7-1,1.7-2.1,3-1.6
			C348.6,213.5,348.6,213.9,348.5,214.2z M356.2,200.6c-1.1-0.2-3,3-3.8,3.6c-0.4-0.5-0.7-1-1.1-1.5c-0.7-1-2.7,0.1-2.5,1.3
			c0.3,2,4,1.3,4.7-0.1c0.7,1,0.7,2.2,0.5,3.3c-0.9-0.2-1.6-0.8-2.5-1c-1,1.2-2.4,2.1-4,1.5c-0.1,1,1.1,1.4,1.8,1.9
			c-0.6,0.3-1.2,0.5-1.7,0.8c-0.1,0.6-0.3,1.1-0.8,1.5c-1.1-1.5-0.8-4-3.4-2.2c-2.1,1.5-4.4,0.4-3.4-2.2c0.8,2.5,3.8-0.4,5-1.3
			c0.3,0.9,1.8,3.1,2.4,1.5c-0.4-0.5-0.7-1.8-1.4-2c-1.1-0.4-2,0.1-1.7-1.7c1.3-0.2,2.3,0.6,2.9,1.6c0.1-0.8-0.8-1.8-0.7-2.3
			c-0.2-1.1,0.4-1.9,0-3.2c2.4,0.4,2.8-2.5,4.4-3.5c1.2,1.7,2.7,1,4.6,1.3C357.6,198.1,358.3,199.1,356.2,200.6z M341.3,203.3
			c0.6,0.8,0.5,1.3-0.3,1.6L341.3,203.3z M351.4,191.2c-0.2,1-0.1,2.7,0.8,3.1c0.2,0.1,2.5,1.2,1.6,1c-2-0.4-4.1-0.7-6.1-1.1
			c0.2-1.1,1-2.1,1.6-2.9C349.9,190.9,350.4,191.8,351.4,191.2z M351.7,186.4c-1.4-0.2-1.7-0.8-0.8-1.7
			C351.4,185.2,351.6,185.7,351.7,186.4z M346.3,198.9c0.1-0.3,0.1-0.7,0.2-1C348.1,200.2,346.7,198.6,346.3,198.9z M349.9,178.1
			c0.8,0.9,0.4,1.3-0.8,1.5C349.6,179.1,349.8,178.7,349.9,178.1z M355.8,193.5c-0.5-0.4-4.4-1.9-2.4-2.8c1.2-0.5,1.1,0.9,2.4-0.2
			c0.7-0.6,1.3-0.7,1.9-1.5c0.8,0.1-0.6,3.3-0.6,3.9c-0.1,2,0.8,2.6,2.7,2.9C358.1,196.5,354.7,195.8,355.8,193.5z M358.2,192.3
			c0.2-0.8,1.6-0.9,2.2-0.2c-0.5,0.6-0.9,1.3-1.4,1.9C358.8,193.4,358.5,192.9,358.2,192.3z M367.4,178.9c-0.9-0.9-1-1.6-0.2-2.2
			C367.8,177.4,367.9,178.2,367.4,178.9z M379.3,100.6c-0.2,0.1-0.4,0.3-0.6,0.4c-1.1-1.6-1.4-3,0.6-3.6
			C379.1,98.4,379,99.6,379.3,100.6z M366,171.7c-0.5-0.7-2.4-1.5-1.6-2.6C365.3,167.9,366.1,171.4,366,171.7z M363.1,176
			c0.1-0.7,0.4-1.4,1.2-0.9C363.9,175.4,363.5,175.8,363.1,176z M364,178.6c2.4-1.7,2.8,2.6,1.6,3c-0.8,0.3-2-0.3-2.6-0.7
			c-1.5-0.9-1.2-1.9-0.2-3.3C363.1,178.2,363.5,178.5,364,178.6z M365.4,150.2c1.1,1.6,1.5,1.5,0.4,3.1c-1.5,2.1-2.2-2.1-1.9-3.3
			C364.4,149.4,365.6,148.9,365.4,150.2z M364.9,159.2c-0.6,3.6-4.1,0.4-5.9,0.1c0.8-0.5,1.6-0.7,2.3-1.2
			C362.2,159.3,363.5,159.6,364.9,159.2z M356.3,159.3c0.8,0.6,1.4,2.9-0.4,2.6c-0.3-0.1-1.1-1.5-1.3-1.8
			C355.1,160.2,356,159.3,356.3,159.3z M350.6,164.8c0.6-0.4,1.2-0.9,1.8-1.3c0.2,1.3-0.9,2-2,2.3c1,2.3,2.4,0.4,4.2,0.7
			c1-0.8-0.1-3.2,1.1-3.6c-0.4,1,0.3,1.6,0.1,2.4c-0.3,1.6,1.9-0.2,2.6,0.7c0-1.1,0.1-0.6-0.3-1.1c0.1-0.7,0.4-5.4,1.6-4.8
			c0.1,0.1-0.2,1.4,0,1.8c0.9,0.2,1.6,0.8,2.5,1c-1.8,1.3-1.1,2.2,0.5,3.3c-0.6,0.3-1.2,0.5-1.7,0.8c-0.1,0.7,1.6,1,1,1.8
			c-0.7,0.9,0.4,1.7,0.6,2.5c0.3,1.1-0.9,1.2-1.1,2.1c-0.2,1.2,0,1,0.1,2.2c0.1,0.9-0.8,1.1-0.7,1.8c0.1,0.7,0.2,1.5,0.3,2.2
			c0.4,2.3,2,4.1,3,6.2c-0.8-0.1-2.4-0.8-3.1-0.5c-1.2,0.8-1.4,2.5-2.7,1.1c-0.8-0.8-1-1.2-2.2-0.4c1,0.2,2.2,1.1,2.3,2
			c-1.4-0.8-2.5-0.3-3.9,0.1c-1.7,0.5-1.6,0-3.1-0.2c2.3-0.2,3-2.2,1.8-4c1.1-0.3,5.7-2.3,5.9-3.3c-2-0.3-3.6,0.2-5,1.3
			c-0.1-0.5-0.2-1.1-0.3-1.6c0.7-0.5,0.9-1.2,0.7-2c-0.2-2.1-1.8-2.8-2.9-4.3c1.3-0.2,2.5,0.4,3.6,1.1c1.1-0.3,2.2-0.2,3.3-0.5
			c-0.4-0.6-2.4-2-0.6-2.5c1.1-0.3-0.4-2.7-0.9-2.3c-0.3,0.1-0.6,0-0.7-0.4c-0.5,0.4-1,0.7-1.5,1.1c-0.5,0.3-2.5-1.6-2.6-1.8
			c0.4,1.3,0.5,2.6,0.9,3.9c-3-1.3-3.7-4.9-4.6-7.7C349.2,165.2,349.9,165.1,350.6,164.8L350.6,164.8L350.6,164.8L350.6,164.8z
			 M364.2,76.1c-0.7-0.1-0.9-0.7-1.5-0.8C363.8,74.6,364.2,74.8,364.2,76.1z M340.4,198.9c1,0.2,2.1,0.4,3.1,0.5
			c-1.7,1.8-2.3,3.6-5,3.6c-1.6,0-2.7-1.9-3.7-2.9c0.8-0.6,1.6-1.1,2.4-1.7c0.2,1.3,0.5,2.6,0.9,3.9
			C339.6,201.6,340.5,200.5,340.4,198.9z M318.9,274.5c0.1,0.4,0.2,0.8,0.3,1.1c-0.6-0.3-1.1,0.5-0.9-1.2
			C318.5,274.4,318.7,274.4,318.9,274.5z M313.4,277c-1.4-0.5-2.9-0.8-4.4-1c2.7,0.5,6.4-0.3,8.8,1.5
			C316.3,277.6,314.8,277.5,313.4,277C312.2,276.6,314.5,277.4,313.4,277z M318.7,269.1c0.3-1.6-3-1.4-0.9-3.2
			c2-1.7,1.5-0.3,2.8,0.7c1,0.9,2.7,0.6,1.9,2.7C322,270.7,318.4,271.1,318.7,269.1C318.8,268.8,318.7,269.4,318.7,269.1z
			 M324.4,255.1c-0.2-0.8,0.1-1.4,0.9-2C325.9,254,325.2,254.7,324.4,255.1z M327.5,233.6c-0.8-0.1-1.2-2.2-1.1-2.9
			c0.8,0.1,3,1.1,3.3,1.9C330.4,235.1,328.2,233.8,327.5,233.6z M332.7,209.4c0.6,0.8,0.5,1.5-0.4,2.1L332.7,209.4z M336.6,180.6
			c1.1-0.3,2.2-0.2,3.3-0.5C339,181,337.8,181.1,336.6,180.6z M336.2,185.9c-0.2,0-0.3-0.1-0.5-0.1c0.4-0.3,0.8-0.7,1.2-0.9
			C336.7,185.2,336.5,185.6,336.2,185.9z M329.6,221.7c-0.9,0.6-1.2,2.1-0.5,3.1c-1.6,0.5-3.2,0.1-4.5,1.4c1,1.2,1.8,2.4,2,4.1
			c-1.4-1.5-3.4-5-2.6-6.9c2.2,1.4,3.7,0.5,4.1-2C328.5,221.5,329,221.6,329.6,221.7z M322.6,243.5c-0.9,0.3-1.9,0.3-2.8,0.6
			c0.2-1.2,0.7-2.6,2.1-2.9C322.1,242,322.4,242.8,322.6,243.5z M321.8,238.6c-0.6-0.6-1.3-1.8,0.3-1.6
			C322,237.5,322.1,238.1,321.8,238.6z M329.3,213.6c-0.2,1-0.8,1.5-1.8,1.3C327.7,213.7,328.2,212.2,329.3,213.6z M324.1,215.9
			c1.2-0.5,1.8,1,2.9,0.5c2.3-1,0.1,2.9-0.3,3.2c1.2,0.4,1.4,1.9-0.3,1.6c0.9-2.2-0.7-3.1-2.8-2.6
			C323.8,217.7,324,216.8,324.1,215.9z M316.4,229.6c0.4-0.5,0.9-0.9,1.3-1.4c0.7,1,0.3,1.1,1.3,1.8
			C318.2,229.9,317.3,229.8,316.4,229.6z M319.6,214.1c0.3,0.5,0.4,1.1,0.3,1.6c-0.9-0.2-0.9-0.9-0.8-1.7
			C319.3,214,319.4,214.1,319.6,214.1z M316,233.5c1.5-1.1,2.4-0.9,4.1-0.6c-0.6,0.8-1.4,1.5-2,2.3c0.8,0.1,1.3,0.8,2,0.9
			c-0.2,1.4-3,1.1-3.9,0.9c-0.9,0.6-2.9,1.7-3.9,0.9c0.6-0.8,0.7-1.7,1.1-2.6C314,234.2,315,234.3,316,233.5
			C316.6,233.1,315.4,234,316,233.5z M314.5,243.7c-0.2,1,0.1,2.2-1,2c-1.2-0.2-2.3-0.4-3.5-0.6
			C310.5,242.4,312.8,243.4,314.5,243.7z M312.2,249.5c-0.3,0.6-0.7,1.1-1.1,1.7c-0.7-0.5-0.8-1.4-0.9-2.2c-0.3-2.1,1.6-1.5,3.1-1.2
			C312.9,248.3,312.5,248.9,312.2,249.5C311.9,250,312.5,249,312.2,249.5z M309.9,239.5c-0.1,0.3,0.7,0.3,0.4,0.9
			c-0.4-0.5-0.9-0.7-1.5-0.8C308.9,239.5,310.1,238.6,309.9,239.5z M308.8,247.3c0.3,0.7,0.1,1.3-0.6,1.8c-0.7-0.9-0.3-1.9,0.4-2.6
			C308.7,246.8,308.8,247,308.8,247.3C309,247.5,308.7,247.1,308.8,247.3z M310.1,253.7c3.5,0.6,4-2.4,6.6-4.2c1-1.4-1.3-3.7,0-4.6
			c0.9-0.6-0.4-3.1,1-4.4c0.7,2.3,0.2,5.1-0.2,7.5c1.3-0.4,4.7-0.6,1.9,1.4c0.4,0.3,0.8,0.3,1.2,0c1.3-0.6,1.8-0.8,3.1-0.1
			c1.7,0.9,1.7,2.2-0.6,1.8c-0.6-0.1-2.1,1-2.9,1.2c-2.3,0.7,1,2.2,2,2.3c-0.3,0.5-0.5,1-0.8,1.5c-0.9-0.7-1.8-1.3-2.7-2
			c-0.4-0.3-1.2,1.6-1.6,1.8c-0.2,0.1-1.2-0.2-1.4-0.2c-0.5-0.1-3.2-0.9-3.4,0.2c-0.4,2.3-3.4,2.9-2.7,5.6c0.8,3.1,2.5-0.5,2.7-1.8
			c0.4-2.6,0.7-0.3,2.3-1.5c1.2,1.7-0.1,3.2,0.8,4.8c2.8,5-3.6,5.3-4.3,9.6c-0.7-0.5-2-0.8-2.4-1.5c-0.7,1-1.4,1.9-2.1,2.9
			c-1-1.4-2.1-3.6-3.2-4.5c-1.3-1.1-0.5-4.7,1.5-4.4c1-2.6,0.5-5,0.1-7.6c-0.3-1.9-0.5-6.7,3-4.2
			C308.8,253.5,309.4,253.6,310.1,253.7z M305,249.6c0.1,0.4,0.2,0.8,0.3,1.1c-1.1-0.6,0.6,0.9-0.9-1.2
			C304.6,249.5,304.8,249.6,305,249.6z M301,269.8c1,1.4-0.4,2.4-0.6,3.6c1.1,0.6,1.3,0,2.1-0.4c0.6-0.3,1.6,1.7,1.9,2.1
			c-3.8,1.2-5.6,0.8-8.8-1.5c1.4-1,1.7-8,4.9-6.7C300.9,267.8,301.1,268.8,301,269.8z M297.8,258.5c0.1,0.4,1.4,0.4,1.9,1.1
			c0.3,0.4,0.3,1.5-0.1,1.9c-1.7,0.5-3.3,0.5-3.5-1.4C296.1,259.2,297.1,256.3,297.8,258.5C297.9,258.9,297.7,258.2,297.8,258.5z
			 M288.4,296c0.5-0.6,1.2-1,2.3-1.2C290.3,295.4,289.3,296.7,288.4,296z M286.1,312.8c-0.3,0.7-0.1,1-1.2,0.9
			C285.3,313.3,285.6,313,286.1,312.8z M283.4,321.9c-0.4-0.3-0.6-0.8-0.9-1.2c0.7-0.2,1.5-0.4,2.3-0.7c1.5,0.3,0.7-1.5,2.3-1.2
			c1.2,0.2-0.3,2-0.4,2.1C285.7,321.3,284.6,321.6,283.4,321.9z M271.2,377.7c-1,0.3-1.9,0.8-2.9,1.1c1.5,0.7,1.2,2.1,0.5,3.3
			c-1.8-0.3-3.5-0.1-5.3-0.4c0.7-1,0.9-2.4,1.1-3.6c3.4,2.5,4-2.8,6.1-4.3c-0.4,2.2,1.8,1.9,3.4,2.2c0,0.4-0.1,0.8-0.4,1
			c-0.8-0.1,0,1.5,0,1.6C272.8,378.5,271.9,378.2,271.2,377.7z M266,390.5c0.3,0,0.5-0.1,0.8-0.1c-0.4,0.6-1.4,1.7-1.6,0.3
			C265.5,390.5,265.8,390.5,266,390.5C266.2,390.3,265.8,390.6,266,390.5z M266.2,394c-0.6,0.4-1.2,0.9-1.8,1.3
			c0.2-0.9,0.8-1.7,1-2.5C266,392.6,266.6,394,266.2,394z M263.7,390.3C264,393.9,260.7,389.9,263.7,390.3L263.7,390.3z
			 M262.4,388.5c0.7-0.4,0.7-0.9,1.6,0.3c-0.4,0.1-0.8,0.3-1.1,0.3C262.6,388.9,262.5,388.7,262.4,388.5z M275.6,373.6
			c-1.7-0.3-2-0.9-0.8-1.7C274.9,372.5,275.2,373.1,275.6,373.6z M286.1,303.1c-0.1,0.7-0.2,1.4-0.4,2.1c-0.3-0.3-0.7-0.8-0.9-1.2
			C285.3,303.7,285.7,303.3,286.1,303.1z M283.5,305.9c0.3,0.5,0.4,1.1,0.3,1.7c-0.3-0.1-0.7-0.1-1-0.2
			C282.6,306.5,282.8,305.8,283.5,305.9z M280.6,322.5c0.6,0.5,1.3,0.9,1.9,1.4c-0.9,0.3-1.9,0.3-2.8,0.6c1.9,0.6,1.3,1.6,1,3.4
			c-1-1.4-2-2.8-3-4.3c0.8-0.2,1.5-0.5,2.3-0.7c-0.7-1-2.1-0.8-3.1-0.5c-0.1-0.7-0.1-1.4-0.2-2.2c1.6,0.3,3,1.1,4.6,1.3l0,0
			C281.1,321.9,280.9,322.2,280.6,322.5z M269.2,359.7c-0.3,0.1-0.6,0.3-0.9,0.4c0.1-0.6,0-1.1-0.3-1.7c0.8,0.1,1.4,0.3,2,0.9
			C269.8,359.4,269.5,359.5,269.2,359.7C269,359.6,269.4,359.7,269.2,359.7z M266.5,370.5c-0.6-0.5-1.3-0.9-1.9-1.4
			c0.8-0.1,2.2-0.1,2.5,1C266.9,370.2,266.7,370.3,266.5,370.5z M257.5,366.8c1.4-0.6,3.5,1.2,1.5,2.2
			C256.8,370,257.3,368,257.5,366.8z M253.5,396.6c-0.8,0.2-1.2-0.2-1.4-1.3C252.6,395.7,253.1,396.1,253.5,396.6z M255.2,389.4
			c-0.2,1-0.8,1.3-1.7,0.8C254,389.7,254.6,389.5,255.2,389.4z M258.9,375.8c2.1-0.3-1.1-2.4-1.4-2.7c1.9-1.3,3.3-3.4,5.6-1.7
			c-0.6,0.8-1.5,1.9-2.5,2.2c0.6,0.8,1.6,1.5,2.3,2c-0.8,0.3-1.6,0.7-2.3,1.2c1.3,0.9,2.5,0,3.8-0.4c-0.1,0.7-0.2,1.4-0.4,2.1
			c-2.2-1-4.9,0.1-6.7-1.7C257.8,376.4,258.3,376,258.9,375.8C259.5,375.8,258.4,375.9,258.9,375.8z M262,380.9
			c-0.4,0.3-0.9,0.2-1.6-0.3L262,380.9z M251.5,420.4c0.9,0.9,0.8,1.6-0.4,2.1L251.5,420.4z M252.5,414.6c0.9,0.3,1.2,1.1,1.8,1.9
			C252.9,417.4,252.3,415.9,252.5,414.6z M260.2,413.8c-2.4-0.4-2.3,0.4-3.6,2.1c-0.8-0.6-0.1-1.6,0.4-2.1c-1.3-0.7-2.7-1-4.1-1.2
			C255.4,411.8,258,412.5,260.2,413.8z M260,399.3c-0.6,3.4-1.3,1.4-1-0.7C259.1,399.1,259.4,399.3,260,399.3z M261,399.5
			c1.1-0.7,2.3,0.2,0.9,1.2C261.6,400.3,261.2,399.9,261,399.5z M256.8,420.7c-0.6,0.8-1.2,1.8-2,2.3c-0.3-1-0.4-2.3,1-2.5
			c-1.3-1.8,0.5-2.8,1.8-4c3.2,2.4,1.9,3.5-1.6,2.9C256.2,419.9,256.5,420.4,256.8,420.7z M260.1,398.3c-0.4-0.1-2.1-0.3-1.9-1.1
			c0.1-0.4,1.7-0.3,2.2-0.4c-1-1.4-2.7,0.3-2.9-1.6c-0.1-0.5-0.3-0.9-0.6-1.2c-1-0.2,0.5-1.6,0.5-1.5c0.9,3,5.1,0.6,5.5,2
			c-0.5-0.2-1.1-0.2-1.6-0.3c0.6,0.9,0.3,3.9,1.9,3.1c1.1-0.5,2.3-0.9,3.2-1.7c-0.5,0.7-0.8,1.9-1.5,2.4
			C264,398.7,261.3,398.5,260.1,398.3z M268.7,392.2c-1.3-1.8,1.1-1.9,2.1-1.1C272.4,392.4,269.9,394,268.7,392.2z M277.6,387.3
			c-0.9-0.1-1.7-0.3-2.6-0.4c0.2,0.8,0.5,1.5,0.7,2.3c-1.4-0.8-0.8-2.3-2.8-2.6c-2.2-0.4,0.3,4.3,0.3,4.3c-1.9-0.7-2.8-2.2-2.5-4.2
			c-1-0.7-3.4-0.9-3.4-2.2c1.5,0.7,5.6-1.4,5.8-2.7c1.6,2.2-1.7,2.1-0.6,3.6c1.7,1.6,1.3-0.9,2.9-1.1c0.1-0.7,1.7,2.1,1.3,1.8
			c0.3,0.2,1.2-0.1,1.4,0c0.7,0.1,0.8,0.9,1.6,1.1c-1.8-0.3-0.9,3.6-3,1.6l0,0C276.9,388.3,277.2,387.8,277.6,387.3z M287.1,331.9
			c0.4,0.4,0.5,0.9,0.3,1.4c-1.1-0.2-1.5-2.1-1.6-3C286.1,331,286.5,331.5,287.1,331.9C287.4,332.2,286.7,331.7,287.1,331.9z
			 M286,335.2c0.4-0.3,1.1-0.2,2.1,0.4C287.3,336.1,286.2,336.6,286,335.2z M282.7,379.1c-1.6-0.3-2.6-0.5-2.3-2.1
			c0.1-0.8,2-0.1,2.7,0C282.9,377.7,282.8,378.4,282.7,379.1z M289.8,333c-0.3-0.4-0.7-0.7-1.2-1c2.6-0.5,3-2.7,5.7-2.2
			c-0.2,1-0.4,2.1-0.5,3.1c-1.4-0.2-2.5-0.8-2.9,1.1C290.6,333.7,290.2,333.3,289.8,333C289.7,332.8,290,333.2,289.8,333z
			 M289.1,348.1c2.9,0.5,2.1,1.6,3.6,3.8c-0.8-0.5-1.6-0.8-2.5-1C289.6,350.2,290.1,349,289.1,348.1z M294.1,325.4
			c-0.1,0.7,0.3,1.4,0.2,2.2c0.5-0.7,1.2-1.3,1.9-1.8c0.3,0.3,0.7,0.8,0.9,1.2c-0.7,0.2-1.3,0.5-1.9,0.8
			C293.3,328.4,293.1,326.4,294.1,325.4z M296.5,325.3c-0.2,0-1.7,0.2-2.4,0.1c0.1-0.5-0.2-1.9,0.1-2.3c1.2-1.3,2.9,1.8,4.1-0.2
			C298.6,324.1,297.7,325.5,296.5,325.3z M298.7,326.7c-0.3,0.3-0.8,0.6-1.2,0.9c0.3-1.5,1-2.1,2.2-2.9c1.4-1,2.5,0.5,3-2.1
			c0.5,0.3,1,0.5,1.5,0.8C303.3,325,300.6,327.5,298.7,326.7z M309.4,289.4c1.6,2.3,0.1,7-3.2,6.4c-1.9,0.1-3.9-0.1-5.8-0.5
			c-0.4,0.3-0.4,2.1-0.4,2.6c1.7-0.4,3,0.4,3.4,2.2c0.8,1.2,1.3,0.6,2.5,1.1s2.1,1.5,2.8,2.5c-1.3,0.9-2.6,1.9-3.7,3.1
			c-0.6,0-1.3-1.3-1.9-1.4c-2.8-0.5-4.8,5.1-2.5,5.5c1-1.9,2.2-2.3,4.2-3c2.1-0.7,4.5,1.9,2.2,3.5c-0.2-0.8-0.5-1.5-0.7-2.3
			c-1.5,1.6-3.4,2.3-5.4,3.2c-1.3,0.6-2.7,3.3-0.7,4.3c-1.6-0.3-2.6-0.4-2.3-2c0.3-1.7-1.3-1.8-0.9-3.9c0.7-1.5,1.4-3.7-0.2-4.9
			c-0.4-0.1-2.3,0.8-2.3,1.2c-0.3,1.7,2.4,1.2,2.3,2.7c0,1.3-2.9,1-4,0.8c-3-0.5-3.1-3-3.9-5.5c0.8,0.1,2.1-0.4,2.8-0.6
			c-1-0.7-1.9-1.4-2.9-2.1c0.7-0.2,1.2-0.2,1.9-0.3c1.4-0.3,1-1.2,1.8-2.2c-1.2-0.2-2.5-0.3-3.7-0.1c0.2-1.4,2.3-1.8,3.4-1.1
			c1.4,0.9,1.3,0.5,2.7-0.5c-1.4-0.5-2.3-1.7-2.7-3c0-0.1-1.7-2.4-1.8-2c1.7-0.5,2-2.3,3.1-2.7c1.1-0.3,1.4,0.8,2,0.9
			c0.7,0.1,1.4-0.3,2.2-0.2c-0.6-0.8-2.3-3.5-0.4-3.8c1.1-0.8,1.5-0.1,2.3-1.2c0.1-0.6,1.3,0,1.6-0.3c-1.4-1.3-2.5-2.8-3.5-4.4
			c-0.1,0-4.7,5.7-4.1,2c0.4-2.1,4.7-4.3,6.3-2.1c0.1-0.5,0.2-2.9,0.5-3.1c1.4-0.9,2.8,1.3,2.2,2.5c-1.7,2.4-1,3.5-0.2,5.9
			c1.2,4.1,2.9-1,3.2-2.7c0.8-4.5,4.8-8.8,7.4-2.9c0.6,1.3,0.2,3.1-1.8,2.8c-0.6,1.2-1.4,2.3-2.2,3.4c-1.4-0.2-1.8-1-3.2,0
			c0.9,0.7,2.5,1.1,2.2,2.5C308.3,289.8,308.8,289.7,309.4,289.4z M305.1,298.9c-0.9-0.9-0.8-1.6,0.4-2.1L305.1,298.9z M310.8,303.1
			c-0.2,1,0.6,2.1,1.1,2.9C310.7,305.1,308.1,304.9,310.8,303.1z M314,296.7c-0.8-0.7-1.1-2.3,0.4-2.1
			C314.2,295.3,314.1,296,314,296.7z M313.5,290.2c-0.5-0.1-1.1,0.4-1.6,0.3c1.2-0.9,2.4-1.7,3.7-2.6c-0.2,1.1,1.2,4.6,0.8,4.9
			C315.3,292,314.2,291.2,313.5,290.2z M318.7,281.9c-0.2,1.4-1.1,2-2.4,1.7L318.7,281.9z M319.4,277.8c1,0.2,2.1,0.4,3.1,0.5
			c-1,0.3-2.2,0.7-3.3,0.5C319.3,278.5,319.3,278.1,319.4,277.8z M326,267.1c-1.6,1.1-1.5-0.8-1.8-1.9
			C325.3,264.9,325.8,266.5,326,267.1z M328.7,261.2c1.6-2.1-2,0-2.2,0.2c-1,0.7-1.5-0.3-1.8,1.1c-0.1,0.8-0.3,1.5-0.4,2.3
			c-1.7-2.3-0.4-4.5,0.6-6.9c1.3,1.9,2.5,0,3.8-0.4c-0.4,2.2,2.6,2.1,3.9,2.3c-1.9,1.3-1.1,0.4-1.5,2.4
			C330.1,261.9,329.3,262.1,328.7,261.2z M330.6,265.8c-0.6-0.3-1.1-0.7-1.4-1.3c1.3,0.2,1.5-1.5,2.8-0.6
			C331.2,264.3,330.8,265,330.6,265.8z M328.6,267.6c0.8,0.1,1-1.1,1.6-0.3c1,1.4-0.4,2.4-0.6,3.6
			C328.9,270.4,327.3,268.2,328.6,267.6z M297.6,301.9c1.3-1.8,2-5.6-1.2-5.6C296.7,298.2,297,300.1,297.6,301.9z M291.5,306.2
			c-0.6,0.8-0.3,1.9,0.1,2.7c1.2-1.2,2.4-3.3,0.8-4.7C292.2,304.9,291.9,305.6,291.5,306.2C291,306.8,291.9,305.6,291.5,306.2z
			 M301.7,299.9c-0.6,0.8-0.9,1.6-1.5,2.4C301.6,302.6,303.9,300.3,301.7,299.9z M297.8,293.1c-0.3-0.4-0.7-0.7-1.2-1
			c-0.3,1.6,1,2,2.3,2C298.5,293.8,298.1,293.5,297.8,293.1C297.6,292.9,297.9,293.3,297.8,293.1z M298.1,305.2
			c0.1,0.2,0.3,0.4,0.4,0.6c-0.2-2,0.9-1.1,1.9-1.8c-0.7-0.3-1.2-0.7-2-0.9C298.3,303.8,298.2,304.5,298.1,305.2z M306.8,284.2
			c-0.3,0.1-0.6,0.3-0.9,0.4c0.9,0.5,1.6,0.3,1.7-0.8C307.4,283.9,307.1,284.1,306.8,284.2z M308.5,281.8c0.7-0.2,1-0.7,0.8-1.5
			C308.9,280.7,308.6,281.2,308.5,281.8z M308.3,261.4c-0.9,0.7-2.4,2.3-1,3.4C308.5,265.7,308.7,262.1,308.3,261.4z M309.4,257.9
			c0.2-1.1,0.9-1.9,1.1-3C309.2,255.4,309.1,256.6,309.4,257.9z M305.9,259.9c0.4-0.1,0.8-0.2,1.1-0.3
			C306.4,259.5,306.1,258.6,305.9,259.9z M355.3,184.3C351.8,186.7,357,186.8,355.3,184.3C354.8,184.6,355.3,184.3,355.3,184.3z
			 M353.6,200.1C349.8,197.3,351.8,202.1,353.6,200.1L353.6,200.1z M349.8,200.5c0.6,0.5,1.2,0.6,1.6,0.3L349.8,200.5z M299.3,273.3
			c0.2-0.1,0.4-0.1,0.6-0.2c0.1-0.8-1.2-2.7-1.6-3.2C298.1,270.7,296.6,274.9,299.3,273.3z"/>
			</clipPath>
	 </defs>

	<line clip-path="url(#signature-left-clip)" x1="150" y1="500" x2="394" y2="65" class="footer__signature__graphic__path footer__signature__graphic__path--left"/>

</svg>
