<?xml version="1.0" encoding="utf-8"?>
<!-- Generator: Adobe Illustrator 17.1.0, SVG Export Plug-In . SVG Version: 6.00 Build 0)  -->
<!DOCTYPE svg PUBLIC "-//W3C//DTD SVG 1.1//EN" "http://www.w3.org/Graphics/SVG/1.1/DTD/svg11.dtd">
<svg version="1.1" xmlns="http://www.w3.org/2000/svg" xmlns:xlink="http://www.w3.org/1999/xlink" x="0px" y="0px" width="721.9px"
	 height="580.5px" viewBox="12.1 -19 721.9 580.5" enable-background="new 12.1 -19 721.9 580.5" xml:space="preserve">

	 <defs>
	 	<clipPath id="signature-right-clip">

		<path d="M382.6,279.6c-0.7,0.1-0.5,3.2-0.7,3.7c-0.2,0.8-1.6,0.6-2.1,1c-1,0.6-1.4,2.1-1.6,3.2
			c1.9,0.3,3.9,0.7,5.6,1.5c-2.3,0.4-4.6-0.3-6.9-0.1c1.5,1.1,1.4,2.3-0.1,2.8c-1.1,0.4-2,3.3-2.2,4.3c-0.5,3-3.1,5.5-3.6,8.5
			c-0.1,0.5-0.9,2.8-1.3,3.1c-1.9,1.3-1.4,1-1.8,3.3c-0.3,1.5-3.1,2.4-1.9,4c-0.2,1.2-1,3.8-2.4,1.7c-0.9,1.2,0.1,2.1,0.5,3.3
			c-1.2,1.6-1.7,1.6-2.3,3.5c-0.4,1.5-1.3,3-2.7,3.7c-0.5,0.9-0.3,2.4-0.8,3.4c-1.2,2.5-2.5,4.4-3,7.1c-0.3,1.6-2,1.2-2.6,2.5
			c-0.9,1.8,0,1.9,0.9,3.3c-0.9,1.1-1.8,0.8-3,0.6c-1-0.2-1,2.2-0.6,2.8c1,1.5-0.3,2.4-1.8,2.1c-1.6-0.3,0.6,2.6-0.3,3.8
			c-1,1.3-1.7,1.7-1.2,3c0.9,2.2-1.9,4.5-2.5,6.4c-0.9,2.5-2.4,4.5-3.2,7.1c-0.7,2.2-1.6,4.1-2.7,6.2c-1.3,2.5-2.6,4.9-4,7.4
			c-1.2,2.2-2.7,4.9-3.3,7.3c-1.2,4.7-4.1,9.3-5.9,13.9c-1.8,4.4-4.5,9.2-5.3,14c0.7,2.3-1.6,3.3-1.3,5c0.2,1.4-0.3,1.3-1.1,2.7
			c-0.8,2.1-1.5,4.2-2.2,6.3c-0.9,2.5-2.4,4.8-3.2,7.3c-0.4,1.1-1.6,2.4-1.8,3.4c-0.9,1.7-0.9,3.9-2,5.5c-2.5,4.7-3.7,9.6-5.1,14.7
			c-1.4,5.2-3,10.1-4.3,15.3c-1.1,4.3-1,8.6-1.7,12.8c-1,5.9-1.3,11.8-1.9,17.8c-0.7,6.2,0,12.7,0.2,18.9c0.1,3.8-0.7,7.6-0.6,11.4
			c-0.4,2.5,2,2.6,3.6,3.8c2.2-3.1,5.5-7,6.7-10.5c1-2.9,2.9-5.4,5.5-7.2c-0.6,0.2-1.3,0.3-1.9,0.2c-1.6-0.3-1.4,0.2-1.9,1.1
			c-1,1.8-3.1,1.2-4.4,1.5c-1.3,0.3-1.1,0-1.9-1.1c-0.2-0.2,2.1-2.9,2.1-4.2c-2.1,0.6-3,2.6-3,4.8c-3.7-2.8,0-2.3-0.9-5.5
			c-0.3-1.1,0.1-2.5,0.8-3.3c1-1,1.7,1,2.9,0.2c0.7-0.4,1.3-1.5,1.8-2.1c0.7-1,0-0.8,0.2-1.8c-0.2-1.5-4.8-1.7-2.1-3.6
			c-0.3-0.2-0.6-0.5-1-0.7c1.3-0.4,2.7-0.7,2-2.2c-0.1-0.3-2.1-3.2-0.6-2.9c-2.7-1.4,0-6.8,1.4-6c1.5,0.8,0,2.2,1.9,2.4
			c1.6,0.2,3.2-0.5,4.5-1.4c-0.9-0.1-1.4-0.6-2.1-0.8c-1.6-0.6-0.5-1.4-1-2.9c-1,0.7-3.6,2-3.1-0.5c-0.6-0.6-1.8-2-1.9-2.7
			c-0.2-1.3,1.6-1,1.6-2.1c0-0.6-0.1-1.3-0.2-1.9c-0.3-2.3,0-1.2,1.5-2.2c-0.6-0.7-2.2-3.4-0.6-3.7c1.5-0.3,2.2-0.1,3.6-1.1
			c-0.3-1-0.8-1.9-1.1-2.9c1,0.2,1.7-0.2,2.7-0.1c-0.1,0.7-0.4,1.4-0.9,2c1.3-0.4,2.4-1.5,3.8-0.8c1,0.4,1.3,1.4,2.5,1.4
			c-0.2,1.4-1.1,2.8-1.8,4c1.8-1.3,2.2-1.4,3.4,0.3c0.8,1.1-0.9,2.5-1.8,1.3c-0.8-1.2-1.5,0.6-2,1c-0.7,0-0.8-0.3-1.5-0.7
			c-2.3-1.3-0.2-3.3-3.1-3.8c0.5,1.6,1.4,3.6-0.3,4.8c0.2,1.1,1.4,2,2.4,1.7c0.5-0.4,1.1-0.6,1.7-0.7c0.8,0.4,0,1.4,1.5,1
			c1.6-1.1,0.4-1,2-0.7c1.8,0.3-0.3,2.3-0.7,2.6c2.1,1,7.7,1.3,6.1-2.3c-0.3-0.6-1.7-1.9-1-2.7c1.4,0.2,3.9-0.3,2.5-2.2
			c-0.7-1,0.2-2.3-1.9-1.7c-0.9,0.3-2.6,0-3.4-0.6c-0.3-0.2-1.7-2.4-1.9-2.8c1.1-1.5,2.4-2.6,0.7-4.2c0.6-0.4,1.2-0.9,1.8-1.3
			c0.4,1.3,1.3,2.5,2.1,3.6c-0.8-0.1-1.4,0.3-2.2,0.2c1.3,1.8,2.3,1.3,4.2,0.7c-1.5-0.3-1.9-2.1-2.7-3.1c-0.4-0.6-0.5-2.4,0.2-2.9
			c2.1-1.5,1.1,1.5,1,2c1.7,0.3,3.4,0.6,5.1,0.9c1.1,0.2,1.7,0.1,2.8,0.1c1.6,0,2,1.6,3.5,1.5c0.2-1,0.4-2.1,0.5-3.1
			c1.1,0.2,1.9,0.9,3,1.1c-0.4,0.2-1.7,0.7-1.8,1.3c1.1,0.2,2.2,2.4,3,0.9c0.5-0.9-0.4-1.7-0.9-2.4c-0.6-0.8-1.7-2.2-2.8-2.4
			c-0.7-0.1-0.5-3.5-0.6-4.1c-0.2-3.3,0.3-2.1,3.1-3c-1-1.4,0.1-1.6,0.8-2.6c1-1.6-1.2-1.2-0.9-2.8c1.3,0.2,2.5-0.1,3.7,0.1
			c0.4-2.5-0.7-0.6-1.7-0.8c-1-0.2,4.8-2.7,5-2.9c-1-0.2-1.5-0.8-2.5-1c2-1.4,4.4-2,3-4.8c2.7-0.8,3.2-1.2,4-3.7
			c0.8-2.3,2.7-4.3,3.4-6.5c0.7-2.4-1.9-4-1-6.4c0.6-1.6,2.2-2.2,2.6-4.4c-1.8-0.3-10-0.5-10.7-2.9c3.7,0.6,7.6,0,11.1,0.8
			c0.5,0.4,4.5,1.6,4.7,0.8c0.2-1.2-3.2-1.6-4-1.8c0.5-0.5,1.1-0.7,1.7-0.8c-1.1-0.4-4-0.9-2.8-2.6c1.9,1,5.4,3.6,7.2,1.8
			c-1.1-0.2-1.9-0.9-3-1.1c0.2-1.3,1.6-1.6,2.5-2.2c0.5,0.1,1.6-2,2-2.3c-1.4-0.5-0.3-3,1-3.3c1.2-0.3,3.6,0.9,3.9-0.2
			c-0.5,0-2.6-0.2-2.5-1c2-0.6,2.7-0.1,3.1-2.3c0.5-3-0.3-4.7-2-7.1c2.6-0.3,5.1-2.4,2.3-3.9c0.7-0.3,1.4-0.4,2.2-0.2
			c0.2-1,0.8-1.5,1.8-1.3c1.1,0.2,2.9-1.6,3.7-2.6c-1.1,0.3-2.2,0.2-3.3,0.5c0.1-0.7,0.1-2,0.4-2.6c1.7-0.5,3.6-2.5,4.8-3.7
			c0.2-0.2,1.5-1.7,1.4-1.7c0.9-0.6,1.3-1.5,1-2.5c-0.4-1.9,0.1-1,1.5-2.2c1.4-1.1,1.2-3,2.7-4.1c1.2-1.9,2-4,2.9-6.1
			c1.4-3.4-1.2-1.6-1.4-2.8c-0.3-1.9,1.5-1.9,3-1.6c-0.4,0.5-0.9,0.9-1.3,1.4c4.3,1.4,4.5-7,3.8-9.5c1,0,6.1-2.2,3.1-2.7
			c-1.2-0.7,1-3,1.8-4c-1-0.2-2.1-0.4-3.1-0.5c0.7-0.5,1.4-1.1,1.9-1.8c-1-0.2-2.2-0.3-3.2,0c1.6-3,4.4,2.6,5.1-1.8
			c0.7,0.7,0.7,0.5,0.9,1.2c0.2-0.1,0.4-0.3,0.6-0.4c-0.2,0-0.3-0.1-0.5-0.1c2.8-0.8,2.4-3.5,4.6-5.1c0.2-0.9,1.6-1.6,2-2.4
			c0.7-1.2,0.9-2.4,2.2-3.3c-2-0.3-4.5,0.2-5.6-1.5c2.6-0.8,4.7-2.8,4.7-5.6c-3.2,3.4-2.2-2.7-2-4.1c0.7,0.3,1.3,0.6,2,0.9
			c0.1-3.1,2.2-1.6,3.3-3.7c-2.2,1.6-2.4-0.1-3-1.7c-0.4-1.1-1-2.1-0.4-3.2c0.4-0.7,1.5-1.3,1.4-2.2c0-0.3-0.7-5.2,1-3.9
			c0.8,0.6-0.5,1.7,1,1.9c0.6,0.9,1.6-0.4,2.5,1c-4.7-1.7-2.7,3.3-4.1,5.2c0.5,0.3,1.5,0.7,1.4-0.3c-0.2-2,2.6-1.3,3.7-1.5
			c-1.5,2-2.4,1.8-0.9,3.9c1.4,2,3.3-1,4.3-1.7c-1.1-0.9-2.2-0.7-3.5-1.7c1.7-2.3,4.8-3.3,6.4-5.6c0.1-0.2,1.1-1.7,0.8-2.2
			c-1-1.4-2.2-0.1-3.4-0.6c-1.1-0.5-1.7-1.1-1.5-2.2c0.3-1.9-0.3-2.7-0.8-4.6c2.3-0.7,2.2-0.8,3.6,1.1c0.8-1.1,1.4-1.5,1.2-2.8
			c-0.4-2,0.6-2.9,2.6-3.5c0.7-0.5,3.3-4.2,3.7-4.2c1.4,0.2,3,0,2.1,2c1.6-0.5,4.1-5.3,1.7-4.3c-1.8,0.8-1.4-0.5-3.5-0.9
			c-1.2-0.8-2.3-0.4-3.6-0.6c0.4-1.4,5.2-0.2,6.4,0c-0.5-2-0.4-4.3,1.5-5.6c-0.4-0.5-0.9-0.7-1.5-0.8c3.6-2.6,2.5-7,5-10.4
			c-0.7-0.1-1.2-0.7-2-0.9c2.1-1.5,3.8-2.2,3.8,1.2c0,1.7,0.9,2.8-0.7,3.5c-0.9,0.3-1.4,1.1-1.6,2c2.5,0.4,3.7,1.2,5.2-1.2
			c0.8-1.3,0.8-2.6,0.8-4.1c0-1.6,1.2-3.7-0.7-4c-3.8-0.7-0.1-4.7,0-7.3c0-3.5,2.1-2,3.5-0.2c0.9-1.2,1.4-2.7,2.3-3.9
			c1.3,0.9,0.1,2.7,1.5,4c0.3-1.7,1.5-4.4,2.2-6c0.5-1.1,1.9-1.7,1-3.1c-1.8,0.3-3.6,0.5-5.5,0.7c0.4,0.6,2.2,3.4,1.8,3.8
			c-0.7,0.5-3.5-1.7-4.2-2.1c1.9-2.5,3-5.5,4.1-8.4c-1.3,0.4-4.5,0.5-2.2-1.2c0.6-0.4,1.4,0.3,1.9,0s1-1.4,1.4-1.9
			c0.5,0.4,0.9,0.9,1.4,1.3c-0.4-0.5-0.5-2.7,0-3.2c1.6-1.1,1.6,0.8,3,1.1c-0.7,0.7-1.1,1.7-0.4,2.6c1-1.3,2.3-3.7,1-4.9
			c-0.5-0.5-0.7-2.8-0.6-3.6c-1,1.9-3.3,1.1-4.3,3c-1-2.2,1.2-1.8,2.6-2.8c-0.6-0.5-1.3-0.9-1.9-1.4c1.1,0.6,1.5,0.3,1.8-0.6
			c0.3-0.5,0.5-1.1,0.7-1.6c0.9-1.2-0.6-0.9-1.1-1.5c-0.4-0.8-0.1-1.3,1-1.4c1.4-0.4,1.4,1,2.5,1.2c0.5,0.2,1,0.4,1.5,0.8
			c0.4-0.6,1.3-1.6,1.5-2.4c1.5-1-0.1-3.4,0.1-5c0.2-1.4,1.4-2.6-0.2-3.5c-2-1.1-1.9-0.5-1.3-2.8c0.9-3.1,0.4,0.2,1,1
			c0.6-0.8,0.2-2.2,1.2-2.6c1.3-0.6,1.2,0.9,2.2,1.6c0.2-0.9,1.5-1.3,1.5-2c0-2.2-2-0.7-2.4-1.2c-1.8-2.5,1.4-5.3,3.1-6.6
			c0.5,0.7,0.9,1.5,1.2,2.3c-0.5,0.3-1.8,1.2-1.8,2c0.1,0.7,3,0.1,3.6-0.1c2.6-0.8-0.3-3.4,2.5-4.9c-0.9-0.1-2.9-0.9-3.5-1.7
			c0.6-0.2,1.7,0.3,2.1,0c1.6-0.8-0.6-1.8-1.2-2.5c-0.5-0.9-0.7-2.2-1-3.2c-0.4-1.4,1.6-2.7,2.7-3.1c1.8-0.5,2.8-3.4,4-5.1
			c-0.6-0.1-2.1-0.5-1.9-1.2c0.4-2.2,0.7-1.2,2.3-2.6c0.8-0.8,0.4-1.3,1.4-2c1.5-1,0.9-2.3,0.4-3.9c1.5,1,3.3,1.4,4.7,0.1
			c1.7-1.5-1.3-1.7,0.3-3.4c1.3-1.4,0.2-2.2,0.5-3.6c0.2-1.2,1.7-1.9,2.6-2.5c-1.7-2.4-1.8-0.1-3.4,1c-1.1-1.5-0.7-3.2-0.8-4.9
			c1.7,1.3,0.4,2,3.2,1.9c2.2-0.1,3.1,0.7,4.4-1.4c0.4-0.7,1.7-3.1,0.5-3.5c-1.6-0.5-3.1-1.2-4.6-1.8c0.4-0.1,1.6-0.2,1.7-0.8
			c-0.2,0.4-0.6,0.5-1.1,0.3c-0.3-2.2,3.4-2.8,4.7-4c0.8-0.8,0.9-6.3,1.9-6.1c1.1-0.8,1.4-2.2,1.7-3.5c0.1-0.8,1.7-2.6,2.4-3.3
			c1.4-1.6,0-1.7,0.9-3.5c0.4-0.8,1.1-1.8,1.5-2.5c1.6-1.1,1.3-3.3,3.4-4.2c1.4-0.4,1.3-2.3,1.8-3.4c0.6-1.4,2.1-1.6,2.7-2.8
			c0.6-1.4,0.4-2.5,1.5-3.8c0.6-0.7,1.4-1.3,2-1.9c1.7-1.9,0.1-5.3,4.1-5.2c-1.6-2-0.9-4.2,0.6-6c1.8-2.1,0.6-3.7,3.8-3.9
			c1.9,0.3,4.3-3.3,5.6-4.4c1.8-1.5,1.7-4,3.5-5.3c-2.9-0.5-3.8-0.1-4.9-2.9c-1-2.6,2.6-1.3,3.9-1.1c-0.8-1.2,0.8-2.4,1.6-2.9
			c1.5-1.1,2.3,0.7,3.8-0.4c-0.9-0.7-2-0.9-2.9-1.6c1.4-1.9,2.1-3.9,2.6-6.2c0.6-3-1.7-3.8-3.5-1.5c-0.9-2.1,2.1-6.9,2.9-4.3
			c2.2,1,3.3,2.1,4.1,4.4c2.3-3.2-2.5-3.4,0.2-6.5c0.8-0.9,1.7-1.6,2.5-2.4c0.9-0.9,0.9-3.2,2.4-2.5c0.2-0.9,0.4-2.6-0.5-3.3
			c-1.5,0.4-4,1.4-3.6-1.1c-0.5,0.1-0.7,0.4-0.7,1c-0.5-0.6-1.8-2.4-2.5-1c-2.1,1.5-1.2-1.1-2.9-1.8c-2.1-0.9,1.9-1.2,2.1-1.2
			c0.6-0.1,1.2-0.1,1.9,0.1c0.2-1,0.3-2.2,0-3.2c1.5-0.4,0.6,0.9,1.1,1.5c1,1.4,1.9-1.1,1.9-1.8c-0.1-2.5,0.5-2.7,2.4-4
			c0.7-0.5,1.6,0.3,2.4-0.3c1.7-1.2-0.4-2.2,0.6-3.6c1.8,0.3,0.9,2.3,2.8,2.6c-1.6-2.2,2.8-0.9,3.1-2.4c0.4-2.4,0.3-3.2-1.8-4.8
			c-0.2,1.1-0.9,1.9-1.1,3c-1.3-3.2,0.3-2.8,1.7-4.9c0.7-1-1.3-4.6-1-4.6c-3.4,0.5-1-1.3,0.3-3.1c-0.5-0.3-1-0.5-1.5-0.8
			c1.9-1.4,0.6-2.8,1.8-4.5c1,1.4,0.9,2.4-0.1,3.7c1.9,0.3,3.9-1.4,5.2,0.9c0.5-0.5,0.8-1.2,0.9-2l0,0l0,0l0,0l0,0l0,0l0,0l0,0l0,0
			l0,0l0,0l0,0l0,0l0,0l0,0l0,0l0,0l0,0l0,0l0,0l0,0l0,0l0,0l0,0l0,0l0,0l0,0l0,0l0,0l0,0l0,0l0,0l0,0l0,0l0,0l0,0l0,0l0,0l0,0l0,0
			l0,0l0,0l0,0c-0.3-1.8,0.4-3.6-0.1-5.4c-0.5-1.9-0.9-3.6-1.2-5.6c-0.2-1.9-0.4-3.8-0.3-5.8c0-1.3,0.8-3.9,0-5
			c-1.2,0.4-4.5,4.4-3.9,0.7c0.2-0.9,0.3-1.8,0.5-2.7c0.1-0.7,2.3-0.5,2.9-1.3c-0.7-0.4-8.4-0.2-6.4-2c0.8-0.7,1.9-0.1,2.1-1.4
			c-0.4-1.2-1.2-2.2-1.5-3.5c-0.5,0.7-1.2,1.3-1.9,1.8c-0.9-1.2,1.8-2.9-0.5-3.3c-1.9-0.3-1.4-1.5-1.1-2.9c-2.1-0.4-4.9-0.2-7,0
			c-3.9,0.4-4.3-2.7-7-4.8c-2.4-1.9-6.1-2.8-9-1.9c-2.5,0.8-3.3-0.1-5.9,0.7c0.4,1.4,1.5-0.3,2.6,0.4c-1.5,2-2.3,2.8-4.7,2.4
			c0.1-0.9,0.3-1.7,0.4-2.6c-1.2-0.4-5.3,6.4-6.1,7.5c0.2,0.9,0.8,0.4,1.4,1.3c-0.4,2.2-1.5,0.8-2.8,0.6c-0.3,1.6,0,3-0.6,4.5
			c-0.5,1.3-2.8,2-2.7,3.7c0,1.6-0.9,5.2-2.4,6.3c-2,0.6-1.3,4.3-2.4,5.8c-0.6,0.8-2.1,1.7-2.3,2.7c-0.1,0.5-0.1,2.2-0.7,2.6
			c-0.5,0.3-1.3,2.4-1.7,3c-1.2,1.6-1.6,3.9-2.1,5.8c-0.7,2.6-2.2,3.6-1.7,6.6c-2.4,0.2-1.3,2.7-2,4.2c-0.5,1-1.3,1.6-1.5,2.7
			c-0.2,1.1,0.2,2.1-0.4,3.2c-0.7,1.4,0,1.4-0.5,2.7c-0.5,1.1-1.6,2.2-2.3,3c-1.8,2.1-0.8,5.4-1.7,7.7c-0.4,0.9-1.1,0.9-1.3,1.7
			c-0.1,0.7-0.3,1.4-0.6,2c-0.7,1.6-3.4,4.2-2.9,5.9c0.3,2.2-1.4,3.7-2,5.6c-0.5,1.8-3.1,3.3-2,5c1,2.3-1.7,9-3.7,10.4
			c-0.6,0.4-0.6,1.7-0.4,2.3c0.2,0.8-1,1.1-1.1,1.8c-0.3,1.8-0.6,4.2-2.5,5c-0.5,1.2-0.1,2.7-0.4,3.9c-0.7,2.5-2.6,4.1-2.5,6.8
			c-0.2,0.9-0.9,1.3-1.5,1.9c-0.8,0.8-0.8,2.2-1.1,3.2c-0.2,1-0.5,2-1,2.8c-1.5,1.6,0,2.6-1.6,3.9c-1.9,1.5-2.1,3.7-2.9,5.8
			c-0.6,1.7-1.4,2.6-1.7,4.3c-0.4,2.3-2.5,4.8-3.4,7.1c-3.1,7.6-7.1,15.1-9.2,22.9c-1.5,5.5-4.1,10.5-5.9,15.8
			c-0.8,2.3-2.5,4-3.2,6.1c-0.9,2.8-2.2,5.2-3.8,7.7c-0.8,1.3-1.9,9.4-2.2,9.4c-1.1-0.2-2.3,5.2-2.7,6c-0.9,1.8-2.2,3.5-3.4,5.1
			c-1,1.4-1.4,3.2-2.2,4.7c-1.8,1.9-2.8,4.4-4.5,6.4c-1.9,2.4-2.9,5.6-4.4,8.2C390.1,257.3,388.5,269.3,382.6,279.6
			C383.2,279.5,389.1,268.2,382.6,279.6z M298.4,531.2c-0.1,0.7,0.2,1.1,0.9,1.2c-0.2,0-0.3-0.1-0.5-0.1c0.1,0.2,0.3,0.4,0.4,0.6
			c0.8-1.1,0.3-2.1,1.7-1.9c0.8,0.1,1.5,0.3,2.3,0.4c-0.3,1.5-0.8,0.1-1.7,0.8c0.4,0.6,0.9,1.2,1.3,1.8c-2.9,2.1-4.8,2.8-6.8-1.2
			c0.5-0.2,1.1-0.3,1.7-0.3C298.8,532.7,299.1,532.2,298.4,531.2z M341.6,450.8c-0.4,0.6-0.6,0.6-0.8,0.1c-0.5-0.7,0.4-1.1,0.6-1.8
			C341.7,449.7,341.8,450.2,341.6,450.8z M326.8,456.3c-0.2,0.1-0.4,0.3-0.6,0.4c-0.4-0.6-0.9-1.2-1.3-1.8
			C325.9,454.2,326.1,455.4,326.8,456.3z M325.3,452.3c-0.5,0.1-1.1,0.2-1.6,0.3c0.2-0.9,0.9-0.9,1.7-0.8
			C325.4,452,325.3,452.1,325.3,452.3z M321.6,458.1c0.6-0.1,1.1-0.2,1.7-0.3C322.8,458.5,322.3,458.6,321.6,458.1z M321.6,464.5
			C315.9,463.5,324.4,460.6,321.6,464.5C320.9,464.4,321.6,464.5,321.6,464.5z M312.9,478c0.3-1.5,1.1-0.4,1.7-0.3
			C313.9,478.1,313.4,478.1,312.9,478z M316,472.1c0.8-0.6-0.6-2.2,1.1-1.9c1.1,0.2,1,1.4,2.1,0.2c0.7-0.7,0.7-2,1.3-2.9
			c0.3,0.5,0.4,1.1,0.3,1.6c1-0.7,0.8-2.1,0.5-3.1c0.6,0.4,1.1,0.8,1.7,1.3c0.1,0.1-0.8,3.5-0.6,4.2c0.5,2.5-0.5,1.4-1.7,0.5
			C319.7,471.4,317.6,472.7,316,472.1z M324.2,465c0.3-0.4,0.8-0.6,1.2-0.9c0.2,0.7,0.3,1.4,0.2,2.2
			C325,466.2,324.5,465.5,324.2,465z M324.5,460.2c1.5-1.1,0.3-1.4-0.1-2.7c0.9,0.1,1.7,0.3,2.6,0.4c-0.3,1.5-1.4,2.6-2.7,3.3
			C324.4,460.9,324.4,460.6,324.5,460.2z M329.4,461.3c0.2,0.4,0.2,0.9,0,1.3c-1.1-0.8-1.3-1.8-0.1-2.7
			C329.2,460.4,329.2,460.9,329.4,461.3C329.5,461.5,329.2,461.1,329.4,461.3z M328.2,473.2l-1.8,1.3
			C327.1,474.3,328,474,328.2,473.2z M328.2,468.1c0-0.3-0.1-0.6-0.1-0.8c0.8,0.6,1.5,1.4,2.3,2C328.4,470.7,329,469.1,328.2,468.1
			C328.1,467.9,328.4,468.3,328.2,468.1z M338.9,450.9c-0.4,0.1-2.2,0.5-2.3,1.2c-0.3,0.1-2-0.4-1.9-0.5c-0.8,0.5,1.3,3.6-0.4,3.3
			c-2.2-0.4-0.3-4.2,0.5-4.7c-1.9-1.4-4.4-1.8-6.4-3.2c1.7-1.2,1.2-0.9,1.5-2.4c1.2-1.6,5.3-2.4,3.6,0.6c-0.7-1-1.2-0.9-1.6,0.1
			c-0.5,0.5-1,1-1.4,1.6c1.5,1.1,3.8,0.9,5.3,2.2C337.1,450,337,450.8,338.9,450.9z M356,336c1.1-0.7,2,0.3,0.9,1.2
			C356.6,336.8,356.2,336.4,356,336z M343.8,425.5c1.9-0.7,3.6-0.4,5.2,0.9L343.8,425.5z M356.9,408.5c-1.1-0.2-2.3-2.5-0.2-2.2
			c1,1.5,4.1,1.5,5.7,1c0.3,1-0.8,1.9-1.5,2.4C359.9,408.8,358.4,407.8,356.9,408.5z M364.8,409.3c0.4,1,0.2,1.1-0.6,0.4
			C364.4,409.6,364.6,409.4,364.8,409.3z M365.5,404c-0.2-0.2-0.5-0.4-0.7-0.7c1.3-0.9,1.6,0.1,1.4,1.3
			C365.9,404.5,365.7,404.3,365.5,404C365.3,404,365.6,404.1,365.5,404z M394.2,282.1c0.3,0.2,0.6,0.5,1,0.7c-0.5,0.1-0.7,0.4-0.7,1
			C393.9,283.1,394.1,282.8,394.2,282.1z M385.3,341.6c-0.8,1.1-0.8,3.3-1.1,4.6c-1.2-2.3-0.1-4.5,1.6-6.2
			C385.8,340.6,385.6,341.1,385.3,341.6C385.1,341.9,385.5,341.3,385.3,341.6z M381.9,376.9c0.3,1.1-1.2,1.6-1.9,1.1
			c-0.9-0.5-0.8-1.5-1.4-2.2c0.5-0.8,1.9,0.5,3-0.3c1.2-0.9,0.8-2.3,2.7-1.9c0.1,0.6,0.6,1.9-0.2,2.2
			C383.8,375.8,381.6,375.9,381.9,376.9C382,377.3,381.8,376.5,381.9,376.9z M385.1,369.4c-0.1-0.8,0-1.7,0.9-2
			C386.2,368.6,386.8,369.8,385.1,369.4z M389.8,358.7c-0.3,0.6-0.7,1.1-1.1,1.7c-0.6-1.8,0-3.8,2.2-3.4
			C390.5,357.5,390.2,358.1,389.8,358.7C389.6,359.2,390.1,358.2,389.8,358.7z M396.1,336.5c0.8-0.6,1.1-1.2,0.9-2
			C396.9,335.3,396.6,335.9,396.1,336.5z M393.8,349.7c0.2-1-0.5-1.7-1.2-2.1c0.9,0.2,2.6-0.6,3.8-0.4c-0.9,1.3-1.3,2.5,0.6,2.8
			C396,351.4,393.3,352.6,393.8,349.7C393.9,348.9,393.6,350.6,393.8,349.7z M398.4,348.1c-0.1,0.3-0.1,0.7-0.2,1
			c-1.1-0.6-0.6-1.2,0.3-1.6C398.4,347.8,398.4,347.9,398.4,348.1z M401.9,327.3c0.2-0.1,0.4-0.3,0.6-0.4
			C402,330.2,401.7,327.3,401.9,327.3z M433.5,274.3c0.3,0.4-0.1,0.9-1.3,1.4C432.3,275,432.7,274.2,433.5,274.3z M441.5,246.8
			c1.2-0.5,2-0.4,2.6,0.4C443.1,247.7,442.1,247.7,441.5,246.8z M452.5,232.6c-1.9,0-1.2-2.4,0.4-2.6
			C452.8,230.9,452.6,231.8,452.5,232.6z M462.8,200.6c0.1-0.5,0.8-1.3,0.8-1.5c-0.1,0.6-0.1,1.1,0.3,1.7
			C463.5,200.8,463.1,200.7,462.8,200.6z M475.8,137c-0.6-0.5-0.9-1-0.8-1.7C475.5,135.8,475.8,136.4,475.8,137z M479.3,132.8
			c0.1,0.4,0.2,0.8,0.3,1.1c-0.2,0-0.3-0.1-0.5-0.1C479.1,133.5,479.2,133.1,479.3,132.8z M477.9,137.4c0.2-0.3,0.5-0.6,0.7-1
			c0.5,1-0.1,0.5-0.3,1.6C478.2,137.8,478.1,137.6,477.9,137.4z M472.9,182c-0.4,2.3-0.6,3.7,0.1,5.9c-0.7,0.1-1.2,0.3-1.7,0.8
			c-0.8-0.6-0.5-1.5-0.2-2.2c-1.8-1.7-0.2-3-0.8-4.9C471.2,181.7,472.1,181.9,472.9,182z M480.1,140.4c-0.7,0.6-1.2,0.5-1.6-0.3
			C479.4,139.5,480.1,139.4,480.1,140.4z M479,175c-0.6,0.8-1.6,0.1-2.1-0.4c0.6-0.3,1.2-0.5,1.7-0.8
			C478.7,174.3,478.9,174.7,479,175z M485.1,133.2c-1.1-1.6-1.7-2.4,0.1-3.7c0.4,1.2,1,1.4,1.7,2.4
			C486.3,132.4,485.7,132.8,485.1,133.2z M495.2,83.6c0-0.5,0.2-1,0.3-1.6c0.3,0.5,0.4,1.1,0.3,1.6
			C495.5,83.6,495.4,83.6,495.2,83.6z M510.6,59.4c-1-0.2-1.5-0.8-1.3-1.8L510.6,59.4z M504.2,59.4c0-0.5,0.2-1.1,0.3-1.6
			C505,58.6,505,59.3,504.2,59.4z M503.5,66.3c0.1-0.3,0.1-0.7,0.2-1c0.9,1.3,1,1.7,1.5,3.5C504.7,67.9,504.1,67.1,503.5,66.3z
			 M507.9,69.1c-0.3-2.1-1-4.1-1.6-6.2C507.8,65.2,511.2,66.8,507.9,69.1z M501.3,116.8c0.1-0.8,0.8-1.3,0.9-2
			C504.2,115.7,503,117,501.3,116.8z M509.7,71.1c0.4,1.5,1.7,2.5,0.2,3.5C508,75.9,509.5,71.4,509.7,71.1z M512.6,63.5
			c-2.1-0.4-4.2-0.2-6.3-0.6c1.4-3.8,4.6-0.3,6.9,0.1C513,63.2,512.8,63.4,512.6,63.5z M523.2,82.5c0.6,0.5,1.3,0.7,2,0.9
			c-0.6,0.6-1.4,1.4-2.3,1.2C523,83.9,523.1,83.2,523.2,82.5z M517.4,83.6c-0.4,0.6-1.7-0.8-1.9-1.1c-1.2-1.6-0.7-0.6-0.4-2.5
			C515.6,80.7,518.1,82.7,517.4,83.6C517.2,84,517.6,83.3,517.4,83.6z M515.6,86.5c-0.2,0-0.3-0.1-0.5-0.1c0.1-0.3,0.1-0.7,0.2-1
			C516,85.5,515.7,85.9,515.6,86.5z M521.2,47.3c-0.9,1.3-2,1.1-3.1-0.5L521.2,47.3z M517.6,60.9c-0.2-0.1-0.5-0.3-0.7-0.4
			c1-0.7,1.7-0.6,1.5,0.8C518.1,61.2,517.8,61,517.6,60.9C517.4,60.7,517.7,61.1,517.6,60.9z M517,64c0.4-0.3,0.7-0.7,1-1.2
			c0.1,0.7,0.3,1.2,0.8,1.7c-0.9,0.3-1.9,0.3-2.8,0.6C516.3,64.8,516.7,64.4,517,64C517.2,63.9,516.8,64.2,517,64z M511.3,108.6
			c-0.7-0.7-0.8-1.6-0.6-2.5c0.5,0.4,0.9,0.9,1.4,1.3c0.1-0.7,0.2-1.4,0.4-2.1c2.5,1.9,1.6,3.1,0.1,5.4
			C512.3,109.9,511.8,109.2,511.3,108.6C510.7,107.9,511.9,109.2,511.3,108.6z M513.5,101.7c-0.6-0.8-0.8-1.6-0.7-2.3
			C513.5,99.9,514.6,101,513.5,101.7z M518.6,91.1c-0.2,1.4-0.4,0.7,0.1,2.4c0.5-0.7,0.8-1.6,1-2.5c1.4,1,1.2,2.5,0.4,3.8
			c-1.1-0.2-1.8-1.1-2.7,0.1c1,1.4,0.9,2.1-0.5,3.1c-1.8,1.3,1.9,1.1,2.5,1c-0.8,1.4-4.1,2.2-3.7-0.1c-0.3-0.9,0.6-1,1.2-0.9
			c0.2-1-0.2-1.7-0.1-2.7c-1.2,0.8-3.3,1.4-3.6-0.6c-0.2-0.7-0.4-1.3-0.7-2c-0.7-1.5,0.3-1.6,0.5-2.9c0.9,1.3,0.5,2.7,1.5,4
			c0.6-1.1,1.2-2.2,1.8-3.3c1-1.8,1.4-0.5,3.1-0.2C519,90.6,518.8,90.8,518.6,91.1C518.5,91.2,518.6,90.9,518.6,91.1z M523.4,75.6
			c-0.1,0.6-0.4,4.5-1.2,4.4c-0.7-0.1-0.8-1.6-2.2-0.6c-0.9-0.9-0.9-1.1-0.3-2.1C520.9,75,520.8,75.1,523.4,75.6z M534.6,19.6
			c0.3,0.1,4.9-0.2,1.6,1.1c-1.9,0.8-3.2-1.3-4.7-2.2c0.8-0.4,1.6-0.8,2.3-1.2C534.1,18.1,534.3,18.9,534.6,19.6z M534.9,33.1
			c0.4-0.9,0.9-0.2,1.7-0.8c-0.1,0.3-0.1,0.7-0.2,1C536,33.3,535.4,33.3,534.9,33.1z M535.8,24.7c-1.9,1.4,1.6,2.1-0.3,3.4
			c-2.1,1.5-2.5-2.1-2.5-3.1c0.1-1.8,0.2-2.9,2.6-2.5c0.8,1.1,0.6,1.9,2,0.9c1,0.2-0.1,1.6,0.8,1.7C537.6,25,536.7,24.8,535.8,24.7z
			 M535.6,60.5c-0.4-0.6-0.9-1.2-1.3-1.8c0.5-0.1,1.1-0.2,1.6-0.3C535.8,59.1,535.7,59.8,535.6,60.5z M539.6,33.9
			c-0.2,1-0.4,2.1-0.5,3.1C538.5,36.2,538.3,33.8,539.6,33.9z M540.6,28.2c-0.9,0-1.2-0.4-1.7-1.1c-0.8-1.2,1.6-1.6,2.2-2
			C541,26.1,540.8,27.1,540.6,28.2z M540.6,34.6c0.2,0,0.3,0.1,0.5,0.1c-0.2,1.1-0.9,1.9-1.1,3C540.2,36.7,540.4,35.6,540.6,34.6z
			 M344,471.1c1.8,1.3,2.9-2.4,4.8,0.3c0.2-0.9-0.2-1.8-0.1-2.7c1.1,0.2,2,0.9,2.3-1.2c-0.7-0.3-1.3-0.6-2-0.9
			c-0.5,0.7-1.4,1.9-2.4,1.7C344.6,467.9,343.7,469.1,344,471.1z M317.5,497.6c-0.2,1.4-2.1,0.9-1,2.5c-0.8,0.3-1.6,0.7-2.3,1.2
			c0.8,0.6,1.5,1.4,2.3,2c2.8,0.5,1.1-2.4,0-3.2c0.7-0.2,1.4-0.3,2.2-0.2C318.9,498.9,318.4,498.1,317.5,497.6z M463.6,208.3
			c0.3,1,3.2,4.5,2.9,1.6c-0.8-1.1-1.9-2-2.7-3.1c0-0.5,0.2-0.9,0.7-1c-0.5-0.5-0.7-1.1-0.8-1.7
			C463.4,206.5,459.4,207.6,463.6,208.3z M321.5,497.7c0.5,1.6,4.3,2.5,4.5,1.1C326.5,496.4,320.6,494.8,321.5,497.7
			C321.6,498.1,321.4,497.3,321.5,497.7z M333.2,478.3c-1-0.2-2.1-0.4-3.1-0.5c0.6,0.8,1.3,3.4,2.1,3.6c1.1,0.2,2.8-0.4,3-1.6
			c-0.8,0.2-1.5,0.5-2.3,0.7C332.9,479.7,333,479,333.2,478.3z M324.8,486.5c0.9-0.1,2.5-3,4.4-3.5c-1-0.5-2.3-1.5-3.5-1.7
			c-0.3,1.8-1.1,3.4-1.4,5.1C324.4,486.4,324.6,486.5,324.8,486.5z M420,309.5c0.9,0.2,1.8,0.4,2.5,1c-0.5-1.1,1.5-7-1.9-4.6
			C420.1,306.4,420.1,308.8,420,309.5z M481.4,170.1c-0.5-0.5-0.7-1.1-0.8-1.7c-0.9,1.2-2.1,1.8-1.6,2.9
			C480.2,173,482.5,171.6,481.4,170.1z M352.7,436.1c0.2-1.1-0.4-1.3-0.7-2.3c1.1-0.1,2.2-0.5,2.4-1.7c-1.9,0.4-3.2,1.8-3.8,3.6
			C351.3,435.9,352,436,352.7,436.1z M540.2,50.9c1.1,0.6,1.4,2.8,1.8,0.6c0.3-1.9-1.8-1.9-3.4-2.2C539,49.9,539.5,50.5,540.2,50.9
			C540.7,51.1,539.7,50.6,540.2,50.9z M371.2,406.6c1.2,0.9,2.8,0.9,4,1.8C373.9,406.6,373.3,405.2,371.2,406.6z M312,514.3
			c-1.4,0.1-2.5,0.9-3,2.2c0.9,0.1,1.7,0.3,2.6,0.4C311,516.1,311.2,514.9,312,514.3z M315.5,496.7c-0.4-1.2-1.3-1.8-1.6-3
			c-0.8,0.3-0.9,0.8-0.3,1.5c0.2,1,0.3,1.7,1.3,2.4C315.1,497.3,315.4,497,315.5,496.7z M305.7,519.6c-0.7-0.5-1.6-0.8-2.5-1
			c0.1,1.1,2.7,3.2,2.9,1.6C306,520,305.9,519.8,305.7,519.6z M455.3,238.2c-0.2,1.2,1.3,0.2,1.5-0.3c0.8-1.8-0.5-2-1.8-1.1
			C455.3,237.2,455.4,237.7,455.3,238.2C455.2,238.7,455.4,237.7,455.3,238.2z M442.2,270.5c-0.8,0.6-1.6,1.4-0.4,2.1
			c0.9-0.6,1.6-1.4,2-2.3C442.4,271.3,443.1,270.2,442.2,270.5z M431.3,296.5c0.3-1.8-0.4-1.7-1.8-1.9
			C429.3,295.7,430.3,296.3,431.3,296.5z M353.1,450.9c0-0.3-0.1-0.6-0.1-0.8c-0.8,0.6-1.6,1.1-2.4,1.7
			C351,451.9,354.2,452.5,353.1,450.9C353,450.7,353.3,451.1,353.1,450.9z M339.6,462.8c0.7,0.1,1.4,0.2,2.1,0.4
			c0.2-1.2-0.8-1.7-1.8-1.9C339.8,461.7,339.5,462.3,339.6,462.8z M533.6,84.3c-0.1-1.4-0.7-2.3-1.7-2.4
			C532.2,82.8,532.9,83.6,533.6,84.3z M530,88.2c0.7,0,1.3,0.2,1.2,1c0.7-0.9-0.6-1.9-1.2-2.3C529.6,87.3,528.8,88.3,530,88.2
			C530.9,88.2,529.1,88.2,530,88.2z M320.4,494.9c0.1,0.2,0.1,0.4,0.2,0.6c0.6-0.8,1.3-1,1.9-1.8c-0.6-0.1-2-0.1-2.4,0.5
			C320.3,494.3,320.4,494.5,320.4,494.9z M429.3,292.9c0.8-0.3,1.6-0.7,2.3-1.2c-1-0.2-2.2-0.3-3.2,0
			C428.7,292.1,428.9,292.6,429.3,292.9z M314.9,503.5c-0.6-0.5-1.2-1.1-1.8-1.9C313.2,502.7,313.6,503.7,314.9,503.5z M534,82.2
			c1.2-0.5,1.4-1.2,0.9-2C534.8,81,534.5,81.7,534,82.2z M543,48.4c0.2-0.4,0.2-1.1,0.3-1.6c-0.4-0.2-1.1-0.3-1.6-0.3
			C542,47.5,542.1,48.2,543,48.4z M406.1,334.4c0.9,0.2,1.8,0.4,2.5,1c-0.2-0.8-0.5-1.5-0.7-2.3C407.3,333.6,406.7,334,406.1,334.4z
			 M307.2,504.9c0.7,0.1,1.3-0.2,1.7-0.8C308.1,503,307.3,504,307.2,504.9z M303.9,524.1c-0.2,0.5-0.2,1.1-0.3,1.6
			c1.7-0.2,0.7-0.8,0.9-2C304.3,523.9,304.1,524,303.9,524.1z M419.7,307.9c-1.3-0.1-0.8,1.8-0.4,2.6
			C419.4,309.6,419.6,308.7,419.7,307.9z M325.1,478.5c0.2-1-0.1-1.6-0.8-1.7C324.2,477.5,324.2,478.4,325.1,478.5z M327.4,477.3
			c-0.5,0.7-0.9,0.9-0.3,1.6c0.5-0.4,0.7-0.9,0.8-1.5C327.8,477.4,327.6,477.3,327.4,477.3z M448.1,242.6c0.4-0.1,0.8-0.2,1.1-0.3
			c-0.3-0.9-0.8-1.4-1.5-0.8C447.9,241.8,448,242.2,448.1,242.6z M444.5,254.3c-0.3,1.5,0.9,0.7,1.5,0.8c-0.1-0.4-0.6-1-0.9-1.2
			C444.9,254,444.7,254.1,444.5,254.3z M423.7,303.2c-0.2,1,0,2.4,0.6,2.8C424.5,304.8,424.7,303.7,423.7,303.2z M308.5,522.3
			c-1.2,0.9-1.3,1.6-0.4,2.1L308.5,522.3z M535.4,72.3c-0.8-0.1,0,1,0.1,1.1c0.8-0.5,0.9-1,0.3-1.6C535.7,72,535.6,72.1,535.4,72.3z
			 M302.1,503c0.6-0.3,1.2-0.5,1.7-0.8C303.2,501.3,302.1,501.7,302.1,503z M327.9,487c-0.5,0.1-1.1,0.2-1.6,0.3
			C327.2,488.1,327.7,488.2,327.9,487z M308.5,491.2c-0.2-0.4-0.6-0.8-0.9-1.2C306,491.1,307.4,492.1,308.5,491.2z M449.5,256.2
			c-0.5,0.6-0.6,1.3-0.4,2.1L449.5,256.2z M309.4,491.6c-0.2,0.1-0.4,0.1-0.6,0.2c0.3,0,1.4,1.5,1.6,0.3
			C310.4,492,309.6,490.8,309.4,491.6C309.4,491.8,309.5,491.5,309.4,491.6z M483.5,167.3c1.2,0.2,1.3-0.8,0.8-1.5
			C483.8,166.2,483.6,166.7,483.5,167.3z M333.7,468.8l0.9,1.2C334.7,469.3,334.6,468.5,333.7,468.8z M456.2,232.7
			c-1.4-0.2,0.5-1.7-1.6-0.3C455.1,232.5,455.7,232.7,456.2,232.7z M308.4,488.5c-0.7-0.1-1.4-0.2-2.1-0.4c0.6,0.4,1.3,0.7,2,0.9
			C308.3,488.8,308.3,488.7,308.4,488.5z M312.5,498.8c-0.7-0.1-1.1-0.3-1.6,0.3c0.4,0.2,1.1,0.3,1.6,0.3
			C312.4,499.2,312.5,499,312.5,498.8z M396.3,353.7c-0.4,0.3-0.5,0.8-0.3,1.6L396.3,353.7z M420.3,304.7c-0.3,0.4-0.7,0.3-0.7,1
			C420.3,305.9,420.1,305.4,420.3,304.7z M313.3,506.5c-0.2-0.4-0.6-0.8-0.9-1.2C312.2,506.1,312.8,506.1,313.3,506.5z M310.7,518.4
			c-0.6-0.1-1.1-0.1-1.6,0.3C309.7,518.7,310.3,519.7,310.7,518.4z M312.1,482.2c-0.4,0.2-0.8,0.6-1.2,0.9c0.7,0.1,1.5,0.1,2.2-0.2
			C312.8,482.7,312.5,482.4,312.1,482.2L312.1,482.2z"/>
			</clipPath>
	 </defs>

	<line clip-path="url(#signature-right-clip)" x1="590" y1="0" x2="288" y2="545.5" class="footer__signature__graphic__path footer__signature__graphic__path--right"/>
</svg>
