<?xml version="1.0" encoding="utf-8"?>
<!-- Generator: Adobe Illustrator 17.1.0, SVG Export Plug-In . SVG Version: 6.00 Build 0)  -->
<!DOCTYPE svg PUBLIC "-//W3C//DTD SVG 1.1//EN" "http://www.w3.org/Graphics/SVG/1.1/DTD/svg11.dtd">
<svg version="1.1" xmlns="http://www.w3.org/2000/svg" xmlns:xlink="http://www.w3.org/1999/xlink" x="0px" y="0px" width="721.9px"
	 height="580.5px" viewBox="12.1 -19 721.9 580.5" enable-background="new 12.1 -19 721.9 580.5" xml:space="preserve">

	 <defs>
	 	<clipPath id="signature-across-clip">
	 		<path d="M323.8,288.4c0.6-0.9,3.2-1,4.1-1.1c-0.6,0.6-1.1,1-1.7,1.6c2.8-0.3,5.7-0.7,8.4-1.4
			c4-0.9,7.6-3.1,11.7-3.6c4.3-0.7,8.9-0.7,13-2.4c3.4-1.4,6.6-1.4,10.2-1.9c2.4-0.3,4.5-1.5,6.8-2.4c4.1-1.1,8.8-1.5,13-1
			c3.6,0.3,5.8-2.4,9.3-2.7c3.8-0.3,7.4-1.7,11.1-1.8c3.1-0.1,5-1.8,7.6-2.8c4.1-1.7,8.9-2,13.2-3.1c6.8-1.6,12.9-2.7,19.9-2.8
			c2.7,0,5.1-0.6,7.6-1.8c3.9-1.8,5.3-3.2,3.3-6.9c-1.5-2.8,11.6-6.9,13.4-4.3c0.1-3.8,0.2-3.3,3.9-4.3c2-0.6,1.7-1.5,3.4-2.3
			c2.4-1.3,6.1-2,8.9-2.8c-1.3-0.5-2.3-1.1-3.5-1.7c3.4-2.5,7.7-3.3,11.7-1.8c-2.2,0-4,0.6-6.1,1.3c1,1.4,3.8,1.1,5.2,0.7
			c1.5-0.5,1.7,0.3,3.1,0.8c1.9,0.7,3.1-1.1,5-0.5c-0.3-1.5-6.1-7.1-1.8-8c1.6-0.3,3.4-0.1,5-0.6c1.1-0.3,1.8-1,2.5-1.3
			c-3.3-0.6-6.7-0.7-10-0.9c0.1-4.5,11.7-0.3,9.9-6.1c-2.2-2.4,1.9-2.2,3.3-2c1,0.5,1.9,2.2,2.7,3.1c-1.1,0.3,0.1,0.9-0.5,1.8
			c2,0,4-0.1,6-0.1c-1.3-1.5-3.1-2.3-4.3-3.6c2.3-0.2,4.7-0.2,6.9-0.8c1.5-0.3,2-1.4,3.4-1.9c3.5-1.5,7.2-0.5,10.8-0.5
			c0.9,0,6-1.5,6.1,0.7c0.1,2.8-6.7,4.5-8.8,4.7c0.2-0.7-0.1-1.5,0.1-2.2c0.1,0-3.8,0.5-3.1,1.1c0.5,0.5,0.9,1,1.4,1.5
			c-0.1,0.8-0.5,2.2,0.2,2.8c2.3,2.5,8.3-1.5,10.7-2.2c-3.1-3.4-0.5-3,2.3-2.6c2.2,0.3,6,2,7.1-0.7c-1.4-0.6-2.8-1.3-4.3-1.5
			c1.7-1.3,4-1.5,5.8-2.7c-1.5-0.6-2.5-1.6-4-2.2c3-2.2,3.6-3.9,7.7-2.8c-0.3,0.3-0.5,1-0.9,1.4c1.8,0,5.2,0.8,4.8-1.7
			c-0.8-3.4-4.5-3.2-5.8-5.7c-1.3-2.4,10.1-5.1,5.5-0.3c2.4,0,6.5,0.7,7.7-1.8c1.4-3-5.1-3.2-3-6.6c3.5-0.5,7.1-0.7,10.5-1.5
			c2.8-0.7,6.1-1.5,6.8,2.4c0.7-3.6,3.1-1.6,5.7-1.7c4.1-1.9-0.8-1.8-0.7-4.2c-1.8,0.6-3.4,1.4-4.9,2.5c-1-1.1-2.5-1.6-3.5-2.7
			c2.6,0.5,6,0.8,7.7-1.7c-1.5-1.6-6.7,0.9-8.4,1.4c-1.8,0.6-3.5-1.6-5.3-1.7c-1.7-0.1-4.3,1.3-6,1.7c-2.8,0.8-5.7,1.6-8.5,2.5
			c-2.3,0.7-4.5-1.7-5.8,1.7c-1.4,3.9,6.5,2.6,8.1,2.8c3.6,0.6-4.3,3.6-5.3,4c-2.2,0.7-5.7,2.6-7.5,0.6c1.6-0.2,3.5-0.3,4.9-1.1
			c1.4-0.8-0.7-2.3-1-3.2c-0.3-0.9-0.1-2-0.9-2.6c-1.4-1-3.8-0.7-5.3-0.5c1.5,3.2-15.4,4-17.9,4.1c0.8-0.6,1.6-1.4,2.2-2.3
			c-1.8,0.3-6.1,1.1-7.6-0.5c6.6-1.9,13.4-2.8,20.1-4.8c1.5-0.5,2.8-0.8,4.1-1.6c0.8-0.6,1.6-1.1,2.3-1.9c0.8,0.5,1.7,0.7,2.6,0.8
			c2.7,0.2,4.7-2.8,7.2-3.6c-5.6-2.2-11.6,1.9-17.4,2.6c-2.5,0.3-4.5,1-7.1,1.5c-2.2,0.5-3.8,1.8-4.1,4.1c-1.9-0.8-3.6-1.9-5.6-2.7
			c-0.2,3.8-5,2.4-7.7,2.5c-3.1,0.1-5.9,1-9,1.3c-1.7,0.1-3.5-0.8-5.1-0.6c-3.4,0.5-6.6,2.5-9.9,3.8c-4.2,1.5-8.3,2.5-13.2,3
			c-5.2,0.6-12.3,0.1-16.5,4.1c2.3,1,8.1-1.9,10.6-3.1c0.3,3.5-3.9,3.2-6.3,4.5c-2.6,0.8-4.8,4-7.7,2.8c0.5-0.7,0.9-1.4,1.3-2
			c-1.9-0.7-4,0.9-5.8,1.6c-2.2,0.8-3.4,0-5.5-0.3c-3.8-0.6-7.5,0.6-11.4,0.2c-10.2-1-20.5,4.5-30.3,7.3c1.7,1.9-0.2,1.4-1.6,1.8
			c-1.9,0.6-4.8,2-6.4,3.3c-2,1.6-3.4,2.4-6,2.3c-1.3-0.5-1.5-2-3.2-2.4c0,0-1,1.7-1.3,1.9c-1.4,1.8-4.5,1.8-6.6,1.9
			c1.9,0.8,6.9,2.8,2.6,4.1c-2.4,1.1-7.5,1.1-7.1,4.8c-2-0.3-4.2-0.1-6.1,0.9c-0.8,0.5-1.4,0.9-2,1.5c-1.4-0.2-2.8-0.3-4.2-0.1
			c-1.7,0.2-3.3-0.5-4.7-0.6c-2.4,0-4.9,0-7.3-0.1c2.8,0.8,5.5,2,8.4,2.5c-2.6,0.8-5.1,1.5-7.7,2.3c-1.6,0.5-2,1.6-3.1,2.4
			c-1.5,1-5.6-0.5-4.2-0.8c-1.8,0.5-3,0.8-4.4,1.9c-3.2,2.4-6,1.4-9.4,2.4c-3.3,0.9-2.6,5.9-6.8,6c-1.6,0-3.1-1.1-4.8-1
			c-1.1,0-1.1,2.2-1.6,3c1.1,0.2,2.2,0,3.2,0.1c-2.4,1.1-3.3,1.3-5.6,0.2c-2.5-1.1-2.8-0.9-5.3,0.2c-1.3,0.6-2.5,1.1-3.9,1.7
			c-3.6,1.4-7.5,1.3-11.4,1.6c-4,0.3-7.8,1.7-11.8,2.2c-16.8,2.2-33.4,5.6-50,9.2c-8,1.7-16,2.5-24.1,3.6c-3,0.5-7.8,1-9.6,3.4
			c-2.2,3-6.8,3.3-10.1,4.4c-8.1,2.8-16,4.8-23.9,8.3c-3.2,0.9-4,3.5-6.6,5.3c-3.1,2.2-7.1,4-10.8,5c1.3,0.7,5.6,3.1,3.6,5.1
			c-2.4,2.6-5.6,2-8.8,2.7c-2.4,0.5-10.2,3.8-12.3,1.5c1.6-0.5,3.3-0.9,4.9-1.4c-2.6-0.5-5.3-0.7-8.1-0.9c1,2.3,2.5,4.4,3.5,6.7
			c0.9,1.9,1.7,1,3.5,0.5c0.8-0.2-0.1-1.8,0.3-2.3c1.1-0.3,6.7-2,7.3-1c-2.5,0.7-4.2,3.1-6.9,4.1c-4,1.5-9.2,1.4-13.4,0.7
			c1.6,1.4,4.1,1.4,5.9,2c-0.6,0.6-0.7,1.1-0.5,1.8c-0.6,0.1-0.9,0.5-1.3,0.9c-0.7-0.8-1.5-1.6-2.2-2.4c-1-1.1-4.4,0-5.8,0.3
			c-0.7-3,6-4.3,7.8-5c-1.4-1.6-5.5-2-7.1-0.9c-0.7,0.6-0.1,1.4-1.1,2c-1.9,1.1-4.3,0.3-6.4,1c0.9,1,2.3,1.4,3.2,2.4
			c-2.3-0.3-3.4-0.2-5.9,0.1c-2.5,0.3-9.1,0-10.8,1.6c-0.9,0.9-0.5,3.3-1.4,3.5c-1.6,0.5-3.1,0.9-4.7,1.4c1.6,1.8,3.9,1.9,2.3,4.3
			c-0.8,1.3,3.3,1.4,4,1.5c-1.6,2.4-1.8,3.8-4.7,5.1c-0.1-1.6-0.6-4-2.6-3.2c-1,0.5-1.5,1.4-2.6,1.6c-1.6,0.3-3.3-0.3-4.8,0.8
			c-2.5,0.7-4.1,1.3-5.2,3.5c-1,2.2-0.2,2.8-1.6,4.9c1.4,0,2.7,0,4-0.1c-0.9,0.2-1.6,1-3.2,0.3c-1.8-0.7-4.1-0.1-5.8,0.1
			c-5.2,0.7-9.1,2.5-13.6,5c9,1.5-2.8,3.3,1,5.7c-1.7-0.2-3.9-0.1-4.7,1.6c-1,2.2-4.3,0.9-5.9,0.3c0.3,2.8,3.2,3.9,5.7,4.9
			c2.6,1.1,8-0.8,10-2.6c0.8-0.8,1.5-1.9,2.7-2c1.5-0.1,2.8,0.7,4.4-0.1c3.8-1.8,8.1-3.2,12.4-3.3c-1-0.3-2.8-0.8-3.5-1.7
			c4.1-1.8,6.3,0.9,9.8-2.8c2.5-4,9.4,1.1,11.7-1.8c-0.7-0.3-1.4-0.7-1.9-1c1.1-1.8,0.5-3.1,3-3.2c1.9-0.1,4-0.2,5.9-0.2
			c1.7,0,9.4-1.3,10.5-0.2c1.7,1.9,2.4,1.3,4.2,0.7c3.8-1-3.4-4.7-3.9-4.9c0.8,0.1,2.2-0.5,2.8-0.2c0.8,0.8,2,2.5,3.3,1.6
			c2.5-1.9,4.7-4.4,8.4-3.3c-1.6,0.9-3.1,1.9-4.5,3c2.7,0.5,6.1,0,8.6-1.3c0.8-0.3,1.6-1.7,2.4-1.9c1.8-0.6,1.3-0.5,3,0.2
			c1.1,0.5,4.9-2.5,6-3.3c0.9,0.1,4.8,1.4,5.2,1.3c1.8-0.6,3.1-1.8,4.5-3c-1-0.3-2.8-0.8-3.5-1.7c3.5,0.1,6.8-0.5,10.1-1.7
			c2-0.7,4.1-1.4,6.1-1.9c1.7,0.7,3.5,1.5,5.1,2.3c0.3-1.3,0.5-2.6,0.6-4c1.6,0.2,2.6,0.9,4.2,0.7c1.8-0.3,3.2-1.4,4.9-1.8
			c1-0.2,2-0.3,3.1-0.1c0.3-0.6,0.9-1,1.5-1.4c0.8-0.5,1.7-0.6,2.5-0.8c2.5-0.7,4.9-1.4,7.4-2.2c3.4-1,6.4-0.3,9.8-0.7
			c2.4-0.2,6.5-3.1,7.7-0.6c0.5-0.1,2.8-1.5,3.1-1.1c0.2,0.3,4.2,0.1,4.7-0.6c4.2-1.3,8.3,0,12.5-0.7c4.4-0.7,7.5-3,11.4-4.9
			c5.6-2.7,11.6-4.7,17.5-6.5c2.5-0.7,4.9-1.5,7.4-2.2c1.9-0.6,3.6,0.6,5.3,0.1c1.3-0.3,0.9-1.9,2.2-2.3c2.2-0.7,4.3-1.3,6.5-1.9
			c3.5-1,9.9-0.6,12.6-3.1c2.2-1.6,4.9-0.9,7.3-1.6c1.6-0.5,1.1-1.4,3-0.9c1.6,0.3,3.1,0.3,4.7,0.8l0,0l0,0l0,0l0,0l0,0l0,0l0,0l0,0
			l0,0C323.6,290.9,323.4,289.2,323.8,288.4C324.2,287.9,323.6,288.8,323.8,288.4z M478.7,236.6c-1.5-0.5-3-1.3-3.5-2.7
			c2.5,0.5,5.1,0.1,7.6,0.5c-0.7,0.3-1.4,0.8-2,1.1c2-0.2,4.4-0.2,6.5-0.8c0.8,2.3-3,2.2-4,3.3c-2,2.4-2,1.9-5.1,1.5
			C479.8,238.8,480.8,237.2,478.7,236.6C476.8,236,480.6,237.1,478.7,236.6z M548.2,216.7c-1.1-0.6-2.3-1-3.4-1.5c2,0,4.1-0.9,6-0.1
			c0.5,0.5,0.6,2.4,0.7,3.1C550.5,217.7,549.4,217.3,548.2,216.7C547.1,216.1,549.4,217.3,548.2,216.7z M153.2,331.8
			c-0.8,0.2-4.2,1.8-4.9,1.4c-1.1-0.6,0.9-2.2,1.4-2.6C150.9,329.3,152.2,330.7,153.2,331.8z M660.7,200.2c3.1-0.9,5.8-0.7,8.9-0.8
			c2.7-0.1,4.7-2.2,7.4-1.7c3.5,0.6,6.8-0.5,10.1-1.4c3.3-0.8,7.1-0.9,10-2.7c1.9-1.1,4.1-3.8,3.6-6.1c-0.2-1.1-0.6-2.3-0.6-3.5
			c-0.1-1.6,1-2.8,0.7-4.4c-1.3-5.3-13.9-6.4-17.9-7.4c-5.7-1.5-12.3-4.7-18.2-4.5c-6.4,0.1-13.2-5.3-19.2-1.6
			c-4.7,3.3-12.1,2.6-17.5,4c-1.4,0.3-2.7,0.6-4,0.7c0-1.8-1.8-3.1-2.3-4.8c-3.2,0.9-2.2,3.4-0.2,5.5c-1.9,0.6-3.8,1.1-5.7,1.7
			c3.2,0.1,12.5-1.7,12.4,3.5c-0.6,1-6.1,1.8-7.4,2.2c2.4,0.3,4.8,0.8,7.2,1.1c-0.3,1-1.7,3-1.6,4c0.2,1.6,3.3,3,4.4,3.9
			c3.5,2.5,7.2,5.8,11.4,7.2c4.1,1.4,8.2,0.1,12.3,0.1c4.1-0.1,7.3,0.8,11,2.7c-1.7,0.5-3.9,1-5.3,2
			C660.5,199.9,660.6,200.1,660.7,200.2z M575.4,177.1c0.8,0.9,1.6,1.7,2.3,2.6c-2.8,0.8-5.7-3.8-8.1,0.1c0.7,0.1,5.6-1,3.6,0.9
			c-1.1,1.3-4.4,0.5-5.7,0.2c-0.1,1.7,0,3.2-1,4.7c4.5-2,8.8-3.3,13.9-3c1.5-0.3,2.2-1.3,3.5-1.9c2.5-1.1,5,1,6.7-1.6
			c1.7,1.3,3.5,0.1,5-0.8c2-1.1,5.9,0.3,7.3-1.7c-4.1-0.7-8.1-0.6-12.1,0.3c-2,0.5-4.1,0.7-6.1,1.3c-2.4,0.6-4.3-0.3-6.7-0.8
			c0.6-0.6,1.1-1,1.7-1.6C578.2,176.3,576.8,176.8,575.4,177.1z M598.1,195.6c1.1-0.8,2.6-1.1,3.9-1.4c2.4-0.5,1.4-0.7,2-2.2
			c0.7-1.4,2.6-1.5,4-1.5c1.6-0.5,3-1.4,4.5-1.8c-0.8-0.1-1.5,0-2.3,0c-1.9-0.1-0.1-1.9-2.4-1.6c-1.8,0.2-3.2-0.3-4.9-0.9
			c-1.9-0.6-1.8,0.2-3.3,1.1c-1.3,0.8-4.9,0.8-5.6,1.9C593.3,190.5,597.3,194.6,598.1,195.6z M51.3,353.3c-4.3,0.6-8.3-1.4-12.3,1.1
			c5.9,0.5,11.7,1.3,17.6,1.4C56.1,353,54,353,51.3,353.3C50.1,353.5,52.5,353.2,51.3,353.3z M200.7,325.9c1.6-0.6,3.5-1.6,3.5-3.5
			c-4.2,0.5-8.4,1.5-11.8,4C195.3,326.8,198.1,326.8,200.7,325.9C203.1,325,198.5,326.7,200.7,325.9z M183.2,328
			c-1.5,1.3-3.4,1.6-5.3,1.5c3.3,1.6,8.6,2,10.9-1.6C187.1,327.2,184.8,326.6,183.2,328C181.8,329.1,184.6,326.8,183.2,328z
			 M90.8,359.6c3.4-0.3,6.7-1,10.1-1.3c-1-0.5-1.9-1-2.7-1.9c-1.1,0.3-1.9,1.1-3.1,1.5C94.6,358,90.3,359,90.8,359.6z M614.3,173.5
			c-3.6,0.3-6.9,1.6-10.6,1.9C607.4,176.3,611.3,176,614.3,173.5z M510.9,227.9c2.5-0.7,5.1-1.5,7.7-1.7c-1.5-0.2-2.8-0.6-4.2-1.1
			c-2-0.8-2.6,0.7-4.3,1.9C510.4,227.2,510.7,227.5,510.9,227.9z M530.5,223.2c0.9-1.5,6-2.7,3-4.7c-1.1,1.7-2,2.6-3.8,3.8
			C529.9,222.6,530.2,223,530.5,223.2z"/>
	 	</clipPath>
	 </defs>

	 <line clip-path="url(#signature-across-clip)" x1="0" y1="380" x2="712" y2="166" class="footer__signature__graphic__path footer__signature__graphic__path--across"/>
</svg>