<svg xmlns="http://www.w3.org/2000/svg" width="721.9" height="580.5" viewBox="12.1 -19 721.9 580.5"><defs><clipPath id="signature-left-clip"><path d="M249.2 316.9c2.3 3.4-4.1 7.6-5.7 10.7-.5.9-.6 5.1-2.6 4.8-1.1 2.5-2.6 4.7-3.7 7.2-2.8 6.4-4.8 13.4-8.4 19.5-2.5 4.1-4.2 8.9-6.1 13.3l-3 6.9c-1.1 2.9-1.4 6-2.7 8.8-1.4 3-2.4 5.8-3.2 9-.4 1.5-.6 4.4-1.5 5.7-.9 1.3-.3 1.3-.5 2.8l-.9.6c-.6.3-.8.9-.6 1.8-1.9 7.4-4.1 14.7-5.4 22.3-.3 2-.7 4.1-1 6.1-.1.4-.7 2.5.1 2.7.5 1 .5 2.3.4 3.4-.2 2.1.1 2.9 1 4.8 1.9 4.1 2.1 8.6 1.3 13.1-.2 5.6 6.9 6.9 11.3 6.2 3.6-.3 9.8.9 12.8-1.3 2.3-1.6 4.6-3.3 6.9-4.9 2.9-2 4.4-4.1 6.6-6.6.8-.9 1.8-1.4 2.5-2.4 1-1.4 1.1-1 2.8-.7.1-.8-.3-1.4-.2-2.2 1.2.2 1.3-1.3 2.2-.2.9-1.2 1.1-2.6 1.8-3.7.9-1.2 2.1-1.5 2-3.1-1.2.9-2.4 1.7-3.7 2.6 1-1.9 2.1-6.6 4.8-6.1-1.3-1.7-1.2-3.8 1.6-2.9-.4.6-2.1 2.8-2.2 3.4 2.4 1.8 2.7-2.5 3.7-3.9s2.2-2.4 2.5-4.1c.2-1.3.8-1.3 1.7-2.4.9-1.2 1.5-2.9 2-4.3.8-2.2 2.3-5.8 4.6-6.8-2.2-1.6-4.7-1.2-7.1-2.3 1.1-.2 6.2.7 6.7-.6.5-1.4-3.6-.8-4.6-2.2.4-2.5 2.7.2 3.6.6 1.5.7 4.9-3.1 5.1-4.5-.6-2 1.5-3.3 1.9-5 .2-.7 0-1.4.1-2.1.2-1 1.1-1.5 1.2-2.5 2.7-3.7 2.8-9 4.6-13.4.9-2.3 2.7-4.3 3.1-6.7.9-2.4 1.6-4.8 2.4-7.2.3-.9.6-2.4 1.2-3.2.5-.6 1.2-.9 1.6-1.8.6-1.5.3-3.6.6-5.3.1-.8 1-1.4 1.3-2.2.4-1 .5-2.1.9-3.1.5-1.3.7-2.5 1-3.9.1-.8 1.9-1.9 2.7-3 1.3-2.5 2.6-5.4 3.5-8.1 1-3.1 3.2-5.4 4.4-8.5 1-2.6 1.8-5.2 3.1-7.6 2.1-3.9 2.3-8 4-12 1.7-4 5.7-7.9 9.2-10.6 3-2.3.7-5.1 2.6-8 1.4-2.1 2.3-4.4 3.1-6.7.7-2.2 1.2-5.9 3.2-7.3 2-1.5 2.8-1.9 3.4-4.4.7-2.6 1.4-5.3 2.1-7.9.7-2.6 3.7-10.8 2.1-13.3-1.4-1.9 2.1-7.8 3.1-9.7.7-1.2 1.2-2.5 1.8-3.7.9-1.9 3.2-4.2 3.5-6.2.7-1.8 1.2-3.8 1.9-5.6.7-1.9 3-4.3 2.7-6.4-.7-3.7 3.7-6.8 5-10.1.3-.5.2-1-.1-1.6 0-1.4 1-2.5 1.6-3.6 1.1-2.1 1.7-4.4 2.5-6.6.1-.4 2-4.2 1.5-4.3.6.1 1.4-3.3 1.7-3.7 1.1-1.7 2.1-3.5 3.1-5.3.4-.7 1.3-1.8 1.4-2.6.1-.6.7-.1 1.1-.8 2-3.7 2.8-7.6 4.7-11.3.7-1.3.7-2.7 1.2-4.1 1.9-1.3.8-3.7 1.6-5.6.9-2.1 2-1.7 1.8-4.4-.3-2.9.5-5.8 1.5-8.5 1.1-2.9 2.7-5.6 3.5-8.6.5-2 1.2-3.9 1.6-6 .5-.8 3.1-2.7 3.2-3.2 1.2-3.2 3-7.2 2.5-10.7-.2-1.4.1-3-.5-4.2-.9-2.2-3.5-2-4.7-3.8-3.2-.6-4.3-10.1-4.5-12.8-.1-1.8-.1-4.3.2-6.1-1.4-1.9-4.2-2.8-6.3-3.8 1.5 4.9-2.6 2.4-1-.7 2.2-2.5-.7-2.8-2.7-3.1 1.1-1.5 1.1-3.4 1.9-5-.5.4-2.8.9-3 1.6.1.4 0 .7-.3 1-1.5 1.4-.9 0-1.3 1.9-1.1.5-2.2.3-3.1-.5 1.2-1.2 2.2-2.6 3.2-4 1.3-1.7-.1-1.6.7-3.4 1 .1 1.5.5 2.3 1.1 1.2.9 2.8-.4 4-1.1 1.6-.9 1.2-3.2 2.9-3.7.4-.4 1.9-1.5 2.8-1.5 6-.5-1.9-4.4-4.3-4.8-.9-.1-1.9-.1-2.8.2-.3-.4-1.2-1.9-2.1-1.5-1.2.6-4.6 4.1-5.8 3.8.4-2.5 3.4-2.7 2.5-5.5-2.4.7-4.5 2.4-6.1 4.3-1.7 1.2-2.2 1.1-3.4 2.9-2.5 3.9-4.3 8.4-6 12.7-4.3 10.5-8.7 21.1-13 31.7-4.1 10.1-7.4 20.5-11.1 30.7-1.6 4.4-4 9-5.2 13.5-.6 2.3-2.7 3.3-3.4 5.6-.6 2-.3 4.2-1.3 6.1-.5 1-1.3 1.8-2.2 2.4.5.8.8 1.7.6 2.7-.4 2.2-2.7 3.4-3.1 5.5-.5 1.3-.5 2.4-1.1 3.7-.6 1.3-.9 2.7-1.8 3.8-.7 1.4-.3 3.2-1.3 4.4-.9 1.1-.2 1.1-.6 2.5-.4 1.2-1.2 1.9-2 2.8-.7.9-1.1 2.7-1.5 3.8-.8 2.3-.8 4.4-2.9 5.9-1.4 1-2.4 2.8-3.4 4.1-.9 1.2.3-.3 0 1.4.1.3.3.6.4.9-.5.7-.9 1.4-1.1 2.2-.3 1.7.5 3.4-.2 5.2-.9 2.4-1.9 4.9-2.8 7.3-.5 1.3-2 1.8-2.5 3.3-.7 1.9.3 2.7-1.6 4.2-1.7 1.4-.5 3.7-2.4 5.4-.7 1.6-.9 2.7-1.9 4.3-.9 1.3-1.7 2.8-2 4.4-.1.8-.2 1.6-.2 2.4-.5.3-.9.8-1.1 1.4-.9 3-.4 6.7-2.8 9.1-1.1 1.1-2.1 1.5-2.8 2.9-.6 1.1-.9 2.1-1.4 3.3-.6 1.3-.3 2.9-.9 4.1-.6.5-.9 1.1-.9 1.9-.2 1.2.6 2.6.2 3.6-.4 1.2-2.5 1.1-2.7 2.6-.3 1.6-3.1 2-4.2 2.6-2.8 1.5-5 3-7.5 5.1-1.9 1.6-2.7 2.4-3.3 4.8-.5 2.4-1.3 2.7-2.8.5 1-.7 4.3-3.3 5.7-2.1 1.3 1.2-.2 4.3-.7 5.5-2.1 5.7-5.9 11.5-10.4 15.8.2.2 7.5-7.1 0 0zm126-158.1c-2 1.3-.6-2.7.5-1.3 0 .6-.1 1-.5 1.3zm-3 4.9c.3.2.6.5 1 .7-.3.3-.8.7-1.2.9 0-.6 0-1.2.2-1.6zM209.3 441.5c.1-.8.5-1.1 1.2-.9-2 1.5.1.7-1.2.9zm3.3 2.7c-.3-.1-.7-.1-1-.2.4-.7.8-.6 1 .2zm2.1.4c-.8-1.1-1.2-2.2-1.5-3.5.7.1 1.4-.3 2.2-.2-.3 1.2-.5 2.5-.7 3.7zm13.8-36.8c.9.2 1.8.4 2.5 1-.9-.1-1.7-.3-2.6-.4 0-.2.1-.4.1-.6zm-11.6 39.8c-.3-.9-.2-6.5 1.8-4.5.6.6-.9 5.2-1.5 5.6-.1-.3-.3-.7-.3-1.1zm1.4 4c.3.1.7.1 1 .2-2.3 1.6-.7.2-1-.2zm1.7 5.7c-.8.2-1.5.6-2.3 1.2.2-1.4 1.1-1.8 2.3-1.2zm2.2-14.1l.6 1.2c-.6-.5-1.3-.9-1.9-1.4.5-.3.9-.3 1.3.2.1.3-.1-.4 0 0zm1.2 6.6c-.1.7-.1 1.5.2 2.2-1.5-.9-1.9-2.4-.9-3.9.6.4.8 1 .7 1.7-.1.7.2-.7 0 0zm11-57.6c-1.1.2-2 .2-2.7.1.8-1.1 1.8-1.3 2.7-.1zm-1.8 16.9c-.2 0-.3-.1-.5-.1 1.2-.9 2.6-1.1 3.1.5-.9-.1-1.8-.3-2.6-.4zm16.2-25.6c.1-.7.4-1.4.9-2 .7.5 1.6.8 2.5 1-.5 2.8-1.5 1.3-3.4 1zm9.3-26.3c-.5-.1-.6-1.2-.2-1.4.4-.3.2 1.2.2 1.4zm77.8-147.3c-.2-.8-.5-1.5-.7-2.3.9.1 1.7.3 2.6.4-.2 1.1-.9 1.8-1.9 1.9zm-4.3 25c-.1.7-.4 1.4-.9 2 .2-1.2-.7-2 1-2.5-.1.1-.1.3-.1.5zm6.1-15.6c.3 1.1-.1 1.2.6 2.1.6.8.6 2 .4 2.9-2-.3-2.6 0-3-2.2-.2-1.3-.4-2.6-.8-3.8.9-.3 1.9-.3 2.8-.6-.1.6-.1 1.1 0 1.6.1.4-.1-.3 0 0zm3.4-8.5c-.1.7-.9 1.3-2.4 1.7.2-1.3 1.1-1.9 2.4-1.7zm-1.9 15.5c.3.4.7.7 1.2 1-1.2 1.2-5.8-.4-6.7-1.7 1.4-1 1.6.3 2.8.5 1.4.2 1.4-1.5 2.7.2.2.2-.1-.2 0 0zm2.4-7.4c.3 1.1-3.2-1.6.4-1-.2.4-.3.7-.4 1 .1.4-.2-.3 0 0zm2.6-4.3c-1.7 2.8-3.3-.8-1.2-2.3.2.8.6 1.5 1.2 2.3zm-8.2 22.6c.1.2.3.4.4.6-1 .7-2.1 1.4-2.7 2.5-.8 1.4-.4 3.4-2.5 3 1.2-1.6 1.8-6.6 4.8-6.1zm.6-3.3c.7.3 1.3.1 1.7-.5-.3 1.7-2.1 1.8-3.5 1.5.3-.6.9-1.4 1.8-1 .6.3-.7-.3 0 0zm.2 6.2c1.4.2 1.3-2 2.3-2.3-.4 2.5-.3 2.6-2.7 3.3-.3-.7-.2-1 .4-1 .6.1-.5-.1 0 0zm-.6 2c-.1.3-.1.7-.2 1-.6-.4-.6-.8.2-1zm-2.7 18.8c.7.1 1.4.2 2.1.4-.1.8-.8 1.3-.9 2-.7-.5-1.3-1.2-1.8-1.9.2-.2.4-.3.6-.5zm5.4-24.8c.5-1.3.9-.4 1.6-.3-.5 0-1 .4-1.6.3zm3.3-11.4c-2.6-2.2-.2-3.2 1.2-5.4.4.6.9 1.2 1.3 1.8-1-.2-1.7.3-1.7 1.4.1 2.4 2 1.3 3.3 1.5.2 2.7-2.3 2-3.8 3.6.4-.9.6-2.2-.3-2.9-.8-.7.7.6 0 0zm4.4-5.4c.4.2.5.6.3 1.1-1-.2-1.5-.8-1.3-1.8.3.2.7.4 1 .7zm1.9-5.1c-.9.6-1.8.8-2.8.6.7-1 1.7-2.1 3-1.6-.1.3-.1.7-.2 1zm7.7-13.6c-1.1-.2-3 3-3.8 3.6-.4-.5-.7-1-1.1-1.5-.7-1-2.7.1-2.5 1.3.3 2 4 1.3 4.7-.1.7 1 .7 2.2.5 3.3-.9-.2-1.6-.8-2.5-1-1 1.2-2.4 2.1-4 1.5-.1 1 1.1 1.4 1.8 1.9-.6.3-1.2.5-1.7.8-.1.6-.3 1.1-.8 1.5-1.1-1.5-.8-4-3.4-2.2-2.1 1.5-4.4.4-3.4-2.2.8 2.5 3.8-.4 5-1.3.3.9 1.8 3.1 2.4 1.5-.4-.5-.7-1.8-1.4-2-1.1-.4-2 .1-1.7-1.7 1.3-.2 2.3.6 2.9 1.6.1-.8-.8-1.8-.7-2.3-.2-1.1.4-1.9 0-3.2 2.4.4 2.8-2.5 4.4-3.5 1.2 1.7 2.7 1 4.6 1.3 2.1.2 2.8 1.2.7 2.7zm-14.9 2.7c.6.8.5 1.3-.3 1.6l.3-1.6zm10.1-12.1c-.2 1-.1 2.7.8 3.1.2.1 2.5 1.2 1.6 1-2-.4-4.1-.7-6.1-1.1.2-1.1 1-2.1 1.6-2.9.6-.4 1.1.5 2.1-.1zm.3-4.8c-1.4-.2-1.7-.8-.8-1.7.5.5.7 1 .8 1.7zm-5.4 12.5c.1-.3.1-.7.2-1 1.6 2.3.2.7-.2 1zm3.6-20.8c.8.9.4 1.3-.8 1.5.5-.5.7-.9.8-1.5zm5.9 15.4c-.5-.4-4.4-1.9-2.4-2.8 1.2-.5 1.1.9 2.4-.2.7-.6 1.3-.7 1.9-1.5.8.1-.6 3.3-.6 3.9-.1 2 .8 2.6 2.7 2.9-1.7.7-5.1 0-4-2.3zm2.4-1.2c.2-.8 1.6-.9 2.2-.2-.5.6-.9 1.3-1.4 1.9-.2-.6-.5-1.1-.8-1.7zm9.2-13.4c-.9-.9-1-1.6-.2-2.2.6.7.7 1.5.2 2.2zm11.9-78.3c-.2.1-.4.3-.6.4-1.1-1.6-1.4-3 .6-3.6-.2 1-.3 2.2 0 3.2zM366 171.7c-.5-.7-2.4-1.5-1.6-2.6.9-1.2 1.7 2.3 1.6 2.6zm-2.9 4.3c.1-.7.4-1.4 1.2-.9-.4.3-.8.7-1.2.9zm.9 2.6c2.4-1.7 2.8 2.6 1.6 3-.8.3-2-.3-2.6-.7-1.5-.9-1.2-1.9-.2-3.3.3.6.7.9 1.2 1zm1.4-28.4c1.1 1.6 1.5 1.5.4 3.1-1.5 2.1-2.2-2.1-1.9-3.3.5-.6 1.7-1.1 1.5.2zm-.5 9c-.6 3.6-4.1.4-5.9.1.8-.5 1.6-.7 2.3-1.2.9 1.2 2.2 1.5 3.6 1.1zm-8.6.1c.8.6 1.4 2.9-.4 2.6-.3-.1-1.1-1.5-1.3-1.8.5.1 1.4-.8 1.7-.8zm-5.7 5.5c.6-.4 1.2-.9 1.8-1.3.2 1.3-.9 2-2 2.3 1 2.3 2.4.4 4.2.7 1-.8-.1-3.2 1.1-3.6-.4 1 .3 1.6.1 2.4-.3 1.6 1.9-.2 2.6.7 0-1.1.1-.6-.3-1.1.1-.7.4-5.4 1.6-4.8.1.1-.2 1.4 0 1.8.9.2 1.6.8 2.5 1-1.8 1.3-1.1 2.2.5 3.3-.6.3-1.2.5-1.7.8-.1.7 1.6 1 1 1.8-.7.9.4 1.7.6 2.5.3 1.1-.9 1.2-1.1 2.1-.2 1.2 0 1 .1 2.2.1.9-.8 1.1-.7 1.8.1.7.2 1.5.3 2.2.4 2.3 2 4.1 3 6.2-.8-.1-2.4-.8-3.1-.5-1.2.8-1.4 2.5-2.7 1.1-.8-.8-1-1.2-2.2-.4 1 .2 2.2 1.1 2.3 2-1.4-.8-2.5-.3-3.9.1-1.7.5-1.6 0-3.1-.2 2.3-.2 3-2.2 1.8-4 1.1-.3 5.7-2.3 5.9-3.3-2-.3-3.6.2-5 1.3-.1-.5-.2-1.1-.3-1.6.7-.5.9-1.2.7-2-.2-2.1-1.8-2.8-2.9-4.3 1.3-.2 2.5.4 3.6 1.1 1.1-.3 2.2-.2 3.3-.5-.4-.6-2.4-2-.6-2.5 1.1-.3-.4-2.7-.9-2.3-.3.1-.6 0-.7-.4-.5.4-1 .7-1.5 1.1-.5.3-2.5-1.6-2.6-1.8.4 1.3.5 2.6.9 3.9-3-1.3-3.7-4.9-4.6-7.7.6.3 1.3.2 2-.1zm13.6-88.7c-.7-.1-.9-.7-1.5-.8 1.1-.7 1.5-.5 1.5.8zm-23.8 122.8c1 .2 2.1.4 3.1.5-1.7 1.8-2.3 3.6-5 3.6-1.6 0-2.7-1.9-3.7-2.9.8-.6 1.6-1.1 2.4-1.7.2 1.3.5 2.6.9 3.9 1.5-.7 2.4-1.8 2.3-3.4zm-21.5 75.6c.1.4.2.8.3 1.1-.6-.3-1.1.5-.9-1.2.2 0 .4 0 .6.1zm-5.5 2.5c-1.4-.5-2.9-.8-4.4-1 2.7.5 6.4-.3 8.8 1.5-1.5.1-3 0-4.4-.5-1.2-.4 1.1.4 0 0zm5.3-7.9c.3-1.6-3-1.4-.9-3.2 2-1.7 1.5-.3 2.8.7 1 .9 2.7.6 1.9 2.7-.5 1.4-4.1 1.8-3.8-.2.1-.3 0 .3 0 0zm5.7-14c-.2-.8.1-1.4.9-2 .6.9-.1 1.6-.9 2zm3.1-21.5c-.8-.1-1.2-2.2-1.1-2.9.8.1 3 1.1 3.3 1.9.7 2.5-1.5 1.2-2.2 1zm5.2-24.2c.6.8.5 1.5-.4 2.1l.4-2.1zm3.9-28.8c1.1-.3 2.2-.2 3.3-.5-.9.9-2.1 1-3.3.5zm-.4 5.3c-.2 0-.3-.1-.5-.1.4-.3.8-.7 1.2-.9-.2.3-.4.7-.7 1zm-6.6 35.8c-.9.6-1.2 2.1-.5 3.1-1.6.5-3.2.1-4.5 1.4 1 1.2 1.8 2.4 2 4.1-1.4-1.5-3.4-5-2.6-6.9 2.2 1.4 3.7.5 4.1-2 .4.1.9.2 1.5.3zm-7 21.8c-.9.3-1.9.3-2.8.6.2-1.2.7-2.6 2.1-2.9.2.8.5 1.6.7 2.3zm-.8-4.9c-.6-.6-1.3-1.8.3-1.6-.1.5 0 1.1-.3 1.6zm7.5-25c-.2 1-.8 1.5-1.8 1.3.2-1.2.7-2.7 1.8-1.3zm-5.2 2.3c1.2-.5 1.8 1 2.9.5 2.3-1 .1 2.9-.3 3.2 1.2.4 1.4 1.9-.3 1.6.9-2.2-.7-3.1-2.8-2.6.2-.9.4-1.8.5-2.7zm-7.7 13.7c.4-.5.9-.9 1.3-1.4.7 1 .3 1.1 1.3 1.8-.8-.1-1.7-.2-2.6-.4zm3.2-15.5c.3.5.4 1.1.3 1.6-.9-.2-.9-.9-.8-1.7.2 0 .3.1.5.1zm-3.6 19.4c1.5-1.1 2.4-.9 4.1-.6-.6.8-1.4 1.5-2 2.3.8.1 1.3.8 2 .9-.2 1.4-3 1.1-3.9.9-.9.6-2.9 1.7-3.9.9.6-.8.7-1.7 1.1-2.6.6-1.1 1.6-1 2.6-1.8.6-.4-.6.5 0 0zm-1.5 10.2c-.2 1 .1 2.2-1 2-1.2-.2-2.3-.4-3.5-.6.5-2.7 2.8-1.7 4.5-1.4zm-2.3 5.8c-.3.6-.7 1.1-1.1 1.7-.7-.5-.8-1.4-.9-2.2-.3-2.1 1.6-1.5 3.1-1.2-.4.5-.8 1.1-1.1 1.7-.3.5.3-.5 0 0zm-2.3-10c-.1.3.7.3.4.9-.4-.5-.9-.7-1.5-.8.1-.1 1.3-1 1.1-.1zm-1.1 7.8c.3.7.1 1.3-.6 1.8-.7-.9-.3-1.9.4-2.6.1.3.2.5.2.8.2.2-.1-.2 0 0zm1.3 6.4c3.5.6 4-2.4 6.6-4.2 1-1.4-1.3-3.7 0-4.6.9-.6-.4-3.1 1-4.4.7 2.3.2 5.1-.2 7.5 1.3-.4 4.7-.6 1.9 1.4.4.3.8.3 1.2 0 1.3-.6 1.8-.8 3.1-.1 1.7.9 1.7 2.2-.6 1.8-.6-.1-2.1 1-2.9 1.2-2.3.7 1 2.2 2 2.3-.3.5-.5 1-.8 1.5-.9-.7-1.8-1.3-2.7-2-.4-.3-1.2 1.6-1.6 1.8-.2.1-1.2-.2-1.4-.2-.5-.1-3.2-.9-3.4.2-.4 2.3-3.4 2.9-2.7 5.6.8 3.1 2.5-.5 2.7-1.8.4-2.6.7-.3 2.3-1.5 1.2 1.7-.1 3.2.8 4.8 2.8 5-3.6 5.3-4.3 9.6-.7-.5-2-.8-2.4-1.5-.7 1-1.4 1.9-2.1 2.9-1-1.4-2.1-3.6-3.2-4.5-1.3-1.1-.5-4.7 1.5-4.4 1-2.6.5-5 .1-7.6-.3-1.9-.5-6.7 3-4.2.8.2 1.4.3 2.1.4zm-5.1-4.1c.1.4.2.8.3 1.1-1.1-.6.6.9-.9-1.2.2 0 .4.1.6.1zm-4 20.2c1 1.4-.4 2.4-.6 3.6 1.1.6 1.3 0 2.1-.4.6-.3 1.6 1.7 1.9 2.1-3.8 1.2-5.6.8-8.8-1.5 1.4-1 1.7-8 4.9-6.7.4.9.6 1.9.5 2.9zm-3.2-11.3c.1.4 1.4.4 1.9 1.1.3.4.3 1.5-.1 1.9-1.7.5-3.3.5-3.5-1.4 0-.9 1-3.8 1.7-1.6.1.4-.1-.3 0 0zm-9.4 37.5c.5-.6 1.2-1 2.3-1.2-.4.6-1.4 1.9-2.3 1.2zm-2.3 16.8c-.3.7-.1 1-1.2.9.4-.4.7-.7 1.2-.9zm-2.7 9.1c-.4-.3-.6-.8-.9-1.2.7-.2 1.5-.4 2.3-.7 1.5.3.7-1.5 2.3-1.2 1.2.2-.3 2-.4 2.1-1 .4-2.1.7-3.3 1zm-12.2 55.8c-1 .3-1.9.8-2.9 1.1 1.5.7 1.2 2.1.5 3.3-1.8-.3-3.5-.1-5.3-.4.7-1 .9-2.4 1.1-3.6 3.4 2.5 4-2.8 6.1-4.3-.4 2.2 1.8 1.9 3.4 2.2 0 .4-.1.8-.4 1-.8-.1 0 1.5 0 1.6-.9-.1-1.8-.4-2.5-.9zm-5.2 12.8c.3 0 .5-.1.8-.1-.4.6-1.4 1.7-1.6.3.3-.2.6-.2.8-.2.2-.2-.2.1 0 0zm.2 3.5c-.6.4-1.2.9-1.8 1.3.2-.9.8-1.7 1-2.5.6-.2 1.2 1.2.8 1.2zm-2.5-3.7c.3 3.6-3-.4 0 0zm-1.3-1.8c.7-.4.7-.9 1.6.3-.4.1-.8.3-1.1.3-.3-.2-.4-.4-.5-.6zm13.2-14.9c-1.7-.3-2-.9-.8-1.7.1.6.4 1.2.8 1.7zm10.5-70.5c-.1.7-.2 1.4-.4 2.1-.3-.3-.7-.8-.9-1.2.5-.3.9-.7 1.3-.9zm-2.6 2.8c.3.5.4 1.1.3 1.7-.3-.1-.7-.1-1-.2-.2-.9 0-1.6.7-1.5zm-2.9 16.6c.6.5 1.3.9 1.9 1.4-.9.3-1.9.3-2.8.6 1.9.6 1.3 1.6 1 3.4-1-1.4-2-2.8-3-4.3.8-.2 1.5-.5 2.3-.7-.7-1-2.1-.8-3.1-.5-.1-.7-.1-1.4-.2-2.2 1.6.3 3 1.1 4.6 1.3-.2.4-.4.7-.7 1zm-11.4 37.2c-.3.1-.6.3-.9.4.1-.6 0-1.1-.3-1.7.8.1 1.4.3 2 .9-.2.1-.5.2-.8.4-.2-.1.2 0 0 0zm-2.7 10.8c-.6-.5-1.3-.9-1.9-1.4.8-.1 2.2-.1 2.5 1-.2.1-.4.2-.6.4zm-9-3.7c1.4-.6 3.5 1.2 1.5 2.2-2.2 1-1.7-1-1.5-2.2zm-4 29.8c-.8.2-1.2-.2-1.4-1.3.5.4 1 .8 1.4 1.3zm1.7-7.2c-.2 1-.8 1.3-1.7.8.5-.5 1.1-.7 1.7-.8zm3.7-13.6c2.1-.3-1.1-2.4-1.4-2.7 1.9-1.3 3.3-3.4 5.6-1.7-.6.8-1.5 1.9-2.5 2.2.6.8 1.6 1.5 2.3 2-.8.3-1.6.7-2.3 1.2 1.3.9 2.5 0 3.8-.4-.1.7-.2 1.4-.4 2.1-2.2-1-4.9.1-6.7-1.7.5-.4 1-.8 1.6-1 .6 0-.5.1 0 0zm3.1 5.1c-.4.3-.9.2-1.6-.3l1.6.3zm-10.5 39.5c.9.9.8 1.6-.4 2.1l.4-2.1zm1-5.8c.9.3 1.2 1.1 1.8 1.9-1.4.9-2-.6-1.8-1.9zm7.7-.8c-2.4-.4-2.3.4-3.6 2.1-.8-.6-.1-1.6.4-2.1-1.3-.7-2.7-1-4.1-1.2 2.5-.8 5.1-.1 7.3 1.2zm-.2-14.5c-.6 3.4-1.3 1.4-1-.7.1.5.4.7 1 .7zm1 .2c1.1-.7 2.3.2.9 1.2-.3-.4-.7-.8-.9-1.2zm-4.2 21.2c-.6.8-1.2 1.8-2 2.3-.3-1-.4-2.3 1-2.5-1.3-1.8.5-2.8 1.8-4 3.2 2.4 1.9 3.5-1.6 2.9.2.5.5 1 .8 1.3zm3.3-22.4c-.4-.1-2.1-.3-1.9-1.1.1-.4 1.7-.3 2.2-.4-1-1.4-2.7.3-2.9-1.6-.1-.5-.3-.9-.6-1.2-1-.2.5-1.6.5-1.5.9 3 5.1.6 5.5 2-.5-.2-1.1-.2-1.6-.3.6.9.3 3.9 1.9 3.1 1.1-.5 2.3-.9 3.2-1.7-.5.7-.8 1.9-1.5 2.4-.9.7-3.6.5-4.8.3zm8.6-6.1c-1.3-1.8 1.1-1.9 2.1-1.1 1.6 1.3-.9 2.9-2.1 1.1zm8.9-4.9c-.9-.1-1.7-.3-2.6-.4.2.8.5 1.5.7 2.3-1.4-.8-.8-2.3-2.8-2.6-2.2-.4.3 4.3.3 4.3-1.9-.7-2.8-2.2-2.5-4.2-1-.7-3.4-.9-3.4-2.2 1.5.7 5.6-1.4 5.8-2.7 1.6 2.2-1.7 2.1-.6 3.6 1.7 1.6 1.3-.9 2.9-1.1.1-.7 1.7 2.1 1.3 1.8.3.2 1.2-.1 1.4 0 .7.1.8.9 1.6 1.1-1.8-.3-.9 3.6-3 1.6.2-.5.5-1 .9-1.5zm9.5-55.4c.4.4.5.9.3 1.4-1.1-.2-1.5-2.1-1.6-3 .3.7.7 1.2 1.3 1.6.3.3-.4-.2 0 0zm-1.1 3.3c.4-.3 1.1-.2 2.1.4-.8.5-1.9 1-2.1-.4zm-3.3 43.9c-1.6-.3-2.6-.5-2.3-2.1.1-.8 2-.1 2.7 0-.2.7-.3 1.4-.4 2.1zm7.1-46.1c-.3-.4-.7-.7-1.2-1 2.6-.5 3-2.7 5.7-2.2-.2 1-.4 2.1-.5 3.1-1.4-.2-2.5-.8-2.9 1.1-.3-.3-.7-.7-1.1-1-.1-.2.2.2 0 0zm-.7 15.1c2.9.5 2.1 1.6 3.6 3.8-.8-.5-1.6-.8-2.5-1-.6-.7-.1-1.9-1.1-2.8zm5-22.7c-.1.7.3 1.4.2 2.2.5-.7 1.2-1.3 1.9-1.8.3.3.7.8.9 1.2-.7.2-1.3.5-1.9.8-1.9.6-2.1-1.4-1.1-2.4zm2.4-.1c-.2 0-1.7.2-2.4.1.1-.5-.2-1.9.1-2.3 1.2-1.3 2.9 1.8 4.1-.2.3 1.2-.6 2.6-1.8 2.4zm2.2 1.4c-.3.3-.8.6-1.2.9.3-1.5 1-2.1 2.2-2.9 1.4-1 2.5.5 3-2.1.5.3 1 .5 1.5.8-.9 1.6-3.6 4.1-5.5 3.3zm10.7-37.3c1.6 2.3.1 7-3.2 6.4-1.9.1-3.9-.1-5.8-.5-.4.3-.4 2.1-.4 2.6 1.7-.4 3 .4 3.4 2.2.8 1.2 1.3.6 2.5 1.1s2.1 1.5 2.8 2.5c-1.3.9-2.6 1.9-3.7 3.1-.6 0-1.3-1.3-1.9-1.4-2.8-.5-4.8 5.1-2.5 5.5 1-1.9 2.2-2.3 4.2-3 2.1-.7 4.5 1.9 2.2 3.5-.2-.8-.5-1.5-.7-2.3-1.5 1.6-3.4 2.3-5.4 3.2-1.3.6-2.7 3.3-.7 4.3-1.6-.3-2.6-.4-2.3-2 .3-1.7-1.3-1.8-.9-3.9.7-1.5 1.4-3.7-.2-4.9-.4-.1-2.3.8-2.3 1.2-.3 1.7 2.4 1.2 2.3 2.7 0 1.3-2.9 1-4 .8-3-.5-3.1-3-3.9-5.5.8.1 2.1-.4 2.8-.6-1-.7-1.9-1.4-2.9-2.1.7-.2 1.2-.2 1.9-.3 1.4-.3 1-1.2 1.8-2.2-1.2-.2-2.5-.3-3.7-.1.2-1.4 2.3-1.8 3.4-1.1 1.4.9 1.3.5 2.7-.5-1.4-.5-2.3-1.7-2.7-3 0-.1-1.7-2.4-1.8-2 1.7-.5 2-2.3 3.1-2.7 1.1-.3 1.4.8 2 .9.7.1 1.4-.3 2.2-.2-.6-.8-2.3-3.5-.4-3.8 1.1-.8 1.5-.1 2.3-1.2.1-.6 1.3 0 1.6-.3-1.4-1.3-2.5-2.8-3.5-4.4-.1 0-4.7 5.7-4.1 2 .4-2.1 4.7-4.3 6.3-2.1.1-.5.2-2.9.5-3.1 1.4-.9 2.8 1.3 2.2 2.5-1.7 2.4-1 3.5-.2 5.9 1.2 4.1 2.9-1 3.2-2.7.8-4.5 4.8-8.8 7.4-2.9.6 1.3.2 3.1-1.8 2.8-.6 1.2-1.4 2.3-2.2 3.4-1.4-.2-1.8-1-3.2 0 .9.7 2.5 1.1 2.2 2.5.3.1.8 0 1.4-.3zm-4.3 9.5c-.9-.9-.8-1.6.4-2.1l-.4 2.1zm5.7 4.2c-.2 1 .6 2.1 1.1 2.9-1.2-.9-3.8-1.1-1.1-2.9zm3.2-6.4c-.8-.7-1.1-2.3.4-2.1-.2.7-.3 1.4-.4 2.1zm-.5-6.5c-.5-.1-1.1.4-1.6.3 1.2-.9 2.4-1.7 3.7-2.6-.2 1.1 1.2 4.6.8 4.9-1.1-.8-2.2-1.6-2.9-2.6zm5.2-8.3c-.2 1.4-1.1 2-2.4 1.7l2.4-1.7zm.7-4.1c1 .2 2.1.4 3.1.5-1 .3-2.2.7-3.3.5.1-.3.1-.7.2-1zm6.6-10.7c-1.6 1.1-1.5-.8-1.8-1.9 1.1-.3 1.6 1.3 1.8 1.9zm2.7-5.9c1.6-2.1-2 0-2.2.2-1 .7-1.5-.3-1.8 1.1-.1.8-.3 1.5-.4 2.3-1.7-2.3-.4-4.5.6-6.9 1.3 1.9 2.5 0 3.8-.4-.4 2.2 2.6 2.1 3.9 2.3-1.9 1.3-1.1.4-1.5 2.4-1-.3-1.8-.1-2.4-1zm1.9 4.6c-.6-.3-1.1-.7-1.4-1.3 1.3.2 1.5-1.5 2.8-.6-.8.4-1.2 1.1-1.4 1.9zm-2 1.8c.8.1 1-1.1 1.6-.3 1 1.4-.4 2.4-.6 3.6-.7-.5-2.3-2.7-1-3.3zm-31 34.3c1.3-1.8 2-5.6-1.2-5.6.3 1.9.6 3.8 1.2 5.6zm-6.1 4.3c-.6.8-.3 1.9.1 2.7 1.2-1.2 2.4-3.3.8-4.7-.2.7-.5 1.4-.9 2-.5.6.4-.6 0 0zm10.2-6.3c-.6.8-.9 1.6-1.5 2.4 1.4.3 3.7-2 1.5-2.4zm-3.9-6.8c-.3-.4-.7-.7-1.2-1-.3 1.6 1 2 2.3 2-.4-.3-.8-.6-1.1-1-.2-.2.1.2 0 0zm.3 12.1c.1.2.3.4.4.6-.2-2 .9-1.1 1.9-1.8-.7-.3-1.2-.7-2-.9l-.3 2.1zm8.7-21c-.3.1-.6.3-.9.4.9.5 1.6.3 1.7-.8-.2.1-.5.3-.8.4zm1.7-2.4c.7-.2 1-.7.8-1.5-.4.4-.7.9-.8 1.5zm-.2-20.4c-.9.7-2.4 2.3-1 3.4 1.2.9 1.4-2.7 1-3.4zm1.1-3.5c.2-1.1.9-1.9 1.1-3-1.3.5-1.4 1.7-1.1 3zm-3.5 2c.4-.1.8-.2 1.1-.3-.6-.1-.9-1-1.1.3zm49.4-75.6c-3.5 2.4 1.7 2.5 0 0-.5.3 0 0 0 0zm-1.7 15.8c-3.8-2.8-1.8 2 0 0zm-3.8.4c.6.5 1.2.6 1.6.3l-1.6-.3zm-50.5 72.8c.2-.1.4-.1.6-.2.1-.8-1.2-2.7-1.6-3.2-.2.8-1.7 5 1 3.4z"/></clipPath></defs><path clip-path="url(#signature-left-clip)" class="footer__signature__graphic__path footer__signature__graphic__path--left" d="M150 500L394 65"/></svg>