<svg xmlns="http://www.w3.org/2000/svg" width="721.9" height="580.5" viewBox="12.1 -19 721.9 580.5"><defs><clipPath id="signature-right-clip"><path d="M382.6 279.6c-.7.1-.5 3.2-.7 3.7-.2.8-1.6.6-2.1 1-1 .6-1.4 2.1-1.6 3.2 1.9.3 3.9.7 5.6 1.5-2.3.4-4.6-.3-6.9-.1 1.5 1.1 1.4 2.3-.1 2.8-1.1.4-2 3.3-2.2 4.3-.5 3-3.1 5.5-3.6 8.5-.1.5-.9 2.8-1.3 3.1-1.9 1.3-1.4 1-1.8 3.3-.3 1.5-3.1 2.4-1.9 4-.2 1.2-1 3.8-2.4 1.7-.9 1.2.1 2.1.5 3.3-1.2 1.6-1.7 1.6-2.3 3.5-.4 1.5-1.3 3-2.7 3.7-.5.9-.3 2.4-.8 3.4-1.2 2.5-2.5 4.4-3 7.1-.3 1.6-2 1.2-2.6 2.5-.9 1.8 0 1.9.9 3.3-.9 1.1-1.8.8-3 .6-1-.2-1 2.2-.6 2.8 1 1.5-.3 2.4-1.8 2.1-1.6-.3.6 2.6-.3 3.8-1 1.3-1.7 1.7-1.2 3 .9 2.2-1.9 4.5-2.5 6.4-.9 2.5-2.4 4.5-3.2 7.1-.7 2.2-1.6 4.1-2.7 6.2-1.3 2.5-2.6 4.9-4 7.4-1.2 2.2-2.7 4.9-3.3 7.3-1.2 4.7-4.1 9.3-5.9 13.9-1.8 4.4-4.5 9.2-5.3 14 .7 2.3-1.6 3.3-1.3 5 .2 1.4-.3 1.3-1.1 2.7-.8 2.1-1.5 4.2-2.2 6.3-.9 2.5-2.4 4.8-3.2 7.3-.4 1.1-1.6 2.4-1.8 3.4-.9 1.7-.9 3.9-2 5.5-2.5 4.7-3.7 9.6-5.1 14.7-1.4 5.2-3 10.1-4.3 15.3-1.1 4.3-1 8.6-1.7 12.8-1 5.9-1.3 11.8-1.9 17.8-.7 6.2 0 12.7.2 18.9.1 3.8-.7 7.6-.6 11.4-.4 2.5 2 2.6 3.6 3.8 2.2-3.1 5.5-7 6.7-10.5 1-2.9 2.9-5.4 5.5-7.2-.6.2-1.3.3-1.9.2-1.6-.3-1.4.2-1.9 1.1-1 1.8-3.1 1.2-4.4 1.5-1.3.3-1.1 0-1.9-1.1-.2-.2 2.1-2.9 2.1-4.2-2.1.6-3 2.6-3 4.8-3.7-2.8 0-2.3-.9-5.5-.3-1.1.1-2.5.8-3.3 1-1 1.7 1 2.9.2.7-.4 1.3-1.5 1.8-2.1.7-1 0-.8.2-1.8-.2-1.5-4.8-1.7-2.1-3.6-.3-.2-.6-.5-1-.7 1.3-.4 2.7-.7 2-2.2-.1-.3-2.1-3.2-.6-2.9-2.7-1.4 0-6.8 1.4-6 1.5.8 0 2.2 1.9 2.4 1.6.2 3.2-.5 4.5-1.4-.9-.1-1.4-.6-2.1-.8-1.6-.6-.5-1.4-1-2.9-1 .7-3.6 2-3.1-.5-.6-.6-1.8-2-1.9-2.7-.2-1.3 1.6-1 1.6-2.1 0-.6-.1-1.3-.2-1.9-.3-2.3 0-1.2 1.5-2.2-.6-.7-2.2-3.4-.6-3.7 1.5-.3 2.2-.1 3.6-1.1-.3-1-.8-1.9-1.1-2.9 1 .2 1.7-.2 2.7-.1-.1.7-.4 1.4-.9 2 1.3-.4 2.4-1.5 3.8-.8 1 .4 1.3 1.4 2.5 1.4-.2 1.4-1.1 2.8-1.8 4 1.8-1.3 2.2-1.4 3.4.3.8 1.1-.9 2.5-1.8 1.3-.8-1.2-1.5.6-2 1-.7 0-.8-.3-1.5-.7-2.3-1.3-.2-3.3-3.1-3.8.5 1.6 1.4 3.6-.3 4.8.2 1.1 1.4 2 2.4 1.7.5-.4 1.1-.6 1.7-.7.8.4 0 1.4 1.5 1 1.6-1.1.4-1 2-.7 1.8.3-.3 2.3-.7 2.6 2.1 1 7.7 1.3 6.1-2.3-.3-.6-1.7-1.9-1-2.7 1.4.2 3.9-.3 2.5-2.2-.7-1 .2-2.3-1.9-1.7-.9.3-2.6 0-3.4-.6-.3-.2-1.7-2.4-1.9-2.8 1.1-1.5 2.4-2.6.7-4.2.6-.4 1.2-.9 1.8-1.3.4 1.3 1.3 2.5 2.1 3.6-.8-.1-1.4.3-2.2.2 1.3 1.8 2.3 1.3 4.2.7-1.5-.3-1.9-2.1-2.7-3.1-.4-.6-.5-2.4.2-2.9 2.1-1.5 1.1 1.5 1 2l5.1.9c1.1.2 1.7.1 2.8.1 1.6 0 2 1.6 3.5 1.5.2-1 .4-2.1.5-3.1 1.1.2 1.9.9 3 1.1-.4.2-1.7.7-1.8 1.3 1.1.2 2.2 2.4 3 .9.5-.9-.4-1.7-.9-2.4-.6-.8-1.7-2.2-2.8-2.4-.7-.1-.5-3.5-.6-4.1-.2-3.3.3-2.1 3.1-3-1-1.4.1-1.6.8-2.6 1-1.6-1.2-1.2-.9-2.8 1.3.2 2.5-.1 3.7.1.4-2.5-.7-.6-1.7-.8-1-.2 4.8-2.7 5-2.9-1-.2-1.5-.8-2.5-1 2-1.4 4.4-2 3-4.8 2.7-.8 3.2-1.2 4-3.7.8-2.3 2.7-4.3 3.4-6.5.7-2.4-1.9-4-1-6.4.6-1.6 2.2-2.2 2.6-4.4-1.8-.3-10-.5-10.7-2.9 3.7.6 7.6 0 11.1.8.5.4 4.5 1.6 4.7.8.2-1.2-3.2-1.6-4-1.8.5-.5 1.1-.7 1.7-.8-1.1-.4-4-.9-2.8-2.6 1.9 1 5.4 3.6 7.2 1.8-1.1-.2-1.9-.9-3-1.1.2-1.3 1.6-1.6 2.5-2.2.5.1 1.6-2 2-2.3-1.4-.5-.3-3 1-3.3 1.2-.3 3.6.9 3.9-.2-.5 0-2.6-.2-2.5-1 2-.6 2.7-.1 3.1-2.3.5-3-.3-4.7-2-7.1 2.6-.3 5.1-2.4 2.3-3.9.7-.3 1.4-.4 2.2-.2.2-1 .8-1.5 1.8-1.3 1.1.2 2.9-1.6 3.7-2.6-1.1.3-2.2.2-3.3.5.1-.7.1-2 .4-2.6 1.7-.5 3.6-2.5 4.8-3.7.2-.2 1.5-1.7 1.4-1.7.9-.6 1.3-1.5 1-2.5-.4-1.9.1-1 1.5-2.2 1.4-1.1 1.2-3 2.7-4.1 1.2-1.9 2-4 2.9-6.1 1.4-3.4-1.2-1.6-1.4-2.8-.3-1.9 1.5-1.9 3-1.6-.4.5-.9.9-1.3 1.4 4.3 1.4 4.5-7 3.8-9.5 1 0 6.1-2.2 3.1-2.7-1.2-.7 1-3 1.8-4-1-.2-2.1-.4-3.1-.5.7-.5 1.4-1.1 1.9-1.8-1-.2-2.2-.3-3.2 0 1.6-3 4.4 2.6 5.1-1.8.7.7.7.5.9 1.2.2-.1.4-.3.6-.4-.2 0-.3-.1-.5-.1 2.8-.8 2.4-3.5 4.6-5.1.2-.9 1.6-1.6 2-2.4.7-1.2.9-2.4 2.2-3.3-2-.3-4.5.2-5.6-1.5 2.6-.8 4.7-2.8 4.7-5.6-3.2 3.4-2.2-2.7-2-4.1.7.3 1.3.6 2 .9.1-3.1 2.2-1.6 3.3-3.7-2.2 1.6-2.4-.1-3-1.7-.4-1.1-1-2.1-.4-3.2.4-.7 1.5-1.3 1.4-2.2 0-.3-.7-5.2 1-3.9.8.6-.5 1.7 1 1.9.6.9 1.6-.4 2.5 1-4.7-1.7-2.7 3.3-4.1 5.2.5.3 1.5.7 1.4-.3-.2-2 2.6-1.3 3.7-1.5-1.5 2-2.4 1.8-.9 3.9 1.4 2 3.3-1 4.3-1.7-1.1-.9-2.2-.7-3.5-1.7 1.7-2.3 4.8-3.3 6.4-5.6.1-.2 1.1-1.7.8-2.2-1-1.4-2.2-.1-3.4-.6-1.1-.5-1.7-1.1-1.5-2.2.3-1.9-.3-2.7-.8-4.6 2.3-.7 2.2-.8 3.6 1.1.8-1.1 1.4-1.5 1.2-2.8-.4-2 .6-2.9 2.6-3.5.7-.5 3.3-4.2 3.7-4.2 1.4.2 3 0 2.1 2 1.6-.5 4.1-5.3 1.7-4.3-1.8.8-1.4-.5-3.5-.9-1.2-.8-2.3-.4-3.6-.6.4-1.4 5.2-.2 6.4 0-.5-2-.4-4.3 1.5-5.6-.4-.5-.9-.7-1.5-.8 3.6-2.6 2.5-7 5-10.4-.7-.1-1.2-.7-2-.9 2.1-1.5 3.8-2.2 3.8 1.2 0 1.7.9 2.8-.7 3.5-.9.3-1.4 1.1-1.6 2 2.5.4 3.7 1.2 5.2-1.2.8-1.3.8-2.6.8-4.1 0-1.6 1.2-3.7-.7-4-3.8-.7-.1-4.7 0-7.3 0-3.5 2.1-2 3.5-.2.9-1.2 1.4-2.7 2.3-3.9 1.3.9.1 2.7 1.5 4 .3-1.7 1.5-4.4 2.2-6 .5-1.1 1.9-1.7 1-3.1-1.8.3-3.6.5-5.5.7.4.6 2.2 3.4 1.8 3.8-.7.5-3.5-1.7-4.2-2.1 1.9-2.5 3-5.5 4.1-8.4-1.3.4-4.5.5-2.2-1.2.6-.4 1.4.3 1.9 0s1-1.4 1.4-1.9c.5.4.9.9 1.4 1.3-.4-.5-.5-2.7 0-3.2 1.6-1.1 1.6.8 3 1.1-.7.7-1.1 1.7-.4 2.6 1-1.3 2.3-3.7 1-4.9-.5-.5-.7-2.8-.6-3.6-1 1.9-3.3 1.1-4.3 3-1-2.2 1.2-1.8 2.6-2.8-.6-.5-1.3-.9-1.9-1.4 1.1.6 1.5.3 1.8-.6.3-.5.5-1.1.7-1.6.9-1.2-.6-.9-1.1-1.5-.4-.8-.1-1.3 1-1.4 1.4-.4 1.4 1 2.5 1.2.5.2 1 .4 1.5.8.4-.6 1.3-1.6 1.5-2.4 1.5-1-.1-3.4.1-5 .2-1.4 1.4-2.6-.2-3.5-2-1.1-1.9-.5-1.3-2.8.9-3.1.4.2 1 1 .6-.8.2-2.2 1.2-2.6 1.3-.6 1.2.9 2.2 1.6.2-.9 1.5-1.3 1.5-2 0-2.2-2-.7-2.4-1.2-1.8-2.5 1.4-5.3 3.1-6.6.5.7.9 1.5 1.2 2.3-.5.3-1.8 1.2-1.8 2 .1.7 3 .1 3.6-.1 2.6-.8-.3-3.4 2.5-4.9-.9-.1-2.9-.9-3.5-1.7.6-.2 1.7.3 2.1 0 1.6-.8-.6-1.8-1.2-2.5-.5-.9-.7-2.2-1-3.2-.4-1.4 1.6-2.7 2.7-3.1 1.8-.5 2.8-3.4 4-5.1-.6-.1-2.1-.5-1.9-1.2.4-2.2.7-1.2 2.3-2.6.8-.8.4-1.3 1.4-2 1.5-1 .9-2.3.4-3.9 1.5 1 3.3 1.4 4.7.1 1.7-1.5-1.3-1.7.3-3.4 1.3-1.4.2-2.2.5-3.6.2-1.2 1.7-1.9 2.6-2.5-1.7-2.4-1.8-.1-3.4 1-1.1-1.5-.7-3.2-.8-4.9 1.7 1.3.4 2 3.2 1.9 2.2-.1 3.1.7 4.4-1.4.4-.7 1.7-3.1.5-3.5-1.6-.5-3.1-1.2-4.6-1.8.4-.1 1.6-.2 1.7-.8-.2.4-.6.5-1.1.3-.3-2.2 3.4-2.8 4.7-4 .8-.8.9-6.3 1.9-6.1 1.1-.8 1.4-2.2 1.7-3.5.1-.8 1.7-2.6 2.4-3.3 1.4-1.6 0-1.7.9-3.5.4-.8 1.1-1.8 1.5-2.5 1.6-1.1 1.3-3.3 3.4-4.2 1.4-.4 1.3-2.3 1.8-3.4.6-1.4 2.1-1.6 2.7-2.8.6-1.4.4-2.5 1.5-3.8.6-.7 1.4-1.3 2-1.9 1.7-1.9.1-5.3 4.1-5.2-1.6-2-.9-4.2.6-6 1.8-2.1.6-3.7 3.8-3.9 1.9.3 4.3-3.3 5.6-4.4 1.8-1.5 1.7-4 3.5-5.3-2.9-.5-3.8-.1-4.9-2.9-1-2.6 2.6-1.3 3.9-1.1-.8-1.2.8-2.4 1.6-2.9 1.5-1.1 2.3.7 3.8-.4-.9-.7-2-.9-2.9-1.6 1.4-1.9 2.1-3.9 2.6-6.2.6-3-1.7-3.8-3.5-1.5-.9-2.1 2.1-6.9 2.9-4.3 2.2 1 3.3 2.1 4.1 4.4 2.3-3.2-2.5-3.4.2-6.5.8-.9 1.7-1.6 2.5-2.4.9-.9.9-3.2 2.4-2.5.2-.9.4-2.6-.5-3.3-1.5.4-4 1.4-3.6-1.1-.5.1-.7.4-.7 1-.5-.6-1.8-2.4-2.5-1-2.1 1.5-1.2-1.1-2.9-1.8-2.1-.9 1.9-1.2 2.1-1.2.6-.1 1.2-.1 1.9.1.2-1 .3-2.2 0-3.2 1.5-.4.6.9 1.1 1.5 1 1.4 1.9-1.1 1.9-1.8-.1-2.5.5-2.7 2.4-4 .7-.5 1.6.3 2.4-.3 1.7-1.2-.4-2.2.6-3.6 1.8.3.9 2.3 2.8 2.6-1.6-2.2 2.8-.9 3.1-2.4.4-2.4.3-3.2-1.8-4.8-.2 1.1-.9 1.9-1.1 3-1.3-3.2.3-2.8 1.7-4.9.7-1-1.3-4.6-1-4.6-3.4.5-1-1.3.3-3.1-.5-.3-1-.5-1.5-.8 1.9-1.4.6-2.8 1.8-4.5 1 1.4.9 2.4-.1 3.7 1.9.3 3.9-1.4 5.2.9.5-.5.8-1.2.9-2-.3-1.8.4-3.6-.1-5.4-.5-1.9-.9-3.6-1.2-5.6-.2-1.9-.4-3.8-.3-5.8 0-1.3.8-3.9 0-5-1.2.4-4.5 4.4-3.9.7.2-.9.3-1.8.5-2.7.1-.7 2.3-.5 2.9-1.3-.7-.4-8.4-.2-6.4-2 .8-.7 1.9-.1 2.1-1.4-.4-1.2-1.2-2.2-1.5-3.5-.5.7-1.2 1.3-1.9 1.8-.9-1.2 1.8-2.9-.5-3.3-1.9-.3-1.4-1.5-1.1-2.9-2.1-.4-4.9-.2-7 0-3.9.4-4.3-2.7-7-4.8-2.4-1.9-6.1-2.8-9-1.9-2.5.8-3.3-.1-5.9.7.4 1.4 1.5-.3 2.6.4-1.5 2-2.3 2.8-4.7 2.4.1-.9.3-1.7.4-2.6-1.2-.4-5.3 6.4-6.1 7.5.2.9.8.4 1.4 1.3-.4 2.2-1.5.8-2.8.6-.3 1.6 0 3-.6 4.5-.5 1.3-2.8 2-2.7 3.7 0 1.6-.9 5.2-2.4 6.3-2 .6-1.3 4.3-2.4 5.8-.6.8-2.1 1.7-2.3 2.7-.1.5-.1 2.2-.7 2.6-.5.3-1.3 2.4-1.7 3-1.2 1.6-1.6 3.9-2.1 5.8-.7 2.6-2.2 3.6-1.7 6.6-2.4.2-1.3 2.7-2 4.2-.5 1-1.3 1.6-1.5 2.7-.2 1.1.2 2.1-.4 3.2-.7 1.4 0 1.4-.5 2.7-.5 1.1-1.6 2.2-2.3 3-1.8 2.1-.8 5.4-1.7 7.7-.4.9-1.1.9-1.3 1.7-.1.7-.3 1.4-.6 2-.7 1.6-3.4 4.2-2.9 5.9.3 2.2-1.4 3.7-2 5.6-.5 1.8-3.1 3.3-2 5 1 2.3-1.7 9-3.7 10.4-.6.4-.6 1.7-.4 2.3.2.8-1 1.1-1.1 1.8-.3 1.8-.6 4.2-2.5 5-.5 1.2-.1 2.7-.4 3.9-.7 2.5-2.6 4.1-2.5 6.8-.2.9-.9 1.3-1.5 1.9-.8.8-.8 2.2-1.1 3.2-.2 1-.5 2-1 2.8-1.5 1.6 0 2.6-1.6 3.9-1.9 1.5-2.1 3.7-2.9 5.8-.6 1.7-1.4 2.6-1.7 4.3-.4 2.3-2.5 4.8-3.4 7.1-3.1 7.6-7.1 15.1-9.2 22.9-1.5 5.5-4.1 10.5-5.9 15.8-.8 2.3-2.5 4-3.2 6.1-.9 2.8-2.2 5.2-3.8 7.7-.8 1.3-1.9 9.4-2.2 9.4-1.1-.2-2.3 5.2-2.7 6-.9 1.8-2.2 3.5-3.4 5.1-1 1.4-1.4 3.2-2.2 4.7-1.8 1.9-2.8 4.4-4.5 6.4-1.9 2.4-2.9 5.6-4.4 8.2-5.4 10-7 22-12.9 32.3.6-.1 6.5-11.4 0 0zm-84.2 251.6c-.1.7.2 1.1.9 1.2-.2 0-.3-.1-.5-.1.1.2.3.4.4.6.8-1.1.3-2.1 1.7-1.9.8.1 1.5.3 2.3.4-.3 1.5-.8.1-1.7.8.4.6.9 1.2 1.3 1.8-2.9 2.1-4.8 2.8-6.8-1.2.5-.2 1.1-.3 1.7-.3 1.1.2 1.4-.3.7-1.3zm43.2-80.4c-.4.6-.6.6-.8.1-.5-.7.4-1.1.6-1.8.3.6.4 1.1.2 1.7zm-14.8 5.5c-.2.1-.4.3-.6.4-.4-.6-.9-1.2-1.3-1.8 1-.7 1.2.5 1.9 1.4zm-1.5-4c-.5.1-1.1.2-1.6.3.2-.9.9-.9 1.7-.8 0 .2-.1.3-.1.5zm-3.7 5.8c.6-.1 1.1-.2 1.7-.3-.5.7-1 .8-1.7.3zm0 6.4c-5.7-1 2.8-3.9 0 0-.7-.1 0 0 0 0zm-8.7 13.5c.3-1.5 1.1-.4 1.7-.3-.7.4-1.2.4-1.7.3zm3.1-5.9c.8-.6-.6-2.2 1.1-1.9 1.1.2 1 1.4 2.1.2.7-.7.7-2 1.3-2.9.3.5.4 1.1.3 1.6 1-.7.8-2.1.5-3.1.6.4 1.1.8 1.7 1.3.1.1-.8 3.5-.6 4.2.5 2.5-.5 1.4-1.7.5-1-.6-3.1.7-4.7.1zm8.2-7.1c.3-.4.8-.6 1.2-.9.2.7.3 1.4.2 2.2-.6-.1-1.1-.8-1.4-1.3zm.3-4.8c1.5-1.1.3-1.4-.1-2.7.9.1 1.7.3 2.6.4-.3 1.5-1.4 2.6-2.7 3.3.1-.3.1-.6.2-1zm4.9 1.1c.2.4.2.9 0 1.3-1.1-.8-1.3-1.8-.1-2.7-.1.5-.1 1 .1 1.4.1.2-.2-.2 0 0zm-1.2 11.9l-1.8 1.3c.7-.2 1.6-.5 1.8-1.3zm0-5.1c0-.3-.1-.6-.1-.8.8.6 1.5 1.4 2.3 2-2 1.4-1.4-.2-2.2-1.2-.1-.2.2.2 0 0zm10.7-17.2c-.4.1-2.2.5-2.3 1.2-.3.1-2-.4-1.9-.5-.8.5 1.3 3.6-.4 3.3-2.2-.4-.3-4.2.5-4.7-1.9-1.4-4.4-1.8-6.4-3.2 1.7-1.2 1.2-.9 1.5-2.4 1.2-1.6 5.3-2.4 3.6.6-.7-1-1.2-.9-1.6.1-.5.5-1 1-1.4 1.6 1.5 1.1 3.8.9 5.3 2.2 1.3.9 1.2 1.7 3.1 1.8zM356 336c1.1-.7 2 .3.9 1.2-.3-.4-.7-.8-.9-1.2zm-12.2 89.5c1.9-.7 3.6-.4 5.2.9l-5.2-.9zm13.1-17c-1.1-.2-2.3-2.5-.2-2.2 1 1.5 4.1 1.5 5.7 1 .3 1-.8 1.9-1.5 2.4-1-.9-2.5-1.9-4-1.2zm7.9.8c.4 1 .2 1.1-.6.4.2-.1.4-.3.6-.4zm.7-5.3c-.2-.2-.5-.4-.7-.7 1.3-.9 1.6.1 1.4 1.3-.3-.1-.5-.3-.7-.6-.2 0 .1.1 0 0zm28.7-121.9c.3.2.6.5 1 .7-.5.1-.7.4-.7 1-.6-.7-.4-1-.3-1.7zm-8.9 59.5c-.8 1.1-.8 3.3-1.1 4.6-1.2-2.3-.1-4.5 1.6-6.2 0 .6-.2 1.1-.5 1.6-.2.3.2-.3 0 0zm-3.4 35.3c.3 1.1-1.2 1.6-1.9 1.1-.9-.5-.8-1.5-1.4-2.2.5-.8 1.9.5 3-.3 1.2-.9.8-2.3 2.7-1.9.1.6.6 1.9-.2 2.2-.3 0-2.5.1-2.2 1.1.1.4-.1-.4 0 0zm3.2-7.5c-.1-.8 0-1.7.9-2 .2 1.2.8 2.4-.9 2zm4.7-10.7c-.3.6-.7 1.1-1.1 1.7-.6-1.8 0-3.8 2.2-3.4-.4.5-.7 1.1-1.1 1.7-.2.5.3-.5 0 0zm6.3-22.2c.8-.6 1.1-1.2.9-2-.1.8-.4 1.4-.9 2zm-2.3 13.2c.2-1-.5-1.7-1.2-2.1.9.2 2.6-.6 3.8-.4-.9 1.3-1.3 2.5.6 2.8-1 1.4-3.7 2.6-3.2-.3.1-.8-.2.9 0 0zm4.6-1.6c-.1.3-.1.7-.2 1-1.1-.6-.6-1.2.3-1.6-.1.3-.1.4-.1.6zm3.5-20.8c.2-.1.4-.3.6-.4-.5 3.3-.8.4-.6.4zm31.6-53c.3.4-.1.9-1.3 1.4.1-.7.5-1.5 1.3-1.4zm8-27.5c1.2-.5 2-.4 2.6.4-1 .5-2 .5-2.6-.4zm11-14.2c-1.9 0-1.2-2.4.4-2.6-.1.9-.3 1.8-.4 2.6zm10.3-32c.1-.5.8-1.3.8-1.5-.1.6-.1 1.1.3 1.7-.4 0-.8-.1-1.1-.2zm13-63.6c-.6-.5-.9-1-.8-1.7.5.5.8 1.1.8 1.7zm3.5-4.2c.1.4.2.8.3 1.1-.2 0-.3-.1-.5-.1 0-.3.1-.7.2-1zm-1.4 4.6c.2-.3.5-.6.7-1 .5 1-.1.5-.3 1.6-.1-.2-.2-.4-.4-.6zm-5 44.6c-.4 2.3-.6 3.7.1 5.9-.7.1-1.2.3-1.7.8-.8-.6-.5-1.5-.2-2.2-1.8-1.7-.2-3-.8-4.9.9.1 1.8.3 2.6.4zm7.2-41.6c-.7.6-1.2.5-1.6-.3.9-.6 1.6-.7 1.6.3zM479 175c-.6.8-1.6.1-2.1-.4.6-.3 1.2-.5 1.7-.8.1.5.3.9.4 1.2zm6.1-41.8c-1.1-1.6-1.7-2.4.1-3.7.4 1.2 1 1.4 1.7 2.4-.6.5-1.2.9-1.8 1.3zm10.1-49.6c0-.5.2-1 .3-1.6.3.5.4 1.1.3 1.6h-.6zm15.4-24.2c-1-.2-1.5-.8-1.3-1.8l1.3 1.8zm-6.4 0c0-.5.2-1.1.3-1.6.5.8.5 1.5-.3 1.6zm-.7 6.9c.1-.3.1-.7.2-1 .9 1.3 1 1.7 1.5 3.5-.5-.9-1.1-1.7-1.7-2.5zm4.4 2.8c-.3-2.1-1-4.1-1.6-6.2 1.5 2.3 4.9 3.9 1.6 6.2zm-6.6 47.7c.1-.8.8-1.3.9-2 2 .9.8 2.2-.9 2zm8.4-45.7c.4 1.5 1.7 2.5.2 3.5-1.9 1.3-.4-3.2-.2-3.5zm2.9-7.6c-2.1-.4-4.2-.2-6.3-.6 1.4-3.8 4.6-.3 6.9.1-.2.2-.4.4-.6.5zm10.6 19c.6.5 1.3.7 2 .9-.6.6-1.4 1.4-2.3 1.2l.3-2.1zm-5.8 1.1c-.4.6-1.7-.8-1.9-1.1-1.2-1.6-.7-.6-.4-2.5.5.7 3 2.7 2.3 3.6-.2.4.2-.3 0 0zm-1.8 2.9c-.2 0-.3-.1-.5-.1.1-.3.1-.7.2-1 .7.1.4.5.3 1.1zm5.6-39.2c-.9 1.3-2 1.1-3.1-.5l3.1.5zm-3.6 13.6c-.2-.1-.5-.3-.7-.4 1-.7 1.7-.6 1.5.8-.3-.1-.6-.3-.8-.4-.2-.2.1.2 0 0zM517 64c.4-.3.7-.7 1-1.2.1.7.3 1.2.8 1.7-.9.3-1.9.3-2.8.6.3-.3.7-.7 1-1.1.2-.1-.2.2 0 0zm-5.7 44.6c-.7-.7-.8-1.6-.6-2.5.5.4.9.9 1.4 1.3.1-.7.2-1.4.4-2.1 2.5 1.9 1.6 3.1.1 5.4-.3-.8-.8-1.5-1.3-2.1-.6-.7.6.6 0 0zm2.2-6.9c-.6-.8-.8-1.6-.7-2.3.7.5 1.8 1.6.7 2.3zm5.1-10.6c-.2 1.4-.4.7.1 2.4.5-.7.8-1.6 1-2.5 1.4 1 1.2 2.5.4 3.8-1.1-.2-1.8-1.1-2.7.1 1 1.4.9 2.1-.5 3.1-1.8 1.3 1.9 1.1 2.5 1-.8 1.4-4.1 2.2-3.7-.1-.3-.9.6-1 1.2-.9.2-1-.2-1.7-.1-2.7-1.2.8-3.3 1.4-3.6-.6-.2-.7-.4-1.3-.7-2-.7-1.5.3-1.6.5-2.9.9 1.3.5 2.7 1.5 4l1.8-3.3c1-1.8 1.4-.5 3.1-.2-.4.3-.6.5-.8.8-.1.1 0-.2 0 0zm4.8-15.5c-.1.6-.4 4.5-1.2 4.4-.7-.1-.8-1.6-2.2-.6-.9-.9-.9-1.1-.3-2.1 1.2-2.3 1.1-2.2 3.7-1.7zm11.2-56c.3.1 4.9-.2 1.6 1.1-1.9.8-3.2-1.3-4.7-2.2.8-.4 1.6-.8 2.3-1.2.3.8.5 1.6.8 2.3zm.3 13.5c.4-.9.9-.2 1.7-.8-.1.3-.1.7-.2 1-.4 0-1 0-1.5-.2zm.9-8.4c-1.9 1.4 1.6 2.1-.3 3.4-2.1 1.5-2.5-2.1-2.5-3.1.1-1.8.2-2.9 2.6-2.5.8 1.1.6 1.9 2 .9 1 .2-.1 1.6.8 1.7-.8-.1-1.7-.3-2.6-.4zm-.2 35.8c-.4-.6-.9-1.2-1.3-1.8.5-.1 1.1-.2 1.6-.3l-.3 2.1zm4-26.6c-.2 1-.4 2.1-.5 3.1-.6-.8-.8-3.2.5-3.1zm1-5.7c-.9 0-1.2-.4-1.7-1.1-.8-1.2 1.6-1.6 2.2-2-.1 1-.3 2-.5 3.1zm0 6.4c.2 0 .3.1.5.1-.2 1.1-.9 1.9-1.1 3 .2-1 .4-2.1.6-3.1zM344 471.1c1.8 1.3 2.9-2.4 4.8.3.2-.9-.2-1.8-.1-2.7 1.1.2 2 .9 2.3-1.2-.7-.3-1.3-.6-2-.9-.5.7-1.4 1.9-2.4 1.7-2-.4-2.9.8-2.6 2.8zm-26.5 26.5c-.2 1.4-2.1.9-1 2.5-.8.3-1.6.7-2.3 1.2.8.6 1.5 1.4 2.3 2 2.8.5 1.1-2.4 0-3.2.7-.2 1.4-.3 2.2-.2.2-1-.3-1.8-1.2-2.3zm146.1-289.3c.3 1 3.2 4.5 2.9 1.6-.8-1.1-1.9-2-2.7-3.1 0-.5.2-.9.7-1-.5-.5-.7-1.1-.8-1.7-.3 2.4-4.3 3.5-.1 4.2zM321.5 497.7c.5 1.6 4.3 2.5 4.5 1.1.5-2.4-5.4-4-4.5-1.1.1.4-.1-.4 0 0zm11.7-19.4c-1-.2-2.1-.4-3.1-.5.6.8 1.3 3.4 2.1 3.6 1.1.2 2.8-.4 3-1.6-.8.2-1.5.5-2.3.7 0-.8.1-1.5.3-2.2zm-8.4 8.2c.9-.1 2.5-3 4.4-3.5-1-.5-2.3-1.5-3.5-1.7-.3 1.8-1.1 3.4-1.4 5.1.1 0 .3.1.5.1zm95.2-177c.9.2 1.8.4 2.5 1-.5-1.1 1.5-7-1.9-4.6-.5.5-.5 2.9-.6 3.6zm61.4-139.4c-.5-.5-.7-1.1-.8-1.7-.9 1.2-2.1 1.8-1.6 2.9 1.2 1.7 3.5.3 2.4-1.2zm-128.7 266c.2-1.1-.4-1.3-.7-2.3 1.1-.1 2.2-.5 2.4-1.7-1.9.4-3.2 1.8-3.8 3.6.7.2 1.4.3 2.1.4zM540.2 50.9c1.1.6 1.4 2.8 1.8.6.3-1.9-1.8-1.9-3.4-2.2.4.6.9 1.2 1.6 1.6.5.2-.5-.3 0 0zm-169 355.7c1.2.9 2.8.9 4 1.8-1.3-1.8-1.9-3.2-4-1.8zM312 514.3c-1.4.1-2.5.9-3 2.2.9.1 1.7.3 2.6.4-.6-.8-.4-2 .4-2.6zm3.5-17.6c-.4-1.2-1.3-1.8-1.6-3-.8.3-.9.8-.3 1.5.2 1 .3 1.7 1.3 2.4.2-.3.5-.6.6-.9zm-9.8 22.9c-.7-.5-1.6-.8-2.5-1 .1 1.1 2.7 3.2 2.9 1.6-.1-.2-.2-.4-.4-.6zm149.6-281.4c-.2 1.2 1.3.2 1.5-.3.8-1.8-.5-2-1.8-1.1.3.4.4.9.3 1.4-.1.5.1-.5 0 0zm-13.1 32.3c-.8.6-1.6 1.4-.4 2.1.9-.6 1.6-1.4 2-2.3-1.4 1-.7-.1-1.6.2zm-10.9 26c.3-1.8-.4-1.7-1.8-1.9-.2 1.1.8 1.7 1.8 1.9zm-78.2 154.4c0-.3-.1-.6-.1-.8-.8.6-1.6 1.1-2.4 1.7.4.1 3.6.7 2.5-.9-.1-.2.2.2 0 0zm-13.5 11.9c.7.1 1.4.2 2.1.4.2-1.2-.8-1.7-1.8-1.9-.1.4-.4 1-.3 1.5zm194-378.5c-.1-1.4-.7-2.3-1.7-2.4.3.9 1 1.7 1.7 2.4zm-3.6 3.9c.7 0 1.3.2 1.2 1 .7-.9-.6-1.9-1.2-2.3-.4.4-1.2 1.4 0 1.3.9 0-.9 0 0 0zM320.4 494.9c.1.2.1.4.2.6.6-.8 1.3-1 1.9-1.8-.6-.1-2-.1-2.4.5.2.1.3.3.3.7zm108.9-202c.8-.3 1.6-.7 2.3-1.2-1-.2-2.2-.3-3.2 0 .3.4.5.9.9 1.2zM314.9 503.5c-.6-.5-1.2-1.1-1.8-1.9.1 1.1.5 2.1 1.8 1.9zM534 82.2c1.2-.5 1.4-1.2.9-2-.1.8-.4 1.5-.9 2zm9-33.8c.2-.4.2-1.1.3-1.6-.4-.2-1.1-.3-1.6-.3.3 1 .4 1.7 1.3 1.9zm-136.9 286c.9.2 1.8.4 2.5 1-.2-.8-.5-1.5-.7-2.3-.6.5-1.2.9-1.8 1.3zm-98.9 170.5c.7.1 1.3-.2 1.7-.8-.8-1.1-1.6-.1-1.7.8zm-3.3 19.2c-.2.5-.2 1.1-.3 1.6 1.7-.2.7-.8.9-2-.2.2-.4.3-.6.4zm115.8-216.2c-1.3-.1-.8 1.8-.4 2.6.1-.9.3-1.8.4-2.6zm-94.6 170.6c.2-1-.1-1.6-.8-1.7-.1.7-.1 1.6.8 1.7zm2.3-1.2c-.5.7-.9.9-.3 1.6.5-.4.7-.9.8-1.5-.1 0-.3-.1-.5-.1zm120.7-234.7c.4-.1.8-.2 1.1-.3-.3-.9-.8-1.4-1.5-.8.2.3.3.7.4 1.1zm-3.6 11.7c-.3 1.5.9.7 1.5.8-.1-.4-.6-1-.9-1.2-.2.1-.4.2-.6.4zm-20.8 48.9c-.2 1 0 2.4.6 2.8.2-1.2.4-2.3-.6-2.8zM308.5 522.3c-1.2.9-1.3 1.6-.4 2.1l.4-2.1zm226.9-450c-.8-.1 0 1 .1 1.1.8-.5.9-1 .3-1.6-.1.2-.2.3-.4.5zM302.1 503c.6-.3 1.2-.5 1.7-.8-.6-.9-1.7-.5-1.7.8zm25.8-16c-.5.1-1.1.2-1.6.3.9.8 1.4.9 1.6-.3zm-19.4 4.2c-.2-.4-.6-.8-.9-1.2-1.6 1.1-.2 2.1.9 1.2zm141-235c-.5.6-.6 1.3-.4 2.1l.4-2.1zM309.4 491.6c-.2.1-.4.1-.6.2.3 0 1.4 1.5 1.6.3 0-.1-.8-1.3-1-.5 0 .2.1-.1 0 0zm174.1-324.3c1.2.2 1.3-.8.8-1.5-.5.4-.7.9-.8 1.5zM333.7 468.8l.9 1.2c.1-.7 0-1.5-.9-1.2zm122.5-236.1c-1.4-.2.5-1.7-1.6-.3.5.1 1.1.3 1.6.3zM308.4 488.5c-.7-.1-1.4-.2-2.1-.4.6.4 1.3.7 2 .9 0-.2 0-.3.1-.5zm4.1 10.3c-.7-.1-1.1-.3-1.6.3.4.2 1.1.3 1.6.3-.1-.2 0-.4 0-.6zm83.8-145.1c-.4.3-.5.8-.3 1.6l.3-1.6zm24-49c-.3.4-.7.3-.7 1 .7.2.5-.3.7-1zm-107 201.8c-.2-.4-.6-.8-.9-1.2-.2.8.4.8.9 1.2zm-2.6 11.9c-.6-.1-1.1-.1-1.6.3.6 0 1.2 1 1.6-.3zm1.4-36.2c-.4.2-.8.6-1.2.9.7.1 1.5.1 2.2-.2-.3-.2-.6-.5-1-.7z"/></clipPath></defs><path clip-path="url(#signature-right-clip)" class="footer__signature__graphic__path footer__signature__graphic__path--right" d="M590 0L288 545.5"/></svg>