<svg class="spritesheet" xmlns="http://www.w3.org/2000/svg"><symbol id="category-3d" viewBox="0 0 45.186 51.041"><path d="M24.803 4.23c5.688 3.158 10.11 5.685 15.163 8.844 1.262.632 1.896 1.263 1.896 3.16v18.32c0 1.264-.632 2.525-1.896 3.157-5.687 3.16-9.476 5.688-15.163 8.847-1.895.63-2.527 1.264-4.422 0-5.685-3.16-10.107-5.684-15.162-8.846-1.26-.63-1.894-1.26-1.894-3.157v-18.32c0-1.264.632-1.896 1.895-3.16 5.685-3.16 10.11-5.686 15.795-8.844 1.26-.634 2.526-.634 3.788 0zm-.63 22.11V43.4c5.053-3.158 10.107-5.687 14.53-8.845V17.495l-14.53 8.846zm-2.528 17.057V26.34l-14.53-8.845v17.058c5.054 3.158 10.108 5.686 14.53 8.844zM8.378 15.6l14.532 8.844L37.44 15.6c-5.055-3.158-10.11-5.687-14.53-8.844C17.856 9.914 12.8 12.442 8.378 15.6z"/></symbol><symbol id="category-design" viewBox="12.103 -20.12 19.979 90.28"><path d="M32.075-4.218c0-.155-.026-.306-.064-.453l.002-13.626c0-1.007-.816-1.823-1.822-1.822l-16.264-.002c-.968 0-1.824.856-1.823 1.823l.002 10.117.014 4.885.05 46.98.004 5.15v3.15c0 .01.002.02 0 .028v.06c0 .08.014.157.025.233.01.096.03.187.057.277.024.08.048.16.083.236.01.02.013.047.024.068l8.13 16.263c.31.618.94 1.008 1.63 1.008.493 0 .954-.196 1.29-.533.137-.136.253-.296.342-.473l8.132-16.264c.008-.015.01-.03.018-.047.055-.12.1-.242.13-.372.002-.01.005-.015.007-.022.026-.123.04-.247.04-.374m-.004-28.296l-.002-7.113M15.814-2.244h4.653l.008 52.494h-4.653l-.008-52.494zm4.035 62.138L16.942 53.9h10.364l-2.986 5.973-4.47.02zm8.585-9.643H24.12l-.007-52.495h4.316l.005 52.496zm-.07-56.29L15.75-6.04v-10.435h12.616V-6.04z"/></symbol><symbol id="category-development" viewBox="-0.5 -2.2 24.6 28.3"><path d="M17.4.8l-.5-.2.5-1.6c.1-.3-.1-.5-.3-.6L15-2.2c-.1-.1-.3 0-.4.1-.1.1-.2.2-.2.3l-.5 1.6-.5-.2c-.3-.1-.5.1-.6.3l-1.4 4.5-4.5 14.9v.2l.3 6.3c0 .2.2.4.3.4.1 0 .2.1.2 0 .1 0 .3-.1.3-.2l3.7-5.1.1-.1.1-.1v-.1l4.6-14.7 1.4-4.5c.1-.1 0-.3-.1-.4-.2-.1-.3-.1-.4-.2zm-2.3-2l1.3.4-.3.8-1.3-.4.3-.8zM7.9 24.3L7.7 20l2.7.8-2.5 3.5zm7.5-18.6L10.9 20l-3.1-.9 4.4-14.3L13.5.7l3.1.9-1.2 4.1zM23.7 11.2l-2.9-2.6c-.2-.1-.3-.1-.5-.1-.1 0-.2 0-.3.1s-.1 0-.1.1c-.1.1-.1.3-.1.5 0 .1.1.3.4.5l2.6 2.4-2.6 2.3c-.2.1-.4.3-.4.5 0 .1 0 .3.1.4.1.1.2.2.4.2s.4 0 .5-.1l2.9-2.6c.3-.3.4-.5.4-.7.1-.4-.1-.6-.4-.9zM-.1 12.6l2.9 2.6c.2.1.3.1.5.1.1 0 .2 0 .3-.1 0 0 .1 0 .1-.1.1-.1.1-.3.1-.5 0-.1-.1-.3-.4-.5L.8 11.8l2.6-2.3c.2-.1.4-.3.4-.5 0-.1 0-.3-.1-.4-.1 0-.2-.1-.4-.1s-.4 0-.5.1l-2.9 2.6c-.3.3-.4.5-.4.7-.1.2.1.4.4.7z"/></symbol><symbol id="category-illustration" viewBox="13.03 -20.125 18.833 89.729"><path d="M29.81-20.125H14.933c-1.05-.004-1.902.912-1.902 2.043l.02 39.787c0 .44.032.88.09 1.315l2.99 19.977s-2.966 3.05-2.897 8.71 8.86 17.897 8.86 17.897 9.477-12.236 9.55-17.896-3.12-8.71-3.12-8.71l3.22-19.978c.064-.436.098-.875.098-1.315l.023-39.787c0-1.13-.92-2.046-2.052-2.043zM28.5-16.82l-.1 39.194s-.992 5.25-1.38 8.375h-9.496c-.36-3.126-1.28-8.376-1.28-8.376L16.15-16.82h12.348zm-1.76 50.976l-.83 5.702h-7.355l-.77-5.702h8.954zm2.105 17.302c-.156 3.344-3.678 8.598-3.678 8.598h-5.923s-3.267-5.254-3.412-8.598c-.116-2.875 1.87-5.48 2.57-6.777h7.672c.754 1.3 2.896 3.903 2.77 6.778z"/></symbol><symbol id="logo" viewBox="-1.5 -1.5 38 38"><path d="M24 25V10h-4v6h-5v-6h-4v15h4v-6h5v6"/></symbol><symbol id="skill-front-end" viewBox="-0.254 -31.5 400 325"><path fill="#FFF" d="M101.568 14.01v40.51L9.805 56.73v147.56l89.92 1.84 1.843 41.124h288.486V14.01"/><path fill="#1D1D1B" d="M274.82 188.348c.6.6 1.385.902 2.172.902.783 0 1.568-.297 2.168-.896l24.184-24.12c.848-.847 1.086-2.062.736-3.128.348-1.063.11-2.273-.734-3.12l-24.123-24.123c-1.197-1.198-3.143-1.198-4.338 0-1.2 1.198-1.2 3.142 0 4.34l22.902 22.903-22.963 22.9c-1.2 1.2-1.2 3.143-.004 4.342zM176.433 164.233l24.184 24.12c.6.6 1.383.897 2.168.897s1.572-.303 2.172-.902c1.197-1.2 1.195-3.143-.005-4.342l-22.93-22.87 22.933-22.933c1.198-1.2 1.198-3.14 0-4.34-1.197-1.2-3.143-1.2-4.34 0l-24.124 24.123c-.817.818-1.062 1.98-.764 3.016-.398 1.09-.168 2.356.707 3.23zM231.81 197.152l-5.87-1.793 22.092-72.3 5.87 1.792zM164.606 34.51c-6.126 0-11.11 4.984-11.11 11.11 0 6.126 4.984 11.11 11.11 11.11 6.125 0 11.11-4.984 11.11-11.11s-4.984-11.11-11.11-11.11zm0 16.08c-2.742 0-4.972-2.228-4.972-4.97 0-2.742 2.23-4.972 4.972-4.972 2.74 0 4.97 2.23 4.97 4.972.002 2.742-2.23 4.97-4.97 4.97zM132.442 34.51c-6.126 0-11.11 4.984-11.11 11.11 0 6.126 4.984 11.11 11.11 11.11 6.126 0 11.11-4.984 11.11-11.11s-4.984-11.11-11.11-11.11zm0 16.08c-2.74 0-4.972-2.228-4.972-4.97 0-2.742 2.23-4.972 4.972-4.972 2.742 0 4.972 2.23 4.972 4.972 0 2.742-2.23 4.97-4.972 4.97zM196.708 34.51c-6.125 0-11.11 4.984-11.11 11.11 0 6.126 4.985 11.11 11.11 11.11 6.126 0 11.108-4.984 11.108-11.11s-4.983-11.11-11.108-11.11zm0 16.08c-2.742 0-4.972-2.228-4.972-4.97 0-2.742 2.23-4.972 4.972-4.972 2.74 0 4.972 2.23 4.972 4.972 0 2.742-2.23 4.97-4.972 4.97z"/><path fill="#05070A" d="M385.51 10.45H106.357c-5.01 0-9.084 4.074-9.084 9.083v33.084H13.98c-5.01 0-9.085 4.075-9.085 9.084v138.597c0 5.01 4.075 9.084 9.084 9.084H97.27v33.085c0 5.012 4.075 9.086 9.084 9.086H385.51c5.01 0 9.087-4.073 9.087-9.085V19.533c0-5.01-4.076-9.084-9.086-9.084zM97.27 203.242H13.98c-1.626 0-2.948-1.318-2.948-2.945v-101.4h86.24v104.345zm0-110.483H11.03V61.702c0-1.625 1.323-2.946 2.948-2.946H97.27V92.76zM388.46 242.465c0 1.627-1.322 2.947-2.947 2.947H106.357c-1.625 0-2.947-1.32-2.947-2.947V80.852h285.048v161.613zm0-167.75h-285.05V19.532c0-1.624 1.322-2.946 2.948-2.946H385.51c1.626 0 2.948 1.32 2.948 2.946v55.18z"/><path fill="#1D1D1B" d="M50.132 80.852c2.81 0 5.095-2.285 5.095-5.094 0-2.81-2.286-5.095-5.095-5.095-2.81 0-5.095 2.286-5.095 5.095 0 2.807 2.285 5.094 5.095 5.094zm0-6.138c.594 0 1.043.45 1.043 1.043 0 .595-.45 1.043-1.043 1.043-.596 0-1.043-.448-1.043-1.043-.002-.594.446-1.043 1.042-1.043zM30.06 80.852c2.81 0 5.095-2.285 5.095-5.094l-.005-.17c-.153-2.76-2.388-4.924-5.09-4.924-2.81 0-5.094 2.286-5.094 5.095 0 2.805 2.285 5.092 5.094 5.092zm0-4.05c-.546 0-1.01-.393-1.038-.875l2.082-.115c-.028.567-.467.99-1.044.99zm0-2.088c.595 0 1.044.45 1.044 1.043h-2.087c0-.594.448-1.043 1.043-1.043z"/></symbol><symbol id="skill-illustration" viewBox="0 37.5 400 325"><path fill="#FFF" d="M204.95 81.645h-57.104l-12.943-23.6-13.705 23.6-64.716 2.665-2.664 228.41 49.87 4.57 2.283 30.454h53.297l4.57-29.695 41.112-.76 2.284 35.404H288.7l3.427-34.645 51.01-2.286V84.69l-51.01-2.283-1.523-33.88h-83.37"/><path fill="#05070A" d="M339.11 79.643h-44.724V52.89c0-5.135-4.174-9.312-9.31-9.312H211.05c-5.135 0-9.313 4.177-9.313 9.31v26.755h-52.33c-4.367-9.06-8.638-18.03-11.438-24.18l-.11-.24-.146-.218c-.82-1.23-2.05-1.937-3.376-1.937-1.397 0-2.667.783-3.397 2.098l-.116.23c-2.8 6.125-7.188 15.104-11.705 24.182H60.89c-5.135 0-9.312 4.178-9.312 9.312v222.156c0 5.135 4.177 9.313 9.31 9.313h40.72v22.817c0 5.135 4.178 9.313 9.313 9.313h46.032c5.133 0 9.31-4.178 9.31-9.313V320.36h35.475v26.753c0 5.133 4.178 9.31 9.313 9.31h74.03c5.134 0 9.31-4.177 9.31-9.31v-26.69h44.72c5.136 0 9.314-4.175 9.314-9.308V88.955c-.002-5.135-4.18-9.312-9.315-9.312zm-204.743-16.34c1.045 2.238 2.193 4.67 3.407 7.225h-6.885c1.24-2.554 2.414-4.986 3.477-7.226zm-32.395 50.186l-.362.704V313.8H60.89c-1.545 0-2.755-1.21-2.755-2.753V88.89c0-1.546 1.21-2.756 2.754-2.756h54.953c-7.162 14.287-13.755 27.126-13.87 27.355zm57.734 229.686c0 1.545-1.21 2.754-2.754 2.754h-46.03c-1.546 0-2.756-1.21-2.756-2.754V308.36h51.54v34.816zm0-41.377h-51.54v-21.442h51.54v21.44zm0-28h-21.44V122.463h-6.56v151.34h-23.54V122.33h51.54V273.8zm0-158.027h-51.538c1.96-3.823 11.418-22.312 19.502-38.687h13.232c7.86 16.396 16.952 34.9 18.804 38.662v.025zM201.734 313.8H166.26V114.223l-.336-.685c-.112-.23-6.428-13.053-13.35-27.337h49.16v227.6zm86.098 33.312c0 1.543-1.207 2.752-2.756 2.752h-74.03c-1.542 0-2.75-1.21-2.75-2.752v-56.785h28.72v-6.56h-28.72v-51.472h28.72v-6.557h-28.72v-51.476h28.72v-6.557h-28.72v-51.473h28.72v-6.558h-28.72V52.89c0-1.545 1.208-2.755 2.75-2.755h74.03c1.55 0 2.756 1.21 2.756 2.754V347.11zm54.03-35.998c0 1.543-1.21 2.752-2.753 2.752h-44.724V86.2h44.723c1.542 0 2.753 1.21 2.753 2.754v222.16z"/></symbol><symbol id="skill-rwd" viewBox="0 37.5 400 325"><path fill="#FFF" d="M43.266 287.667H4.6v18l272 1.666v19.5l118 .834 2-162.168-61.834-2-.332-90.167H44.1"/><g fill="#05070A"><path d="M337.55 309.788c-2.52 0-4.567 2.05-4.567 4.564 0 2.517 2.05 4.567 4.567 4.567s4.565-2.05 4.565-4.566c0-1.174-.52-2.36-1.422-3.267-.824-.825-1.97-1.3-3.143-1.3zm0 6.007c-.414 0-.81-.162-1.104-.46-.213-.21-.34-.58-.34-.98 0-.822.62-1.44 1.44-1.44.823 0 1.442.618 1.442 1.44 0 .82-.615 1.44-1.438 1.44zM377.39 176.624h-80.16c-4.973 0-9.016 4.044-9.016 9.014v108.465c0 4.973 4.043 9.016 9.015 9.016h80.16c4.97 0 9.015-4.044 9.015-9.016V185.638c0-4.97-4.046-9.014-9.014-9.014zm3.005 117.478c0 1.656-1.35 3.006-3.004 3.006h-80.16c-1.66 0-3.008-1.35-3.008-3.006V185.637c0-1.656 1.35-3.004 3.007-3.004h80.16c1.654 0 3.005 1.348 3.005 3.005v108.464z"/><path d="M390.73 160.7h-53.48V78.012c0-4.97-4.042-9.014-9.015-9.014H49.41c-4.97 0-9.014 4.043-9.014 9.013v207.854l-31.068.006c-5.004 0-9.074 3.963-9.074 8.832v6.672c0 4.852 3.986 8.65 9.074 8.65H272.71v11.96c0 4.972 4.043 9.015 9.015 9.015H390.73c4.973 0 9.016-4.043 9.016-9.017V169.713c-.002-4.97-4.045-9.014-9.016-9.014zM46.405 78.012c0-1.656 1.348-3.004 3.005-3.004h278.826c1.656 0 3.004 1.346 3.004 3.003V160.7h-12.076V96.462c0-4.97-4.046-9.015-9.018-9.015H65.454c-4.97 0-9.014 4.045-9.014 9.015v170.48c0 4.982 4.128 9.193 9.014 9.193H272.71v9.674l-226.306.052V78.012zm226.306 91.7v100.415H65.455c-1.6 0-3.004-1.49-3.004-3.188V96.462c0-1.656 1.347-3.004 3.004-3.004h244.692c1.657 0 3.006 1.347 3.006 3.004V160.7h-31.428c-4.97 0-9.013 4.043-9.013 9.013zM9.33 304.02c-1.72 0-3.066-1.162-3.066-2.645v-6.672c0-1.582 1.346-2.822 3.065-2.822l263.38-.062v12.198l-263.38.003zm384.406 17.964c0 1.656-1.35 3.008-3.006 3.008H281.725c-1.656 0-3.005-1.352-3.005-3.008v-152.27c0-1.658 1.35-3.006 3.005-3.006H390.73c1.657 0 3.006 1.348 3.006 3.005v152.27z"/></g></symbol><symbol id="social-dribbble" viewBox="0 0 560 560"><path d="M279.996 488.284c-49.526 0-93.774-15.874-132.716-47.62l4.76 3.482c7.41-16.3 18.31-31.95 32.71-46.987 14.39-15.022 28.254-27.155 41.59-36.36 13.334-9.205 27.837-17.872 43.497-26.04 15.67-8.13 26.365-13.336 32.07-15.56 5.704-2.222 10.26-3.962 13.65-5.223l.648-.333h.63c20.743 54.417 35.56 107.11 44.45 158.137-26.262 11.003-53.34 16.504-81.29 16.504zm18.43-207.81c-1.928.537-3.3.906-4.15 1.11l-11.733 4.13c-8.047 2.963-18.576 8.04-31.597 15.243-13.012 7.187-26.83 15.762-41.433 25.708-14.604 9.966-29.69 23.133-45.248 39.543-15.558 16.393-28.625 34.024-39.21 52.86-16.94-18.836-30.06-40.173-39.368-63.99-9.316-23.802-13.974-48.842-13.974-75.087 0-2.962.102-5.185.314-6.667 76.624 0 147.857-9.834 213.692-29.522 6.778 13.133 12.37 24.875 16.816 35.246-.852.427-2.222.908-4.11 1.427zm-222.27-43.34c6.772-31.97 20.32-60.752 40.647-86.367 20.318-25.615 45.082-45.285 74.29-59.046 26.245 34.913 52.073 74.92 77.476 120-64.345 16.95-128.485 25.413-192.413 25.413zm379.108 155.412c-15.668 24.244-35.245 44.304-58.75 60.176-8.668-48.692-22.226-98.312-40.635-148.912 42.117-6.556 85.42-3.5 129.872 9.206-4.67 28.78-14.818 55.305-30.488 79.53zM229.516 78.052c.213-.204.427-.315.64-.315-.214 0-.427.11-.64.315zm184.002 51.285c-1.594 2.223-5.557 6.5-11.91 12.854-6.352 6.354-13.28 12.392-20.8 18.096-7.52 5.724-17.725 12.225-30.635 19.54-12.927 7.3-26.67 13.706-41.265 19.207-24.355-44.878-50.396-85.31-78.124-121.297 16.725-4.02 33.126-6.02 49.212-6.02 52.51 0 98.33 17.354 137.484 52.063-1.055 1.482-2.37 3.335-3.962 5.557zM485.12 277.14c-2.13-.427-4.777-.89-7.945-1.428-3.166-.535-7.037-1.167-11.576-1.907-4.557-.74-9.65-1.427-15.26-2.056-5.597-.65-11.597-1.224-17.93-1.76-6.354-.52-13.134-.944-20.337-1.26-7.187-.315-14.484-.482-21.894-.482-7.41 0-15.19.205-23.338.63-8.15.426-16.04 1.167-23.67 2.223-.63-1.055-1.408-2.796-2.37-5.24-.964-2.426-1.63-4.28-2.076-5.557-4-8.89-8.666-18.93-13.965-30.153 14.614-5.926 28.524-12.76 41.75-20.484 13.242-7.724 23.817-14.614 31.764-20.634 7.945-6.037 15.447-12.427 22.54-19.206 7.095-6.78 11.706-11.483 13.818-14.132 2.11-2.65 4.11-5.242 6.036-7.78l.316-.313c30.893 37.674 46.654 81.07 47.303 130.17l-3.166-.63zM402.405 68.845c-37.376-21.8-78.16-32.69-122.408-32.69-44.238 0-85.042 10.89-122.4 32.69-37.357 21.8-66.945 51.397-88.744 88.755-21.8 37.358-32.7 78.16-32.7 122.392 0 44.248 10.9 85.05 32.7 122.41 21.8 37.355 51.387 66.935 88.745 88.735 37.357 21.8 78.16 32.708 122.4 32.708 44.246 0 85.03-10.908 122.407-32.708 37.358-21.8 66.936-51.38 88.736-88.736 21.8-37.358 32.708-78.16 32.708-122.408 0-44.23-10.908-85.033-32.708-122.39-21.8-37.36-51.377-66.956-88.736-88.756z"/></symbol><symbol id="social-github" viewBox="0 0 560 560"><path d="M495.966 160.9c-22.298-38.21-52.553-68.484-90.764-90.783-38.23-22.297-79.947-33.437-125.206-33.437-45.25 0-86.985 11.14-125.198 33.438-38.21 22.298-68.475 52.572-90.774 90.784-22.298 38.212-33.446 79.947-33.446 125.186 0 54.353 15.857 103.23 47.58 146.633 31.713 43.423 72.69 73.45 122.923 90.12 5.845 1.082 10.174.343 12.996-2.27 2.804-2.597 4.215-5.836 4.215-9.738 0-.646-.055-6.5-.16-17.544-.113-11.024-.16-20.668-.16-28.89l-7.475 1.287c-4.765.87-10.77 1.25-18.026 1.138-7.257-.095-14.77-.854-22.564-2.274-7.795-1.402-15.05-4.642-21.768-9.738-6.706-5.076-11.47-11.745-14.284-19.968l-3.25-7.483c-2.168-4.963-5.58-10.494-10.23-16.557-4.66-6.063-9.368-10.173-14.123-12.333l-2.272-1.63c-1.525-1.08-2.927-2.387-4.225-3.902-1.297-1.516-2.273-3.03-2.927-4.545-.644-1.517-.104-2.75 1.63-3.733 1.732-.966 4.868-1.46 9.415-1.46l6.5.968c4.328.87 9.68 3.467 16.074 7.806 6.384 4.338 11.632 9.965 15.752 16.88 4.973 8.884 10.988 15.647 18.026 20.308 7.028 4.66 14.123 6.972 21.265 6.972 7.15 0 13.318-.53 18.52-1.63 5.19-1.078 10.067-2.688 14.615-4.867 1.94-14.494 7.246-25.652 15.913-33.438-12.342-1.308-23.443-3.26-33.295-5.855-9.85-2.596-20.024-6.82-30.53-12.655-10.505-5.854-19.22-13.11-26.144-21.768-6.924-8.657-12.608-20.024-17.05-34.1-4.434-14.077-6.66-30.313-6.66-48.708 0-26.2 8.554-48.498 25.662-66.912-8.014-19.703-7.256-41.773 2.273-66.25 6.28-1.952 15.592-.493 27.935 4.376 12.333 4.888 21.38 9.056 27.11 12.503 5.74 3.468 10.344 6.404 13.81 8.772 20.13-5.626 40.922-8.43 62.35-8.43 21.424 0 42.227 2.804 62.346 8.43l12.353-7.786c8.45-5.19 18.415-9.965 29.896-14.303 11.46-4.32 20.232-5.513 26.295-3.563 9.737 24.478 10.608 46.548 2.595 66.25 17.106 18.415 25.67 40.713 25.67 66.913 0 18.396-2.234 34.688-6.668 48.878-4.434 14.172-10.192 25.54-17.203 34.102-7.048 8.544-15.82 15.743-26.334 21.597-10.495 5.834-20.668 10.06-30.52 12.654-9.85 2.595-20.935 4.547-33.286 5.854 11.253 9.738 16.9 25.12 16.9 46.112v68.523c0 3.902 1.345 7.142 4.053 9.737 2.69 2.614 6.972 3.354 12.826 2.272 50.22-16.67 91.198-46.698 122.932-90.12 31.713-43.402 47.57-92.28 47.57-146.633 0-45.242-11.158-86.977-33.456-125.19z"/></symbol><symbol id="social-linkedin" viewBox="0 0 560 560"><path d="M54.69 202.697v298.09h99.273v-298.09H54.69zm90.246-128.9c-10.027-9.723-23.363-14.583-40.007-14.583s-30.13 4.86-40.456 14.582C54.14 83.516 48.98 95.8 48.98 110.646c0 14.634 5.01 26.882 15.037 36.69 10.028 9.826 23.26 14.74 39.71 14.74h.604c16.846 0 30.428-4.914 40.754-14.74 10.326-9.81 15.39-22.057 15.195-36.69-.2-14.846-5.316-27.13-15.344-36.85zM479.734 229.91c-20.863-22.76-48.43-34.146-82.717-34.146-12.634 0-24.127 1.562-34.445 4.667-10.335 3.106-19.056 7.476-26.18 13.09s-12.774 10.827-16.986 15.635c-4.21 4.826-8.317 10.44-12.336 16.846h.615v-43.307H208.71l.298 14.44c.193 9.617.3 39.307.3 89.036 0 49.728-.203 114.6-.598 194.613h98.975V334.44c0-10.23 1.088-18.335 3.298-24.354 4.212-10.23 10.564-18.81 19.092-25.724 8.528-6.913 19.11-10.37 31.742-10.37 17.25 0 29.918 5.966 38.06 17.897 8.107 11.93 12.178 28.408 12.178 49.482v159.414h98.966V329.93c0-43.92-10.422-77.26-31.286-100.018z"/></symbol><symbol id="social-twitter" viewBox="0 0 560 560"><path d="M490.197 127.048c24.445-14.665 40.982-35.38 49.6-62.146-22.344 13.26-46.216 22.345-71.598 27.233-22.324-23.75-49.803-35.605-82.395-35.605-31.184 0-57.785 10.98-79.784 32.978-22 22.02-32.997 48.6-32.997 79.807 0 8.372.926 16.986 2.79 25.827-46.096-2.322-89.34-13.913-129.72-34.73-40.392-20.836-74.673-48.6-102.844-83.288-10.236 17.456-15.36 36.44-15.36 56.912 0 19.33 4.543 37.254 13.618 53.773 9.084 16.54 21.294 29.922 36.663 40.166-18.158-.712-35.145-5.478-50.983-14.318v1.385c0 27.233 8.555 51.167 25.666 71.76 17.11 20.612 38.7 33.59 64.773 38.945-9.777 2.566-19.667 3.83-29.678 3.83-6.52 0-13.616-.57-21.296-1.73 7.21 22.568 20.48 41.145 39.8 55.687 19.32 14.545 41.21 22.06 65.65 22.53-40.97 32.122-87.648 48.172-140.026 48.172-10.012 0-19.086-.47-27.234-1.386 52.38 33.752 110.105 50.62 173.2 50.62 40.035 0 77.625-6.336 112.782-19.025 35.158-12.69 65.18-29.68 90.094-50.984 24.912-21.285 46.38-45.788 64.43-73.49 18.045-27.702 31.488-56.627 40.328-86.773 8.84-30.147 13.26-60.354 13.26-90.622 0-6.517-.103-11.406-.346-14.666 22.12-16.052 40.98-35.505 56.565-58.317-21.65 9.328-43.285 15.134-64.958 17.455z"/></symbol><symbol id="ui-angle-down" viewBox="-4.267 4.266 19.314 10.781"><path d="M6.19 11.586c-.105.104-.23.188-.366.242-.005.003-.01.004-.016.006-.126.05-.263.078-.406.078-.143 0-.28-.028-.404-.078l-.018-.006c-.137-.056-.26-.14-.364-.24l-7.01-7.012c-.213-.202-.485-.31-.762-.31-.283 0-.568.107-.785.324-.436.435-.436 1.138 0 1.57l8.555 8.56c.104.105.23.187.365.243.005.003.01.003.017.006.125.048.262.077.404.077.145 0 .28-.028.407-.078.005-.004.01-.004.016-.007.14-.057.263-.14.365-.243l8.534-8.533c.434-.435.434-1.138 0-1.57-.217-.218-.5-.325-.784-.325-.276 0-.555.105-.77.313l-6.98 6.98z"/></symbol><symbol id="ui-angle-left" viewBox="0 0 10.779 19.314"><path d="M3.462 10.456c-.104-.104-.188-.228-.243-.365-.003-.004-.004-.01-.006-.015-.05-.126-.08-.263-.08-.406s.03-.28.08-.406l.005-.017c.055-.137.138-.26.24-.364l7.01-7.01c.204-.213.31-.486.31-.762 0-.282-.106-.567-.323-.784-.435-.435-1.138-.435-1.572 0L.325 8.882c-.103.104-.185.228-.24.365-.004.005-.004.01-.007.016-.05.125-.078.262-.078.405s.028.28.078.406c.003.005.003.01.006.016.056.138.14.262.243.365L8.86 18.99c.435.433 1.138.433 1.57 0 .218-.218.326-.5.326-.785 0-.277-.106-.555-.313-.77l-6.98-6.98z"/></symbol><symbol id="ui-angle-right" viewBox="0 0 10.779 19.314"><path d="M7.318 8.86c.104.103.188.226.242.364l.006.016c.05.126.078.262.078.405s-.027.28-.078.405l-.006.017c-.055.137-.14.26-.24.364L.31 17.44c-.204.216-.31.488-.31.764 0 .283.107.567.325.786.434.434 1.137.434 1.57 0l8.56-8.56c.103-.103.186-.227.24-.363.004-.006.004-.012.007-.017.05-.125.077-.262.077-.405s-.03-.28-.078-.405c-.003-.006-.003-.012-.007-.017-.056-.138-.14-.262-.242-.365L1.92.325C1.483-.11.78-.11.35.325.13.54.02.825.02 1.11c0 .276.106.554.313.77l6.983 6.98z"/></symbol><symbol id="ui-close" viewBox="0 0 41.677 34.607"><path d="M37.516 31.008L23.9 17.39 37.516 3.768c.845-.845.845-2.216 0-3.06-.842-.846-2.216-.846-3.056 0L20.84 14.325 7.213.704c-.84-.845-2.21-.845-3.057 0-.843.844-.843 2.216 0 3.063L17.774 17.39 4.157 31.008c-.843.845-.843 2.213 0 3.058.844.846 2.212.846 3.057 0L20.84 20.45l13.62 13.615c.84.846 2.214.846 3.056 0 .85-.845.85-2.21 0-3.057z"/></symbol><symbol id="ui-download" viewBox="0 0 560 560"><path d="M525 245c-19.3 0-35 15.8-35 35v210H70V280c0-19.3-15.8-35-35-35S0 260.8 0 280v245c0 19.3 15.8 35 35 35h490c19.3 0 35-15.8 35-35V280c0-19.2-15.7-35-35-35z"/><path d="M314 245V31.5C314 14 298.3 0 279 0s-35 14-35 31.5V245H139l140 140 140-140H314z"/></symbol><symbol id="ui-grid" viewBox="0 0 34.604 34.607"><path d="M0 0h14.302v14.302H0zM20.302.004h14.302v14.302H20.302zM0 20.3h14.302v14.303H0zM20.302 20.305h14.302v14.302H20.302z"/></symbol><symbol id="ui-loading" viewBox="0 0 34 34"><circle cx="17" cy="17.3" r="11.5"/></symbol><symbol id="ui-navicon" viewBox="0 0 41.677 34.607"><path d="M0 0h41.677v7.052H0zM0 13.778h41.677v7.05H0zM0 27.555h41.677v7.052H0z"/></symbol></svg>